SplineFontDB: 3.0
FontName: Vazir-Thin
FullName: Vazir
FamilyName: Vazir
Weight: Thin
Copyright: Copyright (c) 2003 by Bitstream, Inc. All Rights Reserved.\nDejaVu changes are in public domain\nChanges by Saber Rastikerdar are in public domain.\nNon-Arabic(Latin) glyphs and data in extended version are imported from Roboto font under the Apache License, Version 2.0.
Version: 11.0.0
ItalicAngle: 0
UnderlinePosition: -500
UnderlineWidth: 100
Ascent: 1638
Descent: 410
InvalidEm: 0
LayerCount: 2
Layer: 0 1 "Back" 1
Layer: 1 1 "Fore" 0
PreferredKerning: 4
XUID: [1021 502 1027637223 18618]
UniqueID: 4011868
UseUniqueID: 1
FSType: 0
OS2Version: 1
OS2_WeightWidthSlopeOnly: 0
OS2_UseTypoMetrics: 1
CreationTime: 1431850356
ModificationTime: 1496908990
PfmFamily: 33
TTFWeight: 100
TTFWidth: 5
LineGap: 0
VLineGap: 0
Panose: 2 11 6 3 3 8 4 2 2 4
OS2TypoAscent: 2350
OS2TypoAOffset: 0
OS2TypoDescent: -1100
OS2TypoDOffset: 0
OS2TypoLinegap: 0
OS2WinAscent: 2350
OS2WinAOffset: 0
OS2WinDescent: 1100
OS2WinDOffset: 0
HheadAscent: 2350
HheadAOffset: 0
HheadDescent: -1100
HheadDOffset: 0
OS2SubXSize: 1331
OS2SubYSize: 1433
OS2SubXOff: 0
OS2SubYOff: 286
OS2SupXSize: 1331
OS2SupYSize: 1433
OS2SupXOff: 0
OS2SupYOff: 983
OS2StrikeYSize: 102
OS2StrikeYPos: 530
OS2CapHeight: 1638
OS2XHeight: 1082
OS2Vendor: 'PfEd'
OS2CodePages: 00000041.20080000
OS2UnicodeRanges: 80002003.80000000.00000008.00000000
Lookup: 1 9 0 "'fina' Terminal Forms in Arabic lookup 9" { "'fina' Terminal Forms in Arabic lookup 9 subtable"  } ['fina' ('arab' <'KUR ' 'SND ' 'URD ' 'dflt' > ) ]
Lookup: 1 9 0 "'medi' Medial Forms in Arabic lookup 11" { "'medi' Medial Forms in Arabic lookup 11 subtable"  } ['medi' ('arab' <'KUR ' 'SND ' 'URD ' 'dflt' > ) ]
Lookup: 1 9 0 "'init' Initial Forms in Arabic lookup 13" { "'init' Initial Forms in Arabic lookup 13 subtable"  } ['init' ('arab' <'KUR ' 'SND ' 'URD ' 'dflt' > ) ]

StartChar: exclam
Encoding: 33 33 1
GlifName: exclam
Width: 641
VWidth: 2764
GlyphClass: 2
Flags: W
LayerCount: 2
Fore
SplineSet
215.091796875 140.493164062 m 0,0,1
 215.091796875 183.94154082 215.091796875 183.94154082 245.961511507 214.810495264 c 128,-1,2
 276.829943567 245.6796875 276.829943567 245.6796875 320.278320312 245.6796875 c 128,-1,3
 363.72767362 245.6796875 363.72767362 245.6796875 394.596105674 214.81049527 c 128,-1,4
 425.463867188 183.941973579 425.463867188 183.941973579 425.463867188 140.493164062 c 128,-1,5
 425.463867188 97.0443545455 425.463867188 97.0443545455 394.59610568 66.1758328608 c 128,-1,6
 363.72767362 35.306640625 363.72767362 35.306640625 320.278320312 35.306640625 c 0,7,8
 312.400893865 35.306640625 312.400893865 35.306640625 305.146808018 36.2224490811 c 128,-1,9
 297.892722171 37.1382575372 297.892722171 37.1382575372 291.146741789 38.9766404122 c 128,-1,10
 284.400761406 40.8150232872 284.400761406 40.8150232872 278.068740519 43.6273500709 c 128,-1,11
 271.736719632 46.4396768545 271.736719632 46.4396768545 265.799850256 50.1830722942 c 128,-1,12
 259.86298088 53.9264677338 259.86298088 53.9264677338 254.130689895 58.7019425347 c 0,13,14
 232.385248362 76.8174643979 232.385248362 76.8174643979 222.692851159 100.16794877 c 0,15,16
 215.091796875 118.478454132 215.091796875 118.478454132 215.091796875 140.493164062 c 0,0,1
243.97056431 1436.07128906 m 1,17,-1
 399.841831535 1436.07128906 l 1,18,-1
 376.845907555 529.32421875 l 1,19,-1
 268.114177796 529.32421875 l 1,20,-1
 243.97056431 1436.07128906 l 1,17,-1
EndSplineSet
EndChar

StartChar: period
Encoding: 46 46 2
GlifName: period
Width: 641
VWidth: 2764
GlyphClass: 2
Flags: W
LayerCount: 2
Fore
SplineSet
215.091796875 140.493164062 m 0,0,1
 215.091796875 183.94154082 215.091796875 183.94154082 245.961511507 214.810495264 c 128,-1,2
 276.829943567 245.6796875 276.829943567 245.6796875 320.278320312 245.6796875 c 128,-1,3
 363.72767362 245.6796875 363.72767362 245.6796875 394.596105674 214.81049527 c 128,-1,4
 425.463867188 183.941973579 425.463867188 183.941973579 425.463867188 140.493164062 c 128,-1,5
 425.463867188 97.0443545455 425.463867188 97.0443545455 394.59610568 66.1758328608 c 128,-1,6
 363.72767362 35.306640625 363.72767362 35.306640625 320.278320312 35.306640625 c 0,7,8
 312.400893865 35.306640625 312.400893865 35.306640625 305.146808018 36.2224490811 c 128,-1,9
 297.892722171 37.1382575372 297.892722171 37.1382575372 291.146741789 38.9766404122 c 128,-1,10
 284.400761406 40.8150232872 284.400761406 40.8150232872 278.068740519 43.6273500709 c 128,-1,11
 271.736719632 46.4396768545 271.736719632 46.4396768545 265.799850256 50.1830722942 c 128,-1,12
 259.86298088 53.9264677338 259.86298088 53.9264677338 254.130689895 58.7019425347 c 0,13,14
 232.385248362 76.8174643979 232.385248362 76.8174643979 222.692851159 100.16794877 c 0,15,16
 215.091796875 118.478454132 215.091796875 118.478454132 215.091796875 140.493164062 c 0,0,1
EndSplineSet
EndChar

StartChar: colon
Encoding: 58 58 3
GlifName: colon
Width: 641
VWidth: 2764
GlyphClass: 2
Flags: W
LayerCount: 2
Fore
SplineSet
215.091796875 1010.49316406 m 0,0,1
 215.091796875 1053.94154082 215.091796875 1053.94154082 245.961511507 1084.81049526 c 0,2,3
 261.851735172 1100.70111025 261.851735172 1100.70111025 279.894053932 1108.19039887 c 128,-1,4
 297.936372692 1115.6796875 297.936372692 1115.6796875 320.278320312 1115.6796875 c 0,5,6
 363.72767362 1115.6796875 363.72767362 1115.6796875 394.596105673 1084.81049527 c 128,-1,7
 425.463867188 1053.94197358 425.463867188 1053.94197358 425.463867188 1010.49316406 c 0,8,9
 425.463867188 988.148818079 425.463867188 988.148818079 417.974234806 970.106769484 c 128,-1,10
 410.484602424 952.064720889 410.484602424 952.064720889 394.59610568 936.175832861 c 0,11,12
 363.72767362 905.306640625 363.72767362 905.306640625 320.278320312 905.306640625 c 0,13,14
 282.213484554 905.306640625 282.213484554 905.306640625 254.130689895 928.701942535 c 0,15,16
 246.67733662 934.911123617 246.67733662 934.911123617 240.726607847 941.606225529 c 128,-1,17
 234.775879075 948.30132744 234.775879075 948.30132744 230.343719227 955.35745507 c 128,-1,18
 225.91155938 962.413582699 225.91155938 962.413582699 222.692851159 970.16794877 c 0,19,20
 215.091796875 988.478454132 215.091796875 988.478454132 215.091796875 1010.49316406 c 0,0,1
215.091796875 140.493164062 m 0,21,22
 215.091796875 183.94154082 215.091796875 183.94154082 245.961511507 214.810495264 c 128,-1,23
 276.829943567 245.6796875 276.829943567 245.6796875 320.278320312 245.6796875 c 128,-1,24
 363.72767362 245.6796875 363.72767362 245.6796875 394.596105674 214.81049527 c 128,-1,25
 425.463867188 183.941973579 425.463867188 183.941973579 425.463867188 140.493164062 c 128,-1,26
 425.463867188 97.0443545455 425.463867188 97.0443545455 394.59610568 66.1758328608 c 128,-1,27
 363.72767362 35.306640625 363.72767362 35.306640625 320.278320312 35.306640625 c 0,28,29
 312.400893865 35.306640625 312.400893865 35.306640625 305.146808018 36.2224490811 c 128,-1,30
 297.892722171 37.1382575372 297.892722171 37.1382575372 291.146741789 38.9766404122 c 128,-1,31
 284.400761406 40.8150232872 284.400761406 40.8150232872 278.068740519 43.6273500709 c 128,-1,32
 271.736719632 46.4396768545 271.736719632 46.4396768545 265.799850256 50.1830722942 c 128,-1,33
 259.86298088 53.9264677338 259.86298088 53.9264677338 254.130689895 58.7019425347 c 0,34,35
 232.385248362 76.8174643979 232.385248362 76.8174643979 222.692851159 100.16794877 c 0,36,37
 215.091796875 118.478454132 215.091796875 118.478454132 215.091796875 140.493164062 c 0,21,22
EndSplineSet
EndChar

StartChar: afii57388
Encoding: 1548 1548 5
GlifName: afii57388
Width: 739
VWidth: 2772
GlyphClass: 2
Flags: W
LayerCount: 2
Fore
SplineSet
264.910637075 284.082651121 m 0,0,1
 307.841957006 496.571002293 307.841957006 496.571002293 467.365692841 633.966496181 c 1,2,3
 340.587549519 493.420020635 340.587549519 493.420020635 326.067386861 291.349380759 c 2,4,-1
 323.725590812 258.759647625 l 1,5,-1
 356.396358593 259.201967824 l 2,6,7
 470.732674817 260.749934573 470.732674817 260.749934573 495.831417445 211.428529251 c 0,8,9
 511.830053453 179.28769214 511.830053453 179.28769214 511.092323882 148.585517716 c 0,10,11
 510.208059667 89.6886383177 510.208059667 89.6886383177 483.746492647 64.3178153633 c 128,-1,12
 457.284925628 38.9469924089 457.284925628 38.9469924089 395.927557331 38.9071858777 c 0,13,14
 370.73522181 38.8018625783 370.73522181 38.8018625783 350.135348973 42.8601864058 c 0,15,16
 286.295285382 55.4371403164 286.295285382 55.4371403164 264.017436633 111.934799505 c 128,-1,17
 241.739587883 168.432458694 241.739587883 168.432458694 264.910637075 284.082651121 c 0,0,1
EndSplineSet
EndChar

StartChar: uni0615
Encoding: 1557 1557 6
GlifName: uni0615
Width: -29
VWidth: 2714
GlyphClass: 4
Flags: W
AnchorPoint: "Anchor-10" 658.199 1624.46 mark 0
AnchorPoint: "Anchor-9" 658.199 1624.46 mark 0
AnchorPoint: "Anchor-1" 672.366 2447.86 basemark 0
AnchorPoint: "Anchor-1" 658.199 1624.46 mark 0
LayerCount: 2
Fore
SplineSet
541.2421875 1775.00390625 m 1,0,-1
 677.703125 1775.00390625 l 2,1,2
 699.071002991 1775.00390625 699.071002991 1775.00390625 718.806321323 1776.41313605 c 128,-1,3
 738.541639654 1777.82236585 738.541639654 1777.82236585 756.899263217 1780.69061818 c 128,-1,4
 775.25688678 1783.55887051 775.25688678 1783.55887051 791.990023818 1787.884055 c 128,-1,5
 808.723160856 1792.20923948 808.723160856 1792.20923948 824.023495959 1798.06906616 c 128,-1,6
 839.323831062 1803.92889285 839.323831062 1803.92889285 853.007752776 1811.29335404 c 0,7,8
 924.573229861 1849.8087146 924.573229861 1849.8087146 927.563561482 1911.67230996 c 0,9,10
 928.510395403 1931.26028816 928.510395403 1931.26028816 924.944570438 1947.3586821 c 128,-1,11
 921.378745474 1963.45707603 921.378745474 1963.45707603 912.484516516 1976.28889844 c 128,-1,12
 903.590287557 1989.12072086 903.590287557 1989.12072086 889.667083237 1996.6627666 c 0,13,14
 828.145125253 2030.99887216 828.145125253 2030.99887216 738.950271231 1980.34635623 c 128,-1,15
 649.755417209 1929.6938403 649.755417209 1929.6938403 530.21938496 1800.17729429 c 2,16,-1
 506.985852127 1775.00390625 l 1,17,-1
 541.2421875 1775.00390625 l 1,0,-1
976.132806808 1928.79523598 m 0,18,19
 976.07106922 1828.94603674 976.07106922 1828.94603674 901.038112832 1779.01012775 c 128,-1,20
 826.005156445 1729.07421875 826.005156445 1729.07421875 668.384765625 1729.07421875 c 2,21,-1
 369.936523438 1729.07421875 l 1,22,-1
 369.936523438 1775.00390625 l 1,23,-1
 462.987304688 1775.00390625 l 1,24,-1
 477.987304688 1775.00390625 l 1,25,-1
 477.987304688 1790.00390625 l 1,26,-1
 477.987304688 2306.96148119 l 1,27,-1
 525.201091067 2306.37057022 l 1,28,-1
 524.275428404 1893.93600947 l 1,29,-1
 524.185894319 1854.04355976 l 1,30,-1
 550.537070985 1883.99403635 l 2,31,32
 618.725332086 1961.49611316 618.725332086 1961.49611316 681.667697194 2005.80579141 c 128,-1,33
 744.610062302 2050.11546966 744.610062302 2050.11546966 800.322340963 2060.8634123 c 128,-1,34
 856.034619624 2071.61135493 856.034619624 2071.61135493 907.087256289 2052.6620394 c 0,35,36
 976.012721582 2026.62672687 976.012721582 2026.62672687 976.132806808 1928.79523598 c 0,18,19
EndSplineSet
EndChar

StartChar: uni061B
Encoding: 1563 1563 7
GlifName: uni061B_
Width: 739
VWidth: 2772
GlyphClass: 2
Flags: W
LayerCount: 2
Fore
SplineSet
292.091796875 140.493164062 m 0,0,1
 292.091796875 183.94154082 292.091796875 183.94154082 322.961511507 214.810495264 c 128,-1,2
 353.829943567 245.6796875 353.829943567 245.6796875 397.278320312 245.6796875 c 128,-1,3
 440.72767362 245.6796875 440.72767362 245.6796875 471.596105674 214.81049527 c 128,-1,4
 502.463867188 183.941973579 502.463867188 183.941973579 502.463867188 140.493164062 c 128,-1,5
 502.463867188 97.0443545455 502.463867188 97.0443545455 471.59610568 66.1758328608 c 128,-1,6
 440.72767362 35.306640625 440.72767362 35.306640625 397.278320312 35.306640625 c 0,7,8
 377.694340471 35.306640625 377.694340471 35.306640625 361.57452748 41.0377401022 c 128,-1,9
 345.454714489 46.7688395795 345.454714489 46.7688395795 331.130689895 58.7019425347 c 0,10,11
 309.385248362 76.8174643979 309.385248362 76.8174643979 299.692851159 100.16794877 c 0,12,13
 295.906486782 109.28908416 295.906486782 109.28908416 293.999141828 119.281198249 c 128,-1,14
 292.091796875 129.273312338 292.091796875 129.273312338 292.091796875 140.493164062 c 0,0,1
264.910637075 764.082651121 m 0,15,16
 307.841957006 976.571002293 307.841957006 976.571002293 467.365692842 1113.96649618 c 1,17,18
 340.587549519 973.420020634 340.587549519 973.420020634 326.067386861 771.349380759 c 2,19,-1
 323.725590812 738.759647625 l 1,20,-1
 356.396358593 739.201967824 l 2,21,22
 470.732674817 740.749934573 470.732674817 740.749934573 495.831417445 691.428529251 c 0,23,24
 501.294231869 680.453879382 501.294231869 680.453879382 504.779349213 669.780260893 c 128,-1,25
 508.264466557 659.106642404 508.264466557 659.106642404 509.800370423 648.926798773 c 128,-1,26
 511.336274288 638.746955142 511.336274288 638.746955142 511.092033502 628.58560122 c 0,27,28
 510.49759072 588.986901312 510.49759072 588.986901312 498.785234143 565.184243472 c 128,-1,29
 487.072877565 541.381585632 487.072877565 541.381585632 462.162307151 530.157790601 c 128,-1,30
 437.251736737 518.933995571 437.251736737 518.933995571 395.927557331 518.907185877 c 0,31,32
 383.169982385 518.853849422 383.169982385 518.853849422 371.754153587 519.851987926 c 128,-1,33
 360.338324788 520.850126431 360.338324788 520.850126431 350.135348973 522.860186405 c 0,34,35
 286.295285382 535.437140316 286.295285382 535.437140316 264.017436633 591.934799505 c 128,-1,36
 241.739587883 648.432458694 241.739587883 648.432458694 264.910637075 764.082651121 c 0,15,16
EndSplineSet
EndChar

StartChar: uni061F
Encoding: 1567 1567 8
GlifName: uni061F_
Width: 974
VWidth: 2764
GlyphClass: 2
Flags: W
LayerCount: 2
Fore
SplineSet
448.091796875 140.493164062 m 0,0,1
 448.091796875 183.94154082 448.091796875 183.94154082 478.961511507 214.810495264 c 0,2,3
 494.851735172 230.701110247 494.851735172 230.701110247 512.894053932 238.190398873 c 128,-1,4
 530.936372692 245.6796875 530.936372692 245.6796875 553.278320312 245.6796875 c 0,5,6
 596.72767362 245.6796875 596.72767362 245.6796875 627.596105674 214.81049527 c 128,-1,7
 658.463867188 183.941973579 658.463867188 183.941973579 658.463867188 140.493164062 c 128,-1,8
 658.463867188 97.0443545455 658.463867188 97.0443545455 627.59610568 66.1758328608 c 128,-1,9
 596.72767362 35.306640625 596.72767362 35.306640625 553.278320312 35.306640625 c 0,10,11
 533.694340471 35.306640625 533.694340471 35.306640625 517.57452748 41.0377401022 c 128,-1,12
 501.454714489 46.7688395795 501.454714489 46.7688395795 487.130689895 58.7019425347 c 0,13,14
 465.385248362 76.8174643979 465.385248362 76.8174643979 455.692851159 100.16794877 c 0,15,16
 451.906486782 109.28908416 451.906486782 109.28908416 449.999141828 119.281198249 c 128,-1,17
 448.091796875 129.273312338 448.091796875 129.273312338 448.091796875 140.493164062 c 0,0,1
476.090250007 526.333007812 m 1,18,19
 472.305443481 537.18315928 472.305443481 537.18315928 466.724471746 548.667773652 c 128,-1,20
 461.14350001 560.152388025 461.14350001 560.152388025 453.705646351 572.327429864 c 128,-1,21
 446.267792691 584.502471704 446.267792691 584.502471704 437.194374773 597.28901854 c 128,-1,22
 428.120956855 610.075565377 428.120956855 610.075565377 416.999544905 623.902076408 c 128,-1,23
 405.878132955 637.728587439 405.878132955 637.728587439 393.305205234 652.118812583 c 128,-1,24
 380.732277514 666.509037727 380.732277514 666.509037727 365.920243654 682.288763793 c 128,-1,25
 351.108209795 698.068489859 351.108209795 698.068489859 335.028708652 714.364139154 c 128,-1,26
 318.94920751 730.659788449 318.94920751 730.659788449 300.462935658 748.669642418 c 0,27,28
 131.276463974 913.39278212 131.276463974 913.39278212 134.993838641 1084.39201678 c 0,29,30
 137.772402526 1221.46783512 137.772402526 1221.46783512 214.495627247 1309.15152051 c 0,31,32
 326.43422916 1434.96680861 326.43422916 1434.96680861 508.82526408 1434.51685764 c 0,33,34
 676.719094093 1433.82314424 676.719094093 1433.82314424 758.797899857 1351.46457753 c 128,-1,35
 840.876705622 1269.10601081 840.876705622 1269.10601081 845.732085938 1096.24963098 c 1,36,-1
 745.245593316 1096.24840588 l 1,37,38
 741.624711819 1162.24163688 741.624711819 1162.24163688 713.668247808 1208.23636649 c 128,-1,39
 685.711783797 1254.23109611 685.711783797 1254.23109611 636.037752548 1277.58107767 c 128,-1,40
 586.363721299 1300.93105923 586.363721299 1300.93105923 517.627491086 1300.89451919 c 0,41,42
 385.922923604 1301.01263693 385.922923604 1301.01263693 321.349850214 1223.21151266 c 0,43,44
 295.663473078 1192.54404539 295.663473078 1192.54404539 282.72314904 1153.61521842 c 128,-1,45
 269.782825003 1114.68639145 269.782825003 1114.68639145 269.51106556 1069.13929182 c 0,46,47
 268.943860858 946.978799244 268.943860858 946.978799244 417.91408442 791.984946236 c 0,48,49
 584.919659572 616.830782055 584.919659572 616.830782055 617.898690102 526.333007812 c 1,50,-1
 476.090250007 526.333007812 l 1,18,19
EndSplineSet
EndChar

StartChar: uni0621
Encoding: 1569 1569 9
GlifName: uni0621
Width: 938
VWidth: 2952
GlyphClass: 2
Flags: W
AnchorPoint: "Anchor-7" 465.326 -239.646 basechar 0
AnchorPoint: "Anchor-10" 483.848 1372.06 basechar 0
LayerCount: 2
Fore
SplineSet
147.76953125 62.4710285392 m 1,0,-1
 147.76953125 193.174688618 l 1,1,2
 264.866168609 265.508156796 264.866168609 265.508156796 367.350424143 297.983534327 c 2,3,-1
 436.247405002 319.815721647 l 1,4,-1
 372.14208423 353.19155457 l 2,5,6
 316.698404523 382.057785458 316.698404523 382.057785458 275.825228158 414.448070932 c 128,-1,7
 234.952051793 446.838356405 234.952051793 446.838356405 208.644982243 482.650191965 c 128,-1,8
 182.337912694 518.462027525 182.337912694 518.462027525 169.496010158 557.347829097 c 128,-1,9
 156.654107622 596.233630669 156.654107622 596.233630669 156.554257338 639.303524752 c 0,10,11
 156.758148635 695.859944516 156.758148635 695.859944516 175.750448771 746.137455909 c 128,-1,12
 194.742748907 796.414967301 194.742748907 796.414967301 233.145306471 841.627855027 c 0,13,14
 322.767972512 945.985237806 322.767972512 945.985237806 488.609348415 945.806663544 c 0,15,16
 522.400280311 945.84843231 522.400280311 945.84843231 554.212968108 940.814187933 c 128,-1,17
 586.025655905 935.779943555 586.025655905 935.779943555 615.809211387 925.693234426 c 128,-1,18
 645.592766869 915.606525296 645.592766869 915.606525296 673.390523374 900.59071765 c 128,-1,19
 701.188279879 885.574910004 701.188279879 885.574910004 727.228134172 865.546234884 c 1,20,-1
 692.638454359 787.400330372 l 1,21,22
 599.872641227 830.033245453 599.872641227 830.033245453 500.361497107 830.437274253 c 0,23,24
 389.154195756 830.200518436 389.154195756 830.200518436 327.083013417 781.508638531 c 128,-1,25
 265.011831078 732.816758625 265.011831078 732.816758625 265.028301377 639.274025966 c 0,26,27
 264.99568307 494.895324186 264.99568307 494.895324186 505.086927803 382.86382946 c 2,28,-1
 514.033748629 378.689059525 l 1,29,-1
 523.711271767 380.643503902 l 1,30,-1
 775.342343289 431.462181955 l 1,31,-1
 794.256246185 300.519368388 l 1,32,33
 514.878230103 260.073934997 514.878230103 260.073934997 147.76953125 62.4710285392 c 1,0,-1
EndSplineSet
EndChar

StartChar: uni0627
Encoding: 1575 1575 15
GlifName: uni0627
Width: 497
VWidth: 2952
GlyphClass: 2
Flags: W
AnchorPoint: "Anchor-10" 249.871 1633.46 basechar 0
AnchorPoint: "Anchor-7" 253.587 -236.365 basechar 0
LayerCount: 2
Fore
SplineSet
194.890625 1438.15039062 m 1,0,-1
 314.205078125 1438.15039062 l 1,1,-1
 314.205078125 30.751953125 l 1,2,-1
 194.890625 30.751953125 l 1,3,-1
 194.890625 1438.15039062 l 1,0,-1
EndSplineSet
Substitution2: "'fina' Terminal Forms in Arabic lookup 9 subtable" uniFE8E
EndChar

StartChar: uni062C
Encoding: 1580 1580 20
GlifName: uni062C_
Width: 1386
VWidth: 2703
GlyphClass: 2
Flags: W
AnchorPoint: "Anchor-7" 536.833 -922.619 basechar 0
AnchorPoint: "Anchor-10" 633.478 1366.07 basechar 0
LayerCount: 2
Fore
SplineSet
791.528320312 -701.249023438 m 1024
EndSplineSet
Refer: 21 1581 N 1 0 0 1 0 0 2
Refer: 264 -1 N 1.07 0 0 1.07 701.95 -174.716 2
Substitution2: "'fina' Terminal Forms in Arabic lookup 9 subtable" uniFE9E
Substitution2: "'medi' Medial Forms in Arabic lookup 11 subtable" uniFEA0
Substitution2: "'init' Initial Forms in Arabic lookup 13 subtable" uniFE9F
EndChar

StartChar: uni062D
Encoding: 1581 1581 21
GlifName: uni062D_
Width: 1386
VWidth: 2952
GlyphClass: 2
Flags: W
AnchorPoint: "Anchor-7" 536.833 -922.619 basechar 0
AnchorPoint: "Anchor-10" 633.478 1366.07 basechar 0
LayerCount: 2
Fore
SplineSet
129.986966694 -164.852818855 m 0,0,1
 129.986966694 123.086675288 129.986966694 123.086675288 307.242493502 305.529104908 c 128,-1,2
 484.498020311 487.971534528 484.498020311 487.971534528 847.495496549 568.48799877 c 2,3,-1
 857.495496549 570.705772207 l 1,4,-1
 954.6464056 592.251642755 l 1,5,-1
 861.774868768 627.992394196 l 2,6,7
 848.988620863 632.913063368 848.988620863 632.913063368 820.399879395 644.208013416 c 128,-1,8
 791.811137927 655.502963464 791.811137927 655.502963464 748.03070712 672.932560493 c 0,9,10
 680.611549382 700.095108509 680.611549382 700.095108509 629.885502511 717.527365922 c 128,-1,11
 579.15945564 734.959623334 579.15945564 734.959623334 538.49680281 744.323598349 c 128,-1,12
 497.834149981 753.687573365 497.834149981 753.687573365 469.551071232 753.687573365 c 0,13,14
 341.578432789 753.687573365 341.578432789 753.687573365 259.94175455 648.533895416 c 2,15,-1
 246.931496747 631.77572599 l 1,16,-1
 144.347494432 682.420851453 l 1,17,18
 205.983984463 783.588550506 205.983984463 783.588550506 286.758868479 832.51945357 c 128,-1,19
 367.533752494 881.450356634 367.533752494 881.450356634 471.457851429 881.842087465 c 0,20,21
 530.752231584 881.842087465 530.752231584 881.842087465 603.398326054 861.29071914 c 128,-1,22
 676.044420525 840.739350816 676.044420525 840.739350816 761.850380812 799.060452191 c 0,23,24
 907.186174373 728.244182648 907.186174373 728.244182648 1022.70512233 688.27837723 c 128,-1,25
 1138.22407029 648.312571811 1138.22407029 648.312571811 1225.83074535 639.023389394 c 1,26,-1
 1216.87898215 515.137609239 l 1,27,28
 1055.52276011 503.702060864 1055.52276011 503.702060864 946.00625308 478.812447262 c 0,29,30
 600.53370607 398.998099541 600.53370607 398.998099541 422.825448194 241.941523063 c 128,-1,31
 245.117190319 84.8849465845 245.117190319 84.8849465845 245.249030281 -149.282471948 c 0,32,33
 245.114754076 -348.088133766 245.114754076 -348.088133766 389.094192306 -447.935427342 c 128,-1,34
 533.073630535 -547.782720917 533.073630535 -547.782720917 806.383652291 -547.782720917 c 0,35,36
 1029.35704249 -547.782720917 1029.35704249 -547.782720917 1221.36115752 -465.198376596 c 1,37,-1
 1245.30805008 -583.955507866 l 1,38,39
 1148.89606601 -627.494058134 1148.89606601 -627.494058134 1035.74353032 -649.313780788 c 128,-1,40
 922.590994636 -671.133503441 922.590994636 -671.133503441 791.547598133 -671.249029632 c 0,41,42
 417.100819316 -671.008412316 417.100819316 -671.008412316 251.011845807 -491.923347364 c 0,43,44
 190.333592568 -426.397117769 190.333592568 -426.397117769 160.160279631 -345.133414668 c 128,-1,45
 129.986966694 -263.869711567 129.986966694 -263.869711567 129.986966694 -164.852818855 c 0,0,1
EndSplineSet
Substitution2: "'fina' Terminal Forms in Arabic lookup 9 subtable" uniFEA2
Substitution2: "'medi' Medial Forms in Arabic lookup 11 subtable" uniFEA4
Substitution2: "'init' Initial Forms in Arabic lookup 13 subtable" uniFEA3
EndChar

StartChar: uni062F
Encoding: 1583 1583 23
GlifName: uni062F_
Width: 1000
VWidth: 2952
GlyphClass: 2
Flags: W
AnchorPoint: "Anchor-10" 424.137 1375.03 basechar 0
AnchorPoint: "Anchor-7" 437.24 -239.316 basechar 0
LayerCount: 2
Fore
SplineSet
130.982421875 178.860061515 m 1,0,1
 237.097652349 160.0135047 237.097652349 160.0135047 341.654329821 160.106967299 c 0,2,3
 742.007806516 159.991331463 742.007806516 159.991331463 741.954100836 366.374259055 c 0,4,5
 741.978995043 479.524255594 741.978995043 479.524255594 640.221468401 597.778272691 c 128,-1,6
 538.463941759 716.032289787 538.463941759 716.032289787 338.81861139 844.933146903 c 1,7,-1
 406.367150143 947.415003444 l 1,8,9
 868.037776302 661.975865612 868.037776302 661.975865612 868.479153845 368.93587544 c 0,10,11
 868.332867278 257.220963379 868.332867278 257.220963379 814.660293484 183.339226853 c 128,-1,12
 760.987719691 109.457490327 760.987719691 109.457490327 646.47536606 70.9793717836 c 128,-1,13
 531.96301243 32.5012532397 531.96301243 32.5012532397 354.756976356 32.2597873934 c 0,14,15
 227.420920922 32.0344194437 227.420920922 32.0344194437 130.982421875 50.3027757364 c 1,16,-1
 130.982421875 178.860061515 l 1,0,1
EndSplineSet
Substitution2: "'fina' Terminal Forms in Arabic lookup 9 subtable" uniFEAA
EndChar

StartChar: uni0631
Encoding: 1585 1585 25
GlifName: uni0631
Width: 830
VWidth: 2144
GlyphClass: 2
Flags: W
AnchorPoint: "Anchor-10" 459.256 1370.2 basechar 0
AnchorPoint: "Anchor-7" 364.969 -769.998 basechar 0
LayerCount: 2
Fore
SplineSet
622.513478868 494.18346622 m 1,0,1
 703.035800293 300.455810542 703.035800293 300.455810542 703.375006271 134.012560838 c 0,2,3
 703.1983963 -139.140974075 703.1983963 -139.140974075 542.603080375 -298.039869194 c 128,-1,4
 382.007764449 -456.938764312 382.007764449 -456.938764312 51.9861928422 -506.655598691 c 1,5,-1
 24.0125419227 -394.759711524 l 1,6,7
 298.66920215 -351.444203194 298.66920215 -351.444203194 440.960096338 -221.538413616 c 128,-1,8
 583.250990525 -91.6326240388 583.250990525 -91.6326240388 583.250990525 122.243638113 c 0,9,10
 583.250990525 276.527164551 583.250990525 276.527164551 505.926616337 454.295131853 c 1,11,-1
 622.513478868 494.18346622 l 1,0,1
EndSplineSet
PairPos2: "'kern' Horizontal Kerning lookup 15-2" uniFBFE dx=60 dy=0 dh=60 dv=0 dx=0 dy=0 dh=0 dv=0
PairPos2: "'kern' Horizontal Kerning lookup 15-1" uniFEE7 dx=-178 dy=0 dh=-178 dv=0 dx=0 dy=0 dh=0 dv=0
PairPos2: "'kern' Horizontal Kerning lookup 15-2" uniFB90 dx=-226 dy=0 dh=-226 dv=0 dx=0 dy=0 dh=0 dv=0
PairPos2: "'kern' Horizontal Kerning lookup 15-2" uniFB8E dx=-226 dy=0 dh=-226 dv=0 dx=0 dy=0 dh=0 dv=0
PairPos2: "'kern' Horizontal Kerning lookup 15-2" uni06A9 dx=-226 dy=0 dh=-226 dv=0 dx=0 dy=0 dh=0 dv=0
PairPos2: "'kern' Horizontal Kerning lookup 15-2" uni064A dx=-60 dy=0 dh=-60 dv=0 dx=0 dy=0 dh=0 dv=0
PairPos2: "'kern' Horizontal Kerning lookup 15-2" afii57414 dx=-60 dy=0 dh=-60 dv=0 dx=0 dy=0 dh=0 dv=0
PairPos2: "'kern' Horizontal Kerning lookup 15-2" uni0649 dx=-60 dy=0 dh=-60 dv=0 dx=0 dy=0 dh=0 dv=0
PairPos2: "'kern' Horizontal Kerning lookup 15-2" uniFEEB dx=-178 dy=0 dh=-178 dv=0 dx=0 dy=0 dh=0 dv=0
PairPos2: "'kern' Horizontal Kerning lookup 15-2" uni0647 dx=-178 dy=0 dh=-178 dv=0 dx=0 dy=0 dh=0 dv=0
PairPos2: "'kern' Horizontal Kerning lookup 15-2" uni0646 dx=-60 dy=0 dh=-60 dv=0 dx=0 dy=0 dh=0 dv=0
PairPos2: "'kern' Horizontal Kerning lookup 15-2" uniFEE3 dx=-178 dy=0 dh=-178 dv=0 dx=0 dy=0 dh=0 dv=0
PairPos2: "'kern' Horizontal Kerning lookup 15-2" uni0645 dx=-178 dy=0 dh=-178 dv=0 dx=0 dy=0 dh=0 dv=0
PairPos2: "'kern' Horizontal Kerning lookup 15-2" uniFEFB dx=-143 dy=0 dh=-143 dv=0 dx=0 dy=0 dh=0 dv=0
PairPos2: "'kern' Horizontal Kerning lookup 15-2" uniFEDF dx=-143 dy=0 dh=-143 dv=0 dx=0 dy=0 dh=0 dv=0
PairPos2: "'kern' Horizontal Kerning lookup 15-2" uni0644 dx=-60 dy=0 dh=-60 dv=0 dx=0 dy=0 dh=0 dv=0
PairPos2: "'kern' Horizontal Kerning lookup 15-2" uniFEDB dx=-226 dy=0 dh=-226 dv=0 dx=0 dy=0 dh=0 dv=0
PairPos2: "'kern' Horizontal Kerning lookup 15-2" uni0643 dx=-143 dy=0 dh=-143 dv=0 dx=0 dy=0 dh=0 dv=0
PairPos2: "'kern' Horizontal Kerning lookup 15-2" uniFED7 dx=-178 dy=0 dh=-178 dv=0 dx=0 dy=0 dh=0 dv=0
PairPos2: "'kern' Horizontal Kerning lookup 15-2" uni0642 dx=-60 dy=0 dh=-60 dv=0 dx=0 dy=0 dh=0 dv=0
PairPos2: "'kern' Horizontal Kerning lookup 15-2" uniFED3 dx=-178 dy=0 dh=-178 dv=0 dx=0 dy=0 dh=0 dv=0
PairPos2: "'kern' Horizontal Kerning lookup 15-2" uni0641 dx=-178 dy=0 dh=-178 dv=0 dx=0 dy=0 dh=0 dv=0
PairPos2: "'kern' Horizontal Kerning lookup 15-2" uniFECF dx=-178 dy=0 dh=-178 dv=0 dx=0 dy=0 dh=0 dv=0
PairPos2: "'kern' Horizontal Kerning lookup 15-2" uniFECB dx=-178 dy=0 dh=-178 dv=0 dx=0 dy=0 dh=0 dv=0
PairPos2: "'kern' Horizontal Kerning lookup 15-2" uniFEC7 dx=-178 dy=0 dh=-178 dv=0 dx=0 dy=0 dh=0 dv=0
PairPos2: "'kern' Horizontal Kerning lookup 15-2" uni0638 dx=-178 dy=0 dh=-178 dv=0 dx=0 dy=0 dh=0 dv=0
PairPos2: "'kern' Horizontal Kerning lookup 15-2" uniFEC3 dx=-178 dy=0 dh=-178 dv=0 dx=0 dy=0 dh=0 dv=0
PairPos2: "'kern' Horizontal Kerning lookup 15-2" uni0637 dx=-178 dy=0 dh=-178 dv=0 dx=0 dy=0 dh=0 dv=0
PairPos2: "'kern' Horizontal Kerning lookup 15-2" uniFEBF dx=-178 dy=0 dh=-178 dv=0 dx=0 dy=0 dh=0 dv=0
PairPos2: "'kern' Horizontal Kerning lookup 15-2" uni0636 dx=-178 dy=0 dh=-178 dv=0 dx=0 dy=0 dh=0 dv=0
PairPos2: "'kern' Horizontal Kerning lookup 15-2" uniFEBB dx=-178 dy=0 dh=-178 dv=0 dx=0 dy=0 dh=0 dv=0
PairPos2: "'kern' Horizontal Kerning lookup 15-2" uni0635 dx=-178 dy=0 dh=-178 dv=0 dx=0 dy=0 dh=0 dv=0
PairPos2: "'kern' Horizontal Kerning lookup 15-2" uniFEB7 dx=-178 dy=0 dh=-178 dv=0 dx=0 dy=0 dh=0 dv=0
PairPos2: "'kern' Horizontal Kerning lookup 15-2" uni0634 dx=-178 dy=0 dh=-178 dv=0 dx=0 dy=0 dh=0 dv=0
PairPos2: "'kern' Horizontal Kerning lookup 15-2" uniFEB3 dx=-178 dy=0 dh=-178 dv=0 dx=0 dy=0 dh=0 dv=0
PairPos2: "'kern' Horizontal Kerning lookup 15-2" uni0633 dx=-178 dy=0 dh=-178 dv=0 dx=0 dy=0 dh=0 dv=0
PairPos2: "'kern' Horizontal Kerning lookup 15-2" uni0630 dx=-178 dy=0 dh=-178 dv=0 dx=0 dy=0 dh=0 dv=0
PairPos2: "'kern' Horizontal Kerning lookup 15-2" uni062F dx=-178 dy=0 dh=-178 dv=0 dx=0 dy=0 dh=0 dv=0
PairPos2: "'kern' Horizontal Kerning lookup 15-2" uniFEA7 dx=-178 dy=0 dh=-178 dv=0 dx=0 dy=0 dh=0 dv=0
PairPos2: "'kern' Horizontal Kerning lookup 15-2" uniFEA3 dx=-178 dy=0 dh=-178 dv=0 dx=0 dy=0 dh=0 dv=0
PairPos2: "'kern' Horizontal Kerning lookup 15-2" uniFE9F dx=-178 dy=0 dh=-178 dv=0 dx=0 dy=0 dh=0 dv=0
PairPos2: "'kern' Horizontal Kerning lookup 15-2" uniFE9B dx=-178 dy=0 dh=-178 dv=0 dx=0 dy=0 dh=0 dv=0
PairPos2: "'kern' Horizontal Kerning lookup 15-2" uni062B dx=-178 dy=0 dh=-178 dv=0 dx=0 dy=0 dh=0 dv=0
PairPos2: "'kern' Horizontal Kerning lookup 15-2" uniFE97 dx=-178 dy=0 dh=-178 dv=0 dx=0 dy=0 dh=0 dv=0
PairPos2: "'kern' Horizontal Kerning lookup 15-2" uni062A dx=-178 dy=0 dh=-178 dv=0 dx=0 dy=0 dh=0 dv=0
PairPos2: "'kern' Horizontal Kerning lookup 15-2" uni0629 dx=-178 dy=0 dh=-178 dv=0 dx=0 dy=0 dh=0 dv=0
PairPos2: "'kern' Horizontal Kerning lookup 15-2" uni0628 dx=-178 dy=0 dh=-178 dv=0 dx=0 dy=0 dh=0 dv=0
PairPos2: "'kern' Horizontal Kerning lookup 15-2" uni0627 dx=-143 dy=0 dh=-143 dv=0 dx=0 dy=0 dh=0 dv=0
PairPos2: "'kern' Horizontal Kerning lookup 15-2" uni0623 dx=-143 dy=0 dh=-143 dv=0 dx=0 dy=0 dh=0 dv=0
PairPos2: "'kern' Horizontal Kerning lookup 15-2" uni0622 dx=-143 dy=0 dh=-143 dv=0 dx=0 dy=0 dh=0 dv=0
PairPos2: "'kern' Horizontal Kerning lookup 15-2" uni0621 dx=-178 dy=0 dh=-178 dv=0 dx=0 dy=0 dh=0 dv=0
PairPos2: "'kern' Horizontal Kerning lookup 15-2" uniFB94 dx=-226 dy=0 dh=-226 dv=0 dx=0 dy=0 dh=0 dv=0
PairPos2: "'kern' Horizontal Kerning lookup 15-2" uniFB92 dx=-226 dy=0 dh=-226 dv=0 dx=0 dy=0 dh=0 dv=0
PairPos2: "'kern' Horizontal Kerning lookup 15-2" uni06AF dx=-226 dy=0 dh=-226 dv=0 dx=0 dy=0 dh=0 dv=0
PairPos2: "'kern' Horizontal Kerning lookup 15-2" afii57506 dx=-178 dy=0 dh=-178 dv=0 dx=0 dy=0 dh=0 dv=0
PairPos2: "'kern' Horizontal Kerning lookup 15-2" afii57440 dx=-178 dy=0 dh=-178 dv=0 dx=0 dy=0 dh=0 dv=0
PairPos2: "'kern' Horizontal Kerning lookup 15-2" uniFE8B dx=-178 dy=0 dh=-178 dv=0 dx=0 dy=0 dh=0 dv=0
Substitution2: "'fina' Terminal Forms in Arabic lookup 9 subtable" uniFEAE
EndChar

StartChar: uni0633
Encoding: 1587 1587 27
GlifName: uni0633
Width: 2506
VWidth: 2952
GlyphClass: 2
Flags: W
AnchorPoint: "Anchor-10" 1794.53 1377.1 basechar 0
AnchorPoint: "Anchor-7" 595.902 -800.086 basechar 0
LayerCount: 2
Fore
SplineSet
2076.10890357 29.9394555228 m 0,0,1
 1891 30 1891 30 1838.50306208 201.66750502 c 1,2,-1
 1807.37826328 157.18816959 l 2,3,4
 1718.37234029 29.9929922014 1718.37234029 29.9929922014 1552.82782093 29.9189378357 c 0,5,6
 1419 30 1419 30 1340.34975395 119.253790721 c 5,7,-1
 1339.92061785 56.254151641 l 2,8,9
 1339.04576972 -72.1785683154 1339.04576972 -72.1785683154 1276.72192883 -204.215852672 c 0,10,11
 1138.96614702 -496.988390606 1138.96614702 -496.988390606 707.321686212 -496.724856893 c 0,12,13
 282.182891776 -496.918097436 282.182891776 -496.918097436 172.416063893 -211.595299599 c 0,14,15
 131.975424187 -105.318353591 131.975424187 -105.318353591 131.753165821 41.0075027023 c 0,16,17
 131.978876947 228.441068178 131.978876947 228.441068178 219.629131675 451.117359013 c 1,18,-1
 326.953677325 407.969823238 l 1,19,20
 252.009161294 207.223822146 252.009161294 207.223822146 252.268671801 42.8808143135 c 0,21,22
 252.126153107 -161.806618552 252.126153107 -161.806618552 370.384713983 -267.451925044 c 128,-1,23
 488.643274859 -373.097231536 488.643274859 -373.097231536 714.374789699 -373.203454253 c 0,24,25
 961.647213629 -373.097459157 961.647213629 -373.097459157 1090.69264216 -252.475440951 c 128,-1,26
 1219.73807069 -131.853422746 1219.73807069 -131.853422746 1220.55484497 101.861108175 c 0,27,28
 1220.9788821 277.230008688 1220.9788821 277.230008688 1141.69527933 454.40181101 c 1,29,-1
 1254.00057115 493.638942835 l 1,30,-1
 1304.450445 337.784637311 l 2,31,32
 1332.66075951 250.387976684 1332.66075951 250.387976684 1396.6550052 204.710478831 c 128,-1,33
 1460.64925089 159.032980978 1460.64925089 159.032980978 1554.24415587 159.073244471 c 0,34,35
 1658.0780256 159.032737109 1658.0780256 159.032737109 1715.03667053 212.354957691 c 128,-1,36
 1771.99531546 265.677178274 1771.99531546 265.677178274 1771.98925736 364.853212448 c 0,37,38
 1771.99476826 396.732770121 1771.99476826 396.732770121 1771.52325139 418.621943225 c 128,-1,39
 1771.05173452 440.51111633 1771.05173452 440.51111633 1770.02387742 453.943269201 c 2,40,-1
 1766.60377477 498.637557571 l 1,41,-1
 1872.03051313 517.411240873 l 1,42,-1
 1885.58387578 339.33508417 l 2,43,44
 1892.06284809 253.374960102 1892.06284809 253.374960102 1940.66255142 206.077317721 c 128,-1,45
 1989.26225475 158.779675339 1989.26225475 158.779675339 2072.73514145 158.484544331 c 0,46,47
 2107.2445444 158.368596627 2107.2445444 158.368596627 2135.52178297 168.166521118 c 128,-1,48
 2163.79902154 177.964445609 2163.79902154 177.964445609 2184.45827623 196.514022307 c 128,-1,49
 2205.11753092 215.063599005 2205.11753092 215.063599005 2219.21922743 241.806540955 c 128,-1,50
 2233.32092394 268.549482905 2233.32092394 268.549482905 2240.25551147 302.291257757 c 128,-1,51
 2247.19009901 336.033032608 2247.19009901 336.033032608 2247.24173456 376.247665768 c 0,52,53
 2247.0148517 473.658449203 2247.0148517 473.658449203 2210.23773845 611.92225828 c 1,54,-1
 2327.76817808 642.650088207 l 1,55,56
 2337.73389357 607.924537195 2337.73389357 607.924537195 2345.13935788 574.54338135 c 128,-1,57
 2352.54482218 541.162225506 2352.54482218 541.162225506 2357.43395802 508.904449922 c 128,-1,58
 2362.32309386 476.646674339 2362.32309386 476.646674339 2364.75937371 445.492248779 c 128,-1,59
 2367.19565357 414.337823219 2367.19565357 414.337823219 2367.2507191 383.742130941 c 0,60,61
 2367.01613504 186.579021667 2367.01613504 186.579021667 2255.80035444 88.7413323127 c 0,62,63
 2187.73887233 30.2667111855 2187.73887233 30.2667111855 2076.10890357 29.9394555228 c 0,0,1
EndSplineSet
Substitution2: "'fina' Terminal Forms in Arabic lookup 9 subtable" uniFEB2
Substitution2: "'medi' Medial Forms in Arabic lookup 11 subtable" uniFEB4
Substitution2: "'init' Initial Forms in Arabic lookup 13 subtable" uniFEB3
EndChar

StartChar: uni0635
Encoding: 1589 1589 29
GlifName: uni0635
Width: 2675
VWidth: 2952
GlyphClass: 2
Flags: W
AnchorPoint: "Anchor-7" 595.902 -800.086 basechar 0
AnchorPoint: "Anchor-10" 2104.53 1377.1 basechar 0
LayerCount: 2
Fore
SplineSet
1312.43271642 311.839696745 m 2,0,1
 1349.44900127 196.014547365 1349.44900127 196.014547365 1430.93896079 188.242927076 c 2,2,-1
 1449.90645229 186.434015369 l 1,3,-1
 1459.60750397 202.833024241 l 2,4,5
 1824.95278436 820.425909263 1824.95278436 820.425909263 2181.34801551 820.425909263 c 0,6,7
 2374.69827775 820.425909263 2374.69827775 820.425909263 2475.59816987 674.983866555 c 0,8,9
 2495.34082675 646.467636602 2495.34082675 646.467636602 2508.41366795 615.729496691 c 128,-1,10
 2521.48650915 584.99135678 2521.48650915 584.99135678 2528.02569002 551.562273752 c 128,-1,11
 2534.56487089 518.133190723 2534.56487089 518.133190723 2534.56487089 481.813788673 c 0,12,13
 2534.56487089 446.403893053 2534.56487089 446.403893053 2529.76293923 413.763326412 c 128,-1,14
 2524.96100757 381.122759772 2524.96100757 381.122759772 2515.41639154 351.13889788 c 0,15,16
 2413.07399561 30 2413.07399561 30 1773.15136719 30 c 2,17,-1
 1722.34082031 30 l 2,18,19
 1663.80913407 30 1663.80913407 30 1612.63200799 33.5081180944 c 128,-1,20
 1561.4548819 37.0162361888 1561.4548819 37.0162361888 1519.19598728 43.8126881134 c 128,-1,21
 1476.93709267 50.609140038 1476.93709267 50.609140038 1442.94298127 60.3983650653 c 128,-1,22
 1408.94886987 70.1875900926 1408.94886987 70.1875900926 1383.24302535 82.9290701883 c 2,23,-1
 1340.24748717 104.240441366 l 1,24,-1
 1339.92061785 56.254151641 l 2,25,26
 1339.04576972 -72.1785683154 1339.04576972 -72.1785683154 1276.72192883 -204.215852672 c 0,27,28
 1207.93504554 -350.408703042 1207.93504554 -350.408703042 1067.04802735 -423.566779116 c 128,-1,29
 926.161009156 -496.72485519 926.161009156 -496.72485519 707.344474898 -496.72485519 c 0,30,31
 414.51639786 -496.635516934 414.51639786 -496.635516934 273.134792716 -364.073539986 c 128,-1,32
 131.753187573 -231.511563038 131.753187573 -231.511563038 131.753187573 41.0436292565 c 0,33,34
 131.753187573 228.277402878 131.753187573 228.277402878 219.612756186 451.123942428 c 1,35,-1
 326.994407144 407.953448686 l 1,36,37
 308.316811551 357.707841402 308.316811551 357.707841402 294.346800742 310.035075295 c 128,-1,38
 280.376789933 262.362309189 280.376789933 262.362309189 271.003349194 216.775338323 c 128,-1,39
 261.629908455 171.188367457 261.629908455 171.188367457 256.949286492 127.73710372 c 128,-1,40
 252.268664529 84.2858399823 252.268664529 84.2858399823 252.268664529 42.8599260756 c 0,41,42
 252.268664529 -161.910182018 252.268664529 -161.910182018 370.527636005 -267.556819514 c 128,-1,43
 488.786607481 -373.203457009 488.786607481 -373.203457009 714.361929985 -373.203457009 c 0,44,45
 962.398282455 -373.203457009 962.398282455 -373.203457009 1091.47660756 -252.552198993 c 128,-1,46
 1220.55493267 -131.900940977 1220.55493267 -131.900940977 1220.55493267 101.93364713 c 0,47,48
 1220.55493267 277.611050568 1220.55493267 277.611050568 1141.63363485 454.380273713 c 1,49,-1
 1253.94875919 493.620840815 l 1,50,-1
 1312.43271642 311.839696745 l 2,0,1
1624.65625 159.416992188 m 1,51,-1
 1778.73254464 159.416999114 l 2,52,53
 2098.98823629 159.19938479 2098.98823629 159.19938479 2251.46252649 245.931909232 c 0,54,55
 2329.5118891 290.329021957 2329.5118891 290.329021957 2370.9687343 346.850783016 c 128,-1,56
 2412.42557951 403.372544075 2412.42557951 403.372544075 2412.66922138 471.166464709 c 0,57,58
 2412.28490825 546.209890351 2412.28490825 546.209890351 2371.79587129 599.211658095 c 0,59,60
 2338.08236891 643.343980236 2338.08236891 643.343980236 2289.88119343 665.889061362 c 128,-1,61
 2241.68001795 688.434142489 2241.68001795 688.434142489 2182.09612599 688.573234093 c 0,62,63
 1905.02958151 688.369700346 1905.02958151 688.369700346 1599.30884309 205.464077994 c 2,64,-1
 1570.15708253 159.416992188 l 1,65,-1
 1624.65625 159.416992188 l 1,51,-1
EndSplineSet
Substitution2: "'fina' Terminal Forms in Arabic lookup 9 subtable" uniFEBA
Substitution2: "'medi' Medial Forms in Arabic lookup 11 subtable" uniFEBC
Substitution2: "'init' Initial Forms in Arabic lookup 13 subtable" uniFEBB
EndChar

StartChar: uni0637
Encoding: 1591 1591 31
GlifName: uni0637
Width: 1554
VWidth: 2952
GlyphClass: 2
Flags: W
AnchorPoint: "Anchor-10" 475.36 1632.58 basechar 0
AnchorPoint: "Anchor-7" 641.602 -236.453 basechar 0
LayerCount: 2
Fore
SplineSet
1067.84715056 820.423956737 m 0,0,1
 1167.71285229 820.423956737 1167.71285229 820.423956737 1241.01035144 784.104171012 c 128,-1,2
 1314.3078506 747.784385288 1314.3078506 747.784385288 1364.75616673 674.098077662 c 0,3,4
 1392.276418 633.830115959 1392.276418 633.830115959 1405.97525714 587.543211103 c 128,-1,5
 1419.67409628 541.256306247 1419.67409628 541.256306247 1419.67409628 487.791975776 c 0,6,7
 1419.67409628 259.820715896 1419.67409628 259.820715896 1233.3075188 144.910357948 c 128,-1,8
 1046.94094132 30 1046.94094132 30 658.228515625 30 c 2,9,-1
 131.302734375 30 l 1,10,-1
 131.302734375 159.242795644 l 1,11,-1
 321.843130615 159.376957918 l 1,12,-1
 323.570669678 159.377934481 l 1,13,-1
 340.849775742 159.387702212 l 1,14,-1
 349.51185498 174.338822072 l 1,15,-1
 350.396722641 175.866187711 l 2,16,17
 380.700452166 228.321797227 380.700452166 228.321797227 414.975367846 285.790255264 c 2,18,-1
 419.6328125 293.599273342 l 1,19,-1
 419.6328125 302.692382812 l 1,20,-1
 419.6328125 1438.87402344 l 1,21,-1
 538.946289062 1438.87402344 l 1,22,-1
 538.946289062 558.209960938 l 1,23,-1
 538.946289062 472.710946173 l 1,24,-1
 592.369009673 539.464930685 l 2,25,26
 705.976567408 681.422454801 705.976567408 681.422454801 824.64298899 750.923205769 c 128,-1,27
 943.309410573 820.423956737 943.309410573 820.423956737 1067.84715056 820.423956737 c 0,0,1
663.857667898 159.534179688 m 2,28,29
 984.34737598 160.061066971 984.34737598 160.061066971 1136.03816886 247.666908106 c 0,30,31
 1297.84551118 341.819102732 1297.84551118 341.819102732 1297.73826283 469.340777089 c 0,32,33
 1297.84676496 567.248124515 1297.84676496 567.248124515 1229.1182857 629.583839879 c 0,34,35
 1164.26203122 688.573349111 1164.26203122 688.573349111 1067.3968791 688.573349111 c 0,36,37
 788.86772635 688.573349111 788.86772635 688.573349111 484.377245835 205.531866233 c 2,38,-1
 455.382101163 159.534179688 l 1,39,-1
 509.755859375 159.534179688 l 1,40,-1
 663.857667898 159.534179688 l 2,28,29
EndSplineSet
Substitution2: "'fina' Terminal Forms in Arabic lookup 9 subtable" uniFEC2
Substitution2: "'medi' Medial Forms in Arabic lookup 11 subtable" uniFEC4
Substitution2: "'init' Initial Forms in Arabic lookup 13 subtable" uniFEC3
EndChar

StartChar: uni0639
Encoding: 1593 1593 33
GlifName: uni0639
Width: 1350
VWidth: 2952
GlyphClass: 2
Flags: W
AnchorPoint: "Anchor-10" 743.478 1366.07 basechar 0
AnchorPoint: "Anchor-7" 536.833 -922.619 basechar 0
LayerCount: 2
Fore
SplineSet
629.973753731 433.633415885 m 2,0,1
 722.373017771 449.101585312 722.373017771 449.101585312 810.184841162 456.82442758 c 128,-1,2
 897.996664552 464.547269848 897.996664552 464.547269848 981.204449531 464.547269848 c 0,3,4
 1018.99124581 464.547269848 1018.99124581 464.547269848 1056.84682701 462.882434412 c 128,-1,5
 1094.70240821 461.217598976 1094.70240821 461.217598976 1130.07835513 458.052993595 c 1,6,-1
 1115.09186925 340.615095356 l 1,7,8
 1068.48199784 342.038634558 1068.48199784 342.038634558 1025.01945337 342.172850765 c 0,9,10
 642.96381819 342.084801976 642.96381819 342.084801976 444.037912236 218.225556507 c 128,-1,11
 245.112006282 94.3663110386 245.112006282 94.3663110386 245.240240592 -154.835177927 c 0,12,13
 245.110853008 -355.807232016 245.110853008 -355.807232016 388.767263093 -456.968305777 c 128,-1,14
 532.423673178 -558.129379539 532.423673178 -558.129379539 805.338335794 -558.266582692 c 0,15,16
 916.945201622 -558.141403258 916.945201622 -558.141403258 1021.16684091 -537.419602066 c 128,-1,17
 1125.3884802 -516.697800874 1125.3884802 -516.697800874 1221.34740017 -475.613549761 c 1,18,-1
 1245.31751387 -594.485839034 l 1,19,20
 1053.06626622 -681.733133063 1053.06626622 -681.733133063 793.052635732 -681.733133063 c 0,21,22
 455.061677852 -681.733133063 455.061677852 -681.733133063 292.524442805 -552.857900294 c 128,-1,23
 129.987207758 -423.982667525 129.987207758 -423.982667525 129.975585882 -162.313343972 c 0,24,25
 129.987325047 31.1326033661 129.987325047 31.1326033661 213.127085219 163.921041253 c 128,-1,26
 296.26684539 296.709479141 296.26684539 296.709479141 465.284977557 373.95061069 c 2,27,-1
 501.846731338 390.659298671 l 1,28,-1
 475.424726915 420.954839197 l 2,29,30
 355.843530323 558.066957173 355.843530323 558.066957173 355.843530323 695.070193405 c 0,31,32
 355.843530323 726.628690865 355.843530323 726.628690865 362.166664565 758.487369521 c 128,-1,33
 368.489798808 790.346048177 368.489798808 790.346048177 381.222307952 822.550529913 c 0,34,35
 387.304872791 837.69474764 387.304872791 837.69474764 394.959417462 852.34175501 c 128,-1,36
 402.613962133 866.988762381 402.613962133 866.988762381 411.878161504 881.195500631 c 128,-1,37
 421.142360875 895.402238881 421.142360875 895.402238881 432.053830578 909.155407162 c 128,-1,38
 442.965300281 922.908575443 442.965300281 922.908575443 455.474044114 936.132306126 c 0,39,40
 553.901561145 1040 553.901561145 1040 724 1040 c 0,41,42
 805.355327184 1040 805.355327184 1040 886.4784151 1014.1525265 c 128,-1,43
 967.601503015 988.305052997 967.601503015 988.305052997 1048.15054144 936.576015109 c 1,44,-1
 1004.07279591 834.888819148 l 1,45,46
 863.648968409 910.802532588 863.648968409 910.802532588 733.94299422 910.802532588 c 0,47,48
 662.290468329 910.802532588 662.290468329 910.802532588 607.672483033 882.29223825 c 128,-1,49
 553.054497737 853.781943911 553.054497737 853.781943911 520.126869467 797.994354284 c 0,50,51
 486.207074221 741.903594301 486.207074221 741.903594301 486.207074221 682.166090045 c 0,52,53
 486.207074221 655.692034827 486.207074221 655.692034827 492.887260235 629.097030273 c 128,-1,54
 499.56744625 602.502025718 499.56744625 602.502025718 512.671288172 575.903792435 c 0,55,56
 518.876570354 563.402561223 518.876570354 563.402561223 527.506783815 549.027152724 c 128,-1,57
 536.136997276 534.651744225 536.136997276 534.651744225 547.276318018 518.261641215 c 128,-1,58
 558.415638759 501.871538205 558.415638759 501.871538205 571.78930243 483.712317023 c 128,-1,59
 585.1629661 465.553095842 585.1629661 465.553095842 601.361145578 444.776230963 c 2,60,-1
 612.348686803 430.682878083 l 1,61,-1
 629.973753731 433.633415885 l 2,0,1
EndSplineSet
Substitution2: "'fina' Terminal Forms in Arabic lookup 9 subtable" uniFECA
Substitution2: "'medi' Medial Forms in Arabic lookup 11 subtable" uniFECC
Substitution2: "'init' Initial Forms in Arabic lookup 13 subtable" uniFECB
EndChar

StartChar: afii57440
Encoding: 1600 1600 35
GlifName: afii57440
Width: 286
VWidth: 2952
GlyphClass: 2
Flags: W
AnchorPoint: "Anchor-10" 143.774 1376.11 basechar 0
AnchorPoint: "Anchor-7" 147.7 -234.739 basechar 0
LayerCount: 2
Fore
SplineSet
-6.9384765625 30 m 2,0,1
 -25.217555692 30 -25.217555692 30 -35.0841874028 34.6597706424 c 128,-1,2
 -44.9508191136 39.3195412849 -44.9508191136 39.3195412849 -49.864569713 51.9473147259 c 128,-1,3
 -54.7783203125 64.575088167 -54.7783203125 64.575088167 -54.7783203125 88.3134765625 c 2,4,-1
 -54.7784843225 107.291582461 l 2,5,6
 -54.8800774324 138.015246077 -54.8800774324 138.015246077 -44.8724855166 148.507134758 c 128,-1,7
 -34.8648936008 158.999023438 -34.8648936008 158.999023438 -6.9384765625 158.999023438 c 2,8,-1
 281.108756449 158.999023438 l 1,9,10
 282.77894708 151.133693437 282.77894708 151.133693437 283.775215728 137.795451062 c 128,-1,11
 284.771484375 124.457208687 284.771484375 124.457208687 284.771484375 107.174804688 c 2,12,-1
 284.771506075 88.3612787665 l 2,13,14
 284.737775938 60.3178605018 284.737775938 60.3178605018 282.263988357 41.9922677134 c 0,15,16
 281.957617833 39.7235110623 281.957617833 39.7235110623 281.592654299 37.448542416 c 128,-1,17
 281.227690764 35.1735737698 281.227690764 35.1735737698 280.898733996 33.3847455692 c 128,-1,18
 280.569777228 31.5959173686 280.569777228 31.5959173686 280.238412726 30 c 2,19,-1
 -6.9384765625 30 l 2,0,1
EndSplineSet
EndChar

StartChar: uni0643
Encoding: 1603 1603 38
GlifName: uni0643
Width: 2031
VWidth: 2952
GlyphClass: 2
Flags: W
AnchorPoint: "Anchor-7" 750.268 -236.468 basechar 0
AnchorPoint: "Anchor-10" 993.11 1606.05 basechar 0
LayerCount: 2
Fore
SplineSet
950.348772843 159.215871431 m 0,0,1
 1077.18486254 158.997919672 1077.18486254 158.997919672 1212.23194238 169.91486965 c 0,2,3
 1461.3459113 191.662507056 1461.3459113 191.662507056 1590.59311524 292.532510642 c 128,-1,4
 1719.84031919 393.402514227 1719.84031919 393.402514227 1716.82910156 572.26285725 c 2,5,-1
 1716.82910156 1434.56640625 l 1,6,-1
 1839.70996094 1434.56640625 l 1,7,-1
 1839.7099786 574.306319857 l 2,8,9
 1839.98470395 321.082613245 1839.98470395 321.082613245 1683.27909899 191.1348994 c 0,10,11
 1490.12934155 30 1490.12934155 30 952.133789062 30 c 0,12,13
 470.814844872 30 470.814844872 30 293.365169957 160.026771336 c 0,14,15
 139.93839699 271.342951416 139.93839699 271.342951416 139.161113352 464.56444316 c 0,16,17
 139.024914158 584.143208726 139.024914158 584.143208726 181.677375219 693.41832704 c 1,18,-1
 289.690652134 647.651536582 l 1,19,20
 262.043008492 562.900282998 262.043008492 562.900282998 262.454017209 476.622112553 c 0,21,22
 264.206760352 336.254386136 264.206760352 336.254386136 398.747932222 252.059676722 c 0,23,24
 475.033313225 204.501114811 475.033313225 204.501114811 611.550987326 182.059077632 c 128,-1,25
 748.068661428 159.617040452 748.068661428 159.617040452 950.348772843 159.215871431 c 0,0,1
806.16015625 738.855985287 m 1,26,27
 881.140106759 731.879083704 881.140106759 731.879083704 938.343934032 731.267003485 c 0,28,29
 1050.86650994 730.985214495 1050.86650994 730.985214495 1109.96067354 755.17745394 c 0,30,31
 1143.17938259 768.898304173 1143.17938259 768.898304173 1162.69871883 793.636056734 c 128,-1,32
 1182.21805507 818.373809296 1182.21805507 818.373809296 1182.7456689 851.314844231 c 0,33,34
 1183.07812046 908.303972929 1183.07812046 908.303972929 1141.57057516 943.474388789 c 0,35,36
 1104.26562199 975.585632998 1104.26562199 975.585632998 1035.40892487 985.138728288 c 0,37,38
 936.926634866 1000.11157979 936.926634866 1000.11157979 893.06736505 1044.5918887 c 128,-1,39
 849.208095234 1089.0721976 849.208095234 1089.0721976 850.921629144 1167.75597188 c 0,40,41
 855.118063229 1338.70467871 855.118063229 1338.70467871 1183.61035156 1370.88202835 c 1,42,-1
 1183.61035156 1302.08747533 l 1,43,44
 1123.73467252 1295.36480036 1123.73467252 1295.36480036 1079.07049668 1285.19312589 c 128,-1,45
 1034.40632084 1275.02145141 1034.40632084 1275.02145141 998.064217167 1258.71768753 c 128,-1,46
 961.722113492 1242.41392365 961.722113492 1242.41392365 942.905735278 1217.72371109 c 128,-1,47
 924.089357064 1193.03349853 924.089357064 1193.03349853 924.139605045 1160.45031811 c 0,48,49
 924.072236385 1124.53669801 924.072236385 1124.53669801 946.285163861 1098.15096564 c 128,-1,50
 968.498091336 1071.76523326 968.498091336 1071.76523326 1003.8062845 1057.20036256 c 128,-1,51
 1039.11447766 1042.63549185 1039.11447766 1042.63549185 1088.34655863 1035.10687704 c 0,52,53
 1176.00964219 1021.59681817 1176.00964219 1021.59681817 1215.82746258 978.422777655 c 128,-1,54
 1255.64528296 935.24873714 1255.64528296 935.24873714 1255.36439805 856.218684534 c 0,55,56
 1255.20704063 804.756479924 1255.20704063 804.756479924 1230.1525896 765.602885878 c 128,-1,57
 1205.09813857 726.449291833 1205.09813857 726.449291833 1151.76457121 696.427614348 c 0,58,59
 1083.51315028 658.563747909 1083.51315028 658.563747909 956.1236043 659.088615552 c 0,60,61
 889.122368276 659.364672591 889.122368276 659.364672591 806.16015625 670.422247261 c 1,62,-1
 806.16015625 738.855985287 l 1,26,27
EndSplineSet
Substitution2: "'fina' Terminal Forms in Arabic lookup 9 subtable" uniFEDA
Substitution2: "'medi' Medial Forms in Arabic lookup 11 subtable" uniFEDC
Substitution2: "'init' Initial Forms in Arabic lookup 13 subtable" uniFEDB
EndChar

StartChar: uni0644
Encoding: 1604 1604 39
GlifName: uni0644
Width: 1441
VWidth: 2952
GlyphClass: 2
Flags: W
AnchorPoint: "Anchor-7" 595.902 -800.086 basechar 0
AnchorPoint: "Anchor-10" 593.908 1221.66 basechar 0
LayerCount: 2
Fore
SplineSet
1136.60440427 99.7310786654 m 2,0,-1
 1139.84444763 1437.99316406 l 1,1,-1
 1257.86776268 1437.99316406 l 1,2,-1
 1257.18557311 299.360958036 l 2,3,4
 1257.00138747 160.069116017 1257.00138747 160.069116017 1247.93823012 30.6683378003 c 0,5,6
 1237.8429188 -103.301087952 1237.8429188 -103.301087952 1198.20150578 -202.225992563 c 128,-1,7
 1158.56009276 -301.150897175 1158.56009276 -301.150897175 1088.11503786 -366.72479732 c 128,-1,8
 1017.66998296 -432.298697464 1017.66998296 -432.298697464 916.446678599 -464.516300988 c 128,-1,9
 815.223374234 -496.733904511 815.223374234 -496.733904511 681.436476496 -496.733904511 c 0,10,11
 402.48305379 -496.666997478 402.48305379 -496.666997478 267.611610407 -364.408706735 c 128,-1,12
 132.740167025 -232.150415993 132.740167025 -232.150415993 132.740167025 40.731124819 c 0,13,14
 132.740167025 73.3142190168 132.740167025 73.3142190168 134.971953066 105.790680479 c 128,-1,15
 137.203739108 138.267141941 137.203739108 138.267141941 141.66978287 170.653707051 c 128,-1,16
 146.135826631 203.040272161 146.135826631 203.040272161 152.836528589 235.330765886 c 0,17,18
 170.787974192 321.658398385 170.787974192 321.658398385 203.187553279 407.361370427 c 1,19,-1
 310.476787761 364.227778114 l 1,20,21
 252.246442278 201.716537924 252.246442278 201.716537924 252.246442278 38.1865905678 c 0,22,23
 252.246442278 -42.4051760627 252.246442278 -42.4051760627 270.067474169 -108.039201186 c 128,-1,24
 287.888506061 -173.673226308 287.888506061 -173.673226308 323.007429116 -223.081236559 c 128,-1,25
 358.126352171 -272.489246809 358.126352171 -272.489246809 409.859855628 -305.978762445 c 128,-1,26
 461.593359086 -339.468278081 461.593359086 -339.468278081 529.854585389 -356.347525802 c 128,-1,27
 598.115811691 -373.226773524 598.115811691 -373.226773524 681.785166907 -373.226773524 c 0,28,29
 904.674812037 -373.226773524 904.674812037 -373.226773524 1020.35917445 -252.577715718 c 128,-1,30
 1136.04353685 -131.928657912 1136.04353685 -131.928657912 1136.60440427 99.7310786654 c 2,0,-1
EndSplineSet
Substitution2: "'fina' Terminal Forms in Arabic lookup 9 subtable" uniFEDE
Substitution2: "'medi' Medial Forms in Arabic lookup 11 subtable" uniFEE0
Substitution2: "'init' Initial Forms in Arabic lookup 13 subtable" uniFEDF
EndChar

StartChar: uni0645
Encoding: 1605 1605 40
GlifName: uni0645
Width: 1242
VWidth: 2622
GlyphClass: 2
Flags: W
AnchorPoint: "Anchor-7" 724.983 -346.909 basechar 0
AnchorPoint: "Anchor-10" 697.239 1374.48 basechar 0
LayerCount: 2
Fore
SplineSet
851.882814288 132 m 0,0,1
 927.424172618 131.409833138 927.424172618 131.409833138 968.14206344 176.481098645 c 128,-1,2
 1008.85995426 221.552364151 1008.85995426 221.552364151 1007.35081761 301.33304602 c 0,3,4
 1006.60413974 333.402054705 1006.60413974 333.402054705 1000.02054948 363.786697345 c 128,-1,5
 993.436959219 394.171339986 993.436959219 394.171339986 980.983979134 422.858575975 c 0,6,7
 954.097041916 484.085931814 954.097041916 484.085931814 905.706926028 516.757735821 c 128,-1,8
 857.316810139 549.429539828 857.316810139 549.429539828 792.152142578 550.002943877 c 0,9,10
 712.0290241 551.180081143 712.0290241 551.180081143 652.292237536 492.266608748 c 128,-1,11
 592.555450971 433.353136352 592.555450971 433.353136352 553.10655433 322.673652756 c 2,12,-1
 546.246548201 303.426931034 l 1,13,-1
 561.643779362 289.994833144 l 2,14,15
 742.753460676 132 742.753460676 132 851.882814288 132 c 0,0,1
1117.39253557 291.002509436 m 0,16,17
 1117.12276294 80.0262148569 1117.12276294 80.0262148569 980.809860947 27.0180319325 c 0,18,19
 932.73320264 8.74078619081 932.73320264 8.74078619081 867.610715156 6.94604190156 c 0,20,21
 762.139140919 4.2203548058 762.139140919 4.2203548058 622.534948662 90.1986832561 c 0,22,23
 598.104966304 105.195883784 598.104966304 105.195883784 571.916873986 119.829375673 c 128,-1,24
 545.728781669 134.462867562 545.728781669 134.462867562 517.871005861 148.689308098 c 0,25,26
 504.455169157 155.564801047 504.455169157 155.564801047 489.63886333 159.993233002 c 128,-1,27
 474.822557503 164.421664957 474.822557503 164.421664957 459.396031744 166.320084781 c 128,-1,28
 443.969505985 168.218504605 443.969505985 168.218504605 427.753964364 167.741915598 c 0,29,30
 393.783087357 167.34458371 393.783087357 167.34458371 366.744893471 150.320093336 c 128,-1,31
 339.706699584 133.295602962 339.706699584 133.295602962 320.219599929 100.058576153 c 128,-1,32
 300.732500274 66.8215493434 300.732500274 66.8215493434 286.954058657 21.3491660458 c 128,-1,33
 273.175617041 -24.1232172517 273.175617041 -24.1232172517 265.022631035 -85.3504395756 c 128,-1,34
 256.869645029 -146.5776619 256.869645029 -146.5776619 253.248066216 -215.386165075 c 128,-1,35
 249.626487402 -284.19466825 249.626487402 -284.19466825 249.751499815 -368.038039403 c 0,36,37
 249.976376819 -545.388473208 249.976376819 -545.388473208 261.290942156 -694.813476562 c 1,38,-1
 138.427367982 -694.813476562 l 1,39,40
 128.084905131 -521.409072313 128.084905131 -521.409072313 129.060592549 -364.236331264 c 0,41,42
 131.943599369 1.72253249313 131.943599369 1.72253249313 204.729885502 145.379676177 c 0,43,44
 277.751528322 288.684650212 277.751528322 288.684650212 397.224670191 307.056536281 c 2,45,-1
 414.210986869 309.668593433 l 1,46,-1
 420.549841018 325.64284537 l 2,47,48
 560.415946602 678.112922065 560.415946602 678.112922065 789.028751501 679.382051447 c 0,49,50
 937.690032118 679.945543388 937.690032118 679.945543388 1026.14000283 570.176861785 c 0,51,52
 1117.023465 457.388154883 1117.023465 457.388154883 1117.39253557 291.002509436 c 0,16,17
EndSplineSet
Substitution2: "'init' Initial Forms in Arabic lookup 13 subtable" uniFEE3
Substitution2: "'medi' Medial Forms in Arabic lookup 11 subtable" uniFEE4
Substitution2: "'fina' Terminal Forms in Arabic lookup 9 subtable" uniFEE2
EndChar

StartChar: uni0647
Encoding: 1607 1607 42
GlifName: uni0647
Width: 942
VWidth: 2952
GlyphClass: 2
Flags: W
AnchorPoint: "Anchor-10" 430.775 1379.01 basechar 0
AnchorPoint: "Anchor-7" 450.63 -240.576 basechar 0
LayerCount: 2
Fore
SplineSet
442.101456976 666.735020389 m 2,0,1
 241.884553421 491.379277 241.884553421 491.379277 241.884553421 350.989329604 c 0,2,3
 241.884553421 257.002352572 241.884553421 257.002352572 303.464508286 207.999399416 c 128,-1,4
 365.04446315 158.996446261 365.04446315 158.996446261 475.346865386 158.992187523 c 0,5,6
 586.453415764 158.996492018 586.453415764 158.996492018 648.438667088 208.277677898 c 128,-1,7
 710.423918412 257.558863779 710.423918412 257.558863779 710.423918412 352.147601374 c 0,8,9
 710.423918412 387.846456647 710.423918412 387.846456647 695.315358838 425.465652733 c 128,-1,10
 680.206799263 463.084848819 680.206799263 463.084848819 650.19930504 502.539898939 c 128,-1,11
 620.191810817 541.99494906 620.191810817 541.99494906 578.473983523 582.428648771 c 128,-1,12
 536.75615623 622.862348482 536.75615623 622.862348482 480.560169231 667.631272147 c 2,13,-1
 460.956416404 683.248738104 l 1,14,-1
 442.101456976 666.735020389 l 2,0,1
378.743512494 929.003804897 m 1,15,16
 820.983309426 600.763367293 820.983309426 600.763367293 820.791846203 346.343969875 c 0,17,18
 820.98330755 174.008322552 820.98330755 174.008322552 670.381143825 79.9531665047 c 0,19,20
 598.317001925 34.9471457131 598.317001925 34.9471457131 475.934413916 34.1941877804 c 0,21,22
 362.062980538 34.0113776281 362.062980538 34.0113776281 282.863429495 73.6342070241 c 0,23,24
 131.031817187 149.527567594 131.031817187 149.527567594 131.368388861 345.789804739 c 0,25,26
 131.198041757 441.156080613 131.198041757 441.156080613 187.490482995 545.116667412 c 128,-1,27
 243.782924233 649.077254211 243.782924233 649.077254211 358.828811748 761.023547258 c 2,28,-1
 382.56099398 784.116331227 l 1,29,-1
 357.24462326 805.460522907 l 1,30,-1
 313.813739947 842.077031194 l 1,31,-1
 378.743512494 929.003804897 l 1,15,16
EndSplineSet
Substitution2: "'fina' Terminal Forms in Arabic lookup 9 subtable" uniFEEA
Substitution2: "'medi' Medial Forms in Arabic lookup 11 subtable" uniFEEC
Substitution2: "'init' Initial Forms in Arabic lookup 13 subtable" uniFEEB
EndChar

StartChar: uni0648
Encoding: 1608 1608 43
GlifName: uni0648
Width: 910
VWidth: 2144
GlyphClass: 2
Flags: W
AnchorPoint: "Anchor-7" 364.969 -769.998 basechar 0
AnchorPoint: "Anchor-10" 459.256 1370.2 basechar 0
LayerCount: 2
Fore
SplineSet
660.565412853 207.568255509 m 2,0,1
 637.095995388 564.979647419 637.095995388 564.979647419 437.37030618 565.12400306 c 0,2,3
 405.761653839 565.087160771 405.761653839 565.087160771 378.301087188 555.540863268 c 128,-1,4
 350.840520536 545.994565764 350.840520536 545.994565764 328.878876959 527.859364708 c 128,-1,5
 306.917233381 509.724163652 306.917233381 509.724163652 290.075681016 483.743155411 c 128,-1,6
 273.234128651 457.76214717 273.234128651 457.76214717 262.021781206 424.580647773 c 0,7,8
 241.983617167 365.935911289 241.983617167 365.935911289 242.159120939 312.53108273 c 0,9,10
 242.061856818 230.919921803 242.061856818 230.919921803 302.635209423 190.275270453 c 128,-1,11
 363.208562027 149.630619104 363.208562027 149.630619104 469.184106914 150.364162971 c 0,12,13
 512.886405483 150.699231571 512.886405483 150.699231571 555.531270668 157.356540047 c 128,-1,14
 598.176135852 164.013848524 598.176135852 164.013848524 639.588316402 176.971324145 c 2,15,-1
 662.111793978 184.018705078 l 1,16,-1
 660.565412853 207.568255509 l 2,0,1
468.122381087 27.8115575141 m 0,17,18
 294.439764127 27.9011983572 294.439764127 27.9011983572 213.72120548 94.3585328711 c 128,-1,19
 133.002646834 160.815867385 133.002646834 160.815867385 133.004882787 298.354729787 c 0,20,21
 133.002574365 355.392168819 133.002574365 355.392168819 145.165773494 409.345317212 c 128,-1,22
 157.328972623 463.298465605 157.328972623 463.298465605 181.706818245 514.478992366 c 0,23,24
 225.697795603 606.126748016 225.697795603 606.126748016 291.526635848 650.084264873 c 128,-1,25
 357.355476094 694.04178173 357.355476094 694.04178173 449.094172924 694.077150565 c 0,26,27
 495.453506018 694.059694998 495.453506018 694.059694998 534.432384568 681.628648687 c 128,-1,28
 573.411263118 669.197602376 573.411263118 669.197602376 606.358532821 643.507972135 c 128,-1,29
 639.305802524 617.818341894 639.305802524 617.818341894 665.833844274 578.151765296 c 128,-1,30
 692.361886025 538.485188699 692.361886025 538.485188699 712.946061557 484.283051112 c 0,31,32
 777.965872412 313.569926555 777.965872412 313.569926555 776.833662531 130.362261134 c 0,33,34
 775.027680515 -142.991176887 775.027680515 -142.991176887 616.897765545 -300.959444568 c 128,-1,35
 458.767850576 -458.927712249 458.767850576 -458.927712249 135.877150651 -506.736332272 c 1,36,-1
 107.840425544 -394.589431847 l 1,37,38
 581.075039152 -317.6600582 581.075039152 -317.6600582 659.456240019 6.04436954945 c 2,39,-1
 669.695702044 48.3320502526 l 1,40,-1
 626.530593898 42.866891466 l 2,41,42
 509.042638997 27.9916749629 509.042638997 27.9916749629 468.122381087 27.8115575141 c 0,17,18
EndSplineSet
Substitution2: "'fina' Terminal Forms in Arabic lookup 9 subtable" uniFEEE
EndChar

StartChar: uni0649
Encoding: 1609 1609 44
GlifName: uni0649
Width: 1544
VWidth: 2952
GlyphClass: 2
Flags: MW
AnchorPoint: "Anchor-10" 717.6 1368.22 basechar 0
AnchorPoint: "Anchor-7" 595.902 -800.086 basechar 0
LayerCount: 2
Fore
SplineSet
1199.61032652 -219.868434806 m 0,0,1
 1215.68445635 -208.230388074 1215.68445635 -208.230388074 1229.71196541 -195.98025062 c 128,-1,2
 1243.73947448 -183.730113166 1243.73947448 -183.730113166 1255.8771606 -170.651121834 c 128,-1,3
 1268.01484671 -157.572130502 1268.01484671 -157.572130502 1277.89739636 -143.961216965 c 0,4,5
 1312.05100704 -97.8274399842 1312.05100704 -97.8274399842 1311.80787955 -50.6162780698 c 0,6,7
 1312.09908241 35.1215330185 1312.09908241 35.1215330185 1163.9492319 37.0122057467 c 2,8,-1
 1110.72738514 37.6913916727 l 2,9,10
 1019.31996569 38.7383680361 1019.31996569 38.7383680361 979.233376555 74.3500911704 c 128,-1,11
 939.14678742 109.961814305 939.14678742 109.961814305 939.258865326 186.303362925 c 0,12,13
 939.140437722 220.499892422 939.140437722 220.499892422 946.86520995 255.557394311 c 128,-1,14
 954.589982178 290.6148962 954.589982178 290.6148962 970.42495555 327.033191954 c 0,15,16
 1049.25721948 508.256872407 1049.25721948 508.256872407 1206.82731412 589.804335191 c 0,17,18
 1236.30480881 605.113972241 1236.30480881 605.113972241 1268.55855213 616.260427852 c 128,-1,19
 1300.81229545 627.406883463 1300.81229545 627.406883463 1335.78122496 634.365280198 c 128,-1,20
 1370.75015448 641.323676933 1370.75015448 641.323676933 1408.32666672 644.066684362 c 1,21,-1
 1408.11670331 509.910255817 l 1,22,23
 1265.6569337 492.504772933 1265.6569337 492.504772933 1176.65165414 414.312491622 c 128,-1,24
 1087.64637459 336.12021031 1087.64637459 336.12021031 1056.45173285 200.842572364 c 2,25,-1
 1047.94282957 163.943147551 l 1,26,-1
 1085.81028007 164.101825884 l 1,27,-1
 1089.07117443 164.115490266 l 1,28,-1
 1161.21979903 164.413508628 l 2,29,30
 1302.27082338 165.162275148 1302.27082338 165.162275148 1365.67603525 115.781800038 c 128,-1,31
 1429.08124712 66.4013249279 1429.08124712 66.4013249279 1428.3498459 -36.8379053407 c 0,32,33
 1428.03265277 -116.717411696 1428.03265277 -116.717411696 1382.47313202 -193.530854899 c 0,34,35
 1307.91654636 -318.768426451 1307.91654636 -318.768426451 1127.18304122 -403.875738395 c 0,36,37
 951.256955762 -487.005646908 951.256955762 -487.005646908 707.99669122 -487.208986165 c 0,38,39
 414.948623386 -487.107756659 414.948623386 -487.107756659 273.912083811 -362.370689434 c 128,-1,40
 132.875544236 -237.633622209 132.875544236 -237.633622209 132.761700991 17.9771229216 c 0,41,42
 132.981184971 219.691895536 132.981184971 219.691895536 237.5737536 465.97597297 c 1,43,-1
 345.425318179 422.61604602 l 1,44,45
 252.005624407 179.640112848 252.005624407 179.640112848 252.268563358 21.256206695 c 0,46,47
 252.172746909 -104.772388654 252.172746909 -104.772388654 304.468947307 -190.798633564 c 128,-1,48
 356.765147705 -276.824878474 356.765147705 -276.824878474 457.292509662 -319.937358354 c 128,-1,49
 557.81987162 -363.049838233 557.81987162 -363.049838233 703.732690394 -363.60511243 c 0,50,51
 999.677776031 -365.047525028 999.677776031 -365.047525028 1199.61032652 -219.868434806 c 0,0,1
EndSplineSet
Substitution2: "'fina' Terminal Forms in Arabic lookup 9 subtable" uniFEF0
Substitution2: "'medi' Medial Forms in Arabic lookup 11 subtable" uniFBE9
Substitution2: "'init' Initial Forms in Arabic lookup 13 subtable" uniFBE8
EndChar

StartChar: uni064B
Encoding: 1611 1611 46
GlifName: uni064B_
Width: -26
VWidth: 2316
GlyphClass: 4
Flags: W
AnchorPoint: "Anchor-10" 593.551 1113.65 mark 0
AnchorPoint: "Anchor-9" 593.551 1113.65 mark 0
AnchorPoint: "Anchor-1" 553.285 1666.25 basemark 0
AnchorPoint: "Anchor-1" 593.551 1113.65 mark 0
LayerCount: 2
Fore
SplineSet
341.700195312 1098.74338944 m 1,0,-1
 341.700195312 1169.90729042 l 1,1,-1
 767.099609375 1343.93527714 l 1,2,-1
 767.099609375 1272.77046393 l 1,3,-1
 341.700195312 1098.74338944 l 1,0,-1
341.700195312 1350.74338944 m 1,4,-1
 341.700195312 1421.90729042 l 1,5,-1
 767.099609375 1595.93527714 l 1,6,-1
 767.099609375 1524.77046393 l 1,7,-1
 341.700195312 1350.74338944 l 1,4,-1
EndSplineSet
EndChar

StartChar: uni064C
Encoding: 1612 1612 47
GlifName: uni064C_
Width: -26
VWidth: 2316
GlyphClass: 4
Flags: W
AnchorPoint: "Anchor-10" 680.906 1218.67 mark 0
AnchorPoint: "Anchor-9" 680.906 1218.67 mark 0
AnchorPoint: "Anchor-1" 571.739 1915.46 basemark 0
AnchorPoint: "Anchor-1" 680.906 1218.67 mark 0
LayerCount: 2
Fore
SplineSet
576.251005355 1726.89125325 m 0,0,1
 553.052616685 1699.57136431 553.052616685 1699.57136431 552.713513768 1664.12758669 c 0,2,3
 553.042001397 1597.43562898 553.042001397 1597.43562898 627.768446666 1566.01811352 c 0,4,5
 640.103537373 1560.83202576 640.103537373 1560.83202576 658.872977534 1554.50582643 c 128,-1,6
 677.642417694 1548.1796271 677.642417694 1548.1796271 703.486426876 1540.46042046 c 2,7,-1
 714.736924058 1537.1000706 l 1,8,-1
 720.700518265 1547.21447529 l 2,9,10
 749.999832808 1596.90684435 749.999832808 1596.90684435 750.001953122 1648.8206109 c 0,11,12
 750.000888661 1702.32893305 750.000888661 1702.32893305 725.435625817 1732.01543949 c 128,-1,13
 700.870362973 1761.70194593 700.870362973 1761.70194593 654.195570798 1761.29358315 c 0,14,15
 604.98942482 1760.95164503 604.98942482 1760.95164503 576.251005355 1726.89125325 c 0,0,1
304.209399481 1499.47949219 m 1,16,17
 313.143948394 1272.90223336 313.143948394 1272.90223336 452.68919645 1274.27616166 c 0,18,19
 530.136795135 1275.06145394 530.136795135 1275.06145394 610.992498878 1353.37516161 c 0,20,21
 657.27459091 1399.03861502 657.27459091 1399.03861502 698.008346723 1479.4019588 c 2,22,-1
 706.830015727 1496.80616827 l 1,23,-1
 687.742831559 1500.85681661 l 1,24,-1
 658.196982724 1507.12691826 l 2,25,26
 563.564223392 1527.49992199 563.564223392 1527.49992199 530.259266768 1571.1111921 c 0,27,28
 501 1610.0115111 501 1610.0115111 501 1655.09960938 c 0,29,30
 501 1702.41785382 501 1702.41785382 516.427871093 1732.87728534 c 0,31,32
 529.845170751 1758.92954439 529.845170751 1758.92954439 548.750729321 1776.00866993 c 128,-1,33
 567.656287891 1793.08779547 567.656287891 1793.08779547 592.916289256 1801.68672457 c 128,-1,34
 618.176290621 1810.28565367 618.176290621 1810.28565367 650.297168018 1810.4145616 c 0,35,36
 715.989822302 1810.95047089 715.989822302 1810.95047089 754.758467751 1773.50280647 c 0,37,38
 798.028310699 1731.6161914 798.028310699 1731.6161914 798.391129555 1650.23229381 c 0,39,40
 798.501686317 1642.90649092 798.501686317 1642.90649092 797.759102866 1634.37034717 c 128,-1,41
 797.016519415 1625.83420341 797.016519415 1625.83420341 795.380507457 1615.93758649 c 128,-1,42
 793.744495499 1606.04096956 793.744495499 1606.04096956 791.239999129 1595.01933271 c 128,-1,43
 788.735502758 1583.99769587 788.735502758 1583.99769587 785.272428109 1571.58924032 c 128,-1,44
 781.80935346 1559.18078477 781.80935346 1559.18078477 777.462450198 1545.73263026 c 2,45,-1
 771.460112218 1527.16300409 l 1,46,-1
 790.948880136 1526.13977272 l 1,47,-1
 821.076854795 1524.55794471 l 2,48,49
 842.878179669 1523.40766027 842.878179669 1523.40766027 865.497070312 1522.82782853 c 1,50,-1
 865.497070312 1474.41330741 l 1,51,52
 839.094134333 1475.1910653 839.094134333 1475.1910653 831.3263111 1475.93797138 c 2,53,-1
 755.1544361 1483.26219013 l 1,54,-1
 744.072360792 1484.32777429 l 1,55,-1
 739.843167838 1474.02914381 l 2,56,57
 725.016687129 1437.92475044 725.016687129 1437.92475044 705.699191577 1405.76737165 c 128,-1,58
 686.381696025 1373.60999286 686.381696025 1373.60999286 662.530503126 1345.3147602 c 128,-1,59
 638.679310226 1317.01952754 638.679310226 1317.01952754 610.197704654 1292.45417436 c 0,60,61
 571.832463366 1258.83684232 571.832463366 1258.83684232 532.884613577 1242.40869561 c 128,-1,62
 493.936763787 1225.98054889 493.936763787 1225.98054889 453.601823231 1225.96366509 c 0,63,64
 412.451760003 1225.75005424 412.451760003 1225.75005424 381.218131435 1241.70951861 c 128,-1,65
 349.984502867 1257.66898298 349.984502867 1257.66898298 327.746933348 1290.91996792 c 128,-1,66
 305.509363829 1324.17095285 305.509363829 1324.17095285 293.191426067 1376.26865885 c 128,-1,67
 280.873488305 1428.36636485 280.873488305 1428.36636485 278.509002569 1499.47949219 c 1,68,-1
 304.209399481 1499.47949219 l 1,16,17
EndSplineSet
EndChar

StartChar: uni064D
Encoding: 1613 1613 48
GlifName: uni064D_
Width: -26
VWidth: 2316
GlyphClass: 4
Flags: W
AnchorPoint: "Anchor-7" 546.278 61.7109 mark 0
AnchorPoint: "Anchor-6" 546.278 61.7109 mark 0
AnchorPoint: "Anchor-0" 592.022 -447.025 basemark 0
AnchorPoint: "Anchor-0" 546.278 61.7109 mark 0
LayerCount: 2
Fore
SplineSet
347.099609375 -463.65701932 m 1,0,-1
 347.099609375 -392.493108376 l 1,1,-1
 772.5 -218.465095337 l 1,2,-1
 772.5 -289.629918511 l 1,3,-1
 347.099609375 -463.65701932 l 1,0,-1
347.099609375 -211.65701932 m 1,4,-1
 347.099609375 -140.493108376 l 1,5,-1
 772.5 33.5349046624 l 1,6,-1
 772.5 -37.6299185118 l 1,7,-1
 347.099609375 -211.65701932 l 1,4,-1
EndSplineSet
EndChar

StartChar: uni064E
Encoding: 1614 1614 49
GlifName: uni064E_
Width: -26
VWidth: 2316
GlyphClass: 4
Flags: W
AnchorPoint: "Anchor-10" 581.66 1364.63 mark 0
AnchorPoint: "Anchor-9" 581.66 1364.63 mark 0
AnchorPoint: "Anchor-1" 541.396 1691.77 basemark 0
AnchorPoint: "Anchor-1" 581.66 1364.63 mark 0
LayerCount: 2
Fore
SplineSet
311.099609375 1371.4426344 m 1,0,-1
 311.099609375 1442.60747757 l 1,1,-1
 736.5 1616.6354906 l 1,2,-1
 736.5 1545.47064743 l 1,3,-1
 311.099609375 1371.4426344 l 1,0,-1
EndSplineSet
EndChar

StartChar: uni064F
Encoding: 1615 1615 50
GlifName: uni064F_
Width: -26
VWidth: 2316
GlyphClass: 4
Flags: W
AnchorPoint: "Anchor-10" 611.295 1299.37 mark 0
AnchorPoint: "Anchor-9" 611.295 1299.37 mark 0
AnchorPoint: "Anchor-1" 580.134 1920.4 basemark 0
AnchorPoint: "Anchor-1" 611.295 1299.37 mark 0
LayerCount: 2
Fore
SplineSet
807.65234375 1489.08363529 m 1,0,1
 782.526892241 1489.3736197 782.526892241 1489.3736197 762.404573758 1490.56105531 c 128,-1,2
 742.282255276 1491.74849093 742.282255276 1491.74849093 725.934654387 1493.87471386 c 2,3,-1
 694.617271575 1497.94795605 l 1,4,-1
 685.675446762 1499.1109593 l 1,5,-1
 680.453689133 1491.75962916 l 2,6,7
 617.814664127 1403.57473334 617.814664127 1403.57473334 531.191528355 1355.45152466 c 128,-1,8
 444.568392583 1307.32831597 444.568392583 1307.32831597 333.57421875 1298.66902466 c 1,9,-1
 333.57421875 1346.74176409 l 1,10,11
 426.927062232 1353.39766537 426.927062232 1353.39766537 497.981968589 1391.37816321 c 128,-1,12
 569.036874946 1429.35866104 569.036874946 1429.35866104 618.154896331 1498.84241646 c 2,13,-1
 631.501203444 1517.72248355 l 1,14,-1
 608.820873118 1522.21508449 l 2,15,16
 568.178904004 1530.26559107 568.178904004 1530.26559107 523.804524164 1554.5608508 c 0,17,18
 483.568946074 1577.13952661 483.568946074 1577.13952661 464.352997465 1607.00861412 c 128,-1,19
 445.137048857 1636.87770162 445.137048857 1636.87770162 445.249744962 1675.44354134 c 0,20,21
 445.937584771 1734.54940118 445.937584771 1734.54940118 477.743178644 1773.2314271 c 0,22,23
 519.041500846 1822.99652616 519.041500846 1822.99652616 592.980544067 1822.95996417 c 0,24,25
 648.716082427 1822.99653019 648.716082427 1822.99653019 689.303328024 1790.31681191 c 0,26,27
 703.908107119 1778.55666073 703.908107119 1778.55666073 714.476026688 1763.9975384 c 128,-1,28
 725.043946256 1749.43841606 725.043946256 1749.43841606 731.679461763 1731.97012364 c 0,29,30
 736.281190806 1719.32379965 736.281190806 1719.32379965 738.518996689 1705.21050184 c 128,-1,31
 740.756802572 1691.09720403 740.756802572 1691.09720403 740.546553715 1675.5405972 c 0,32,33
 740.029230542 1620.19719766 740.029230542 1620.19719766 715.946806739 1561.98197518 c 2,34,-1
 708.142621048 1543.11666452 l 1,35,-1
 728.478074946 1541.30708582 l 1,36,-1
 748.293922082 1539.54374682 l 2,37,38
 779.202794746 1536.80840088 779.202794746 1536.80840088 807.65234375 1536.94823629 c 1,39,-1
 807.65234375 1489.08363529 l 1,0,1
663.695468043 1563.81279358 m 1,40,-1
 669.852428704 1578.01168133 l 2,41,42
 691.988157407 1628.84876839 691.988157407 1628.84876839 692.15831212 1673.71709561 c 0,43,44
 691.972783874 1722.1308058 691.972783874 1722.1308058 661.733496207 1746.87010152 c 0,45,46
 632.672661438 1771.91271506 632.672661438 1771.91271506 597.117730441 1772.47064331 c 0,47,48
 571.540770143 1772.77131988 571.540770143 1772.77131988 550.742261419 1763.32521211 c 128,-1,49
 529.943752694 1753.87910434 529.943752694 1753.87910434 515.414710507 1734.92040578 c 0,50,51
 495.529900683 1708.01121988 495.529900683 1708.01121988 494.867775944 1672.14476437 c 0,52,53
 495.026929609 1615.3728839 495.026929609 1615.3728839 569.426445871 1581.18266113 c 0,54,55
 593.793225622 1569.88003521 593.793225622 1569.88003521 645.900109142 1555.33274763 c 2,56,-1
 658.49373322 1551.81683844 l 1,57,-1
 663.695468043 1563.81279358 l 1,40,-1
EndSplineSet
EndChar

StartChar: uni0650
Encoding: 1616 1616 51
GlifName: uni0650
Width: -26
VWidth: 2316
GlyphClass: 4
Flags: W
AnchorPoint: "Anchor-7" 571.144 -21.8242 mark 0
AnchorPoint: "Anchor-6" 571.144 -21.8242 mark 0
AnchorPoint: "Anchor-0" 619.091 -334.624 basemark 0
AnchorPoint: "Anchor-0" 571.144 -21.8242 mark 0
LayerCount: 2
Fore
SplineSet
357.900390625 -323.256610554 m 1,0,-1
 357.900390625 -252.092709575 l 1,1,-1
 783.299804688 -78.064722854 l 1,2,-1
 783.299804688 -149.229536064 l 1,3,-1
 357.900390625 -323.256610554 l 1,0,-1
EndSplineSet
EndChar

StartChar: uni0651
Encoding: 1617 1617 52
GlifName: uni0651
Width: -26
VWidth: 2393
GlyphClass: 4
Flags: W
AnchorPoint: "Anchor-10" 598.801 1463.71 mark 0
AnchorPoint: "Anchor-9" 598.801 1463.71 mark 0
AnchorPoint: "Anchor-1" 570.087 1849.1 basemark 0
AnchorPoint: "Anchor-1" 598.801 1463.71 mark 0
LayerCount: 2
Fore
SplineSet
594.012129616 1753.46289062 m 1,0,1
 595.280395122 1719.20898379 595.280395122 1719.20898379 595.622693071 1685.85983544 c 0,2,3
 595.510538368 1661.45776951 595.510538368 1661.45776951 600.460564778 1641.94251862 c 128,-1,4
 605.410591189 1622.42726774 605.410591189 1622.42726774 615.295524285 1608.32798666 c 128,-1,5
 625.180457382 1594.22870559 625.180457382 1594.22870559 640.795714847 1586.68663671 c 128,-1,6
 656.410972313 1579.14456784 656.410972313 1579.14456784 676.806327825 1579.25240845 c 0,7,8
 705.171889645 1579.4734296 705.171889645 1579.4734296 724.563990151 1594.00057041 c 128,-1,9
 743.956090656 1608.52771122 743.956090656 1608.52771122 753.180499106 1634.051721 c 128,-1,10
 762.404907556 1659.57573077 762.404907556 1659.57573077 762.626569489 1695.06166562 c 0,11,12
 762.756196389 1713.18582098 762.756196389 1713.18582098 759.242495799 1739.95013233 c 128,-1,13
 755.728795209 1766.71444369 755.728795209 1766.71444369 748.954301795 1800.55124384 c 1,14,-1
 808.235143737 1809.94060882 l 1,15,16
 821.931741948 1756.31495298 821.931741948 1756.31495298 821.527205212 1705.08171258 c 0,17,18
 821.679846139 1639.83433886 821.679846139 1639.83433886 806.831355631 1598.00056982 c 128,-1,19
 791.982865122 1556.16680078 791.982865122 1556.16680078 763.179755796 1536.61679674 c 128,-1,20
 734.376646471 1517.06679271 734.376646471 1517.06679271 690.288282197 1516.66561828 c 0,21,22
 633.644819074 1516.25332323 633.644819074 1516.25332323 595.669364371 1564.53941652 c 2,23,-1
 576.96127383 1588.32690273 l 1,24,-1
 569.359807513 1559.03432924 l 2,25,26
 563.724621809 1537.31890165 563.724621809 1537.31890165 555.060864162 1520.28529072 c 128,-1,27
 546.397106515 1503.25167978 546.397106515 1503.25167978 534.50824836 1490.55334387 c 128,-1,28
 522.619390206 1477.85500796 522.619390206 1477.85500796 507.312528049 1469.53647113 c 128,-1,29
 492.005665893 1461.2179343 492.005665893 1461.2179343 473.279542757 1457.08256528 c 128,-1,30
 454.55341962 1452.94719626 454.55341962 1452.94719626 432.019860423 1452.88960874 c 0,31,32
 391.298892397 1452.98329127 391.298892397 1452.98329127 364.687167236 1468.93373388 c 128,-1,33
 338.075442074 1484.88417649 338.075442074 1484.88417649 324.117754628 1519.00475802 c 128,-1,34
 310.160067182 1553.12533954 310.160067182 1553.12533954 309.301003955 1606.7278368 c 0,35,36
 308.549166732 1656.22053263 308.549166732 1656.22053263 318.25308277 1698.67736703 c 1,37,-1
 367.623468669 1690.46908018 l 1,38,39
 360.335482617 1651.26461917 360.335482617 1651.26461917 360.577567656 1619.52164463 c 0,40,41
 360.804144542 1589.21645342 360.804144542 1589.21645342 370.092577508 1567.31094001 c 128,-1,42
 379.381010474 1545.4054266 379.381010474 1545.4054266 398.091465003 1533.23287348 c 128,-1,43
 416.801919531 1521.06032037 416.801919531 1521.06032037 443.566318496 1520.90262518 c 0,44,45
 491.443789564 1520.60933943 491.443789564 1520.60933943 517.029660446 1554.23078432 c 128,-1,46
 542.615531328 1587.8522292 542.615531328 1587.8522292 544.939190555 1648.64134524 c 0,47,48
 545.803817155 1671.20086903 545.803817155 1671.20086903 546.128661889 1697.68516011 c 128,-1,49
 546.453506623 1724.16945119 546.453506623 1724.16945119 546.241191555 1753.46289062 c 1,50,-1
 594.012129616 1753.46289062 l 1,0,1
EndSplineSet
EndChar

StartChar: uni0652
Encoding: 1618 1618 53
GlifName: uni0652
Width: -26
VWidth: 2316
GlyphClass: 4
Flags: W
AnchorPoint: "Anchor-10" 603.219 1222.43 mark 0
AnchorPoint: "Anchor-9" 603.219 1222.43 mark 0
AnchorPoint: "Anchor-1" 577.537 1799.66 basemark 0
AnchorPoint: "Anchor-1" 603.219 1222.43 mark 0
LayerCount: 2
Fore
SplineSet
413.139648438 1461.671875 m 128,-1,1
 413.139648438 1537.35913786 413.139648438 1537.35913786 465.445377565 1589.66576788 c 0,2,3
 491.79470327 1616.01463977 491.79470327 1616.01463977 523.521895199 1628.99315973 c 128,-1,4
 555.249087128 1641.97167969 555.249087128 1641.97167969 593.439453125 1641.97167969 c 128,-1,5
 631.630731374 1641.97167969 631.630731374 1641.97167969 663.358180636 1628.99195801 c 128,-1,6
 695.085629898 1616.01223633 695.085629898 1616.01223633 721.432460781 1589.66585922 c 0,7,8
 773.739257812 1537.35906219 773.739257812 1537.35906219 773.739257812 1461.671875 c 0,9,10
 773.739257812 1423.48059803 773.739257812 1423.48059803 760.759331371 1391.75320476 c 128,-1,11
 747.77940493 1360.02581149 747.77940493 1360.02581149 721.432460782 1333.67886734 c 0,12,13
 708.249360985 1320.49576754 708.249360985 1320.49576754 693.789759912 1310.69357556 c 128,-1,14
 679.330158839 1300.89138358 679.330158839 1300.89138358 663.384358081 1294.36505211 c 128,-1,15
 647.438557323 1287.83872063 647.438557323 1287.83872063 630.000425919 1284.60539547 c 128,-1,16
 612.562294515 1281.37207031 612.562294515 1281.37207031 593.439453125 1281.37207031 c 0,17,18
 517.752265935 1281.37207031 517.752265935 1281.37207031 465.445560247 1333.678776 c 128,-1,0
 413.139648438 1385.98558871 413.139648438 1385.98558871 413.139648438 1461.671875 c 128,-1,1
469.538669287 1460.77229323 m 0,19,20
 469.154806335 1407.67641399 469.154806335 1407.67641399 506.332279797 1370.96580754 c 0,21,22
 542.740031882 1334.09006669 542.740031882 1334.09006669 596.116316886 1334.17189315 c 0,23,24
 622.138489918 1334.13141725 622.138489918 1334.13141725 644.83773528 1343.41915996 c 128,-1,25
 667.536980642 1352.70690267 667.536980642 1352.70690267 685.945835543 1370.965851 c 0,26,27
 694.988361029 1380.08356791 694.988361029 1380.08356791 701.846258013 1390.34493566 c 128,-1,28
 708.704154996 1400.60630342 708.704154996 1400.60630342 713.307535102 1411.86900738 c 128,-1,29
 717.910915207 1423.13171134 717.910915207 1423.13171134 720.277816509 1435.38659446 c 128,-1,30
 722.644717812 1447.64147757 722.644717812 1447.64147757 722.739651025 1460.77262865 c 0,31,32
 722.549293811 1487.02162668 722.549293811 1487.02162668 713.299535791 1509.63221292 c 128,-1,33
 704.049777771 1532.24279916 704.049777771 1532.24279916 685.945878999 1550.57829726 c 0,34,35
 667.497970783 1568.79454047 667.497970783 1568.79454047 644.844910365 1578.06301739 c 128,-1,36
 622.191849947 1587.33149431 622.191849947 1587.33149431 596.116653294 1587.37205268 c 0,37,38
 569.83357666 1587.33176043 569.83357666 1587.33176043 547.076136551 1578.02309056 c 128,-1,39
 524.318696442 1568.71442069 524.318696442 1568.71442069 506.332483085 1550.57809395 c 0,40,41
 469.154807627 1513.70427182 469.154807627 1513.70427182 469.538669287 1460.77229323 c 0,19,20
EndSplineSet
EndChar

StartChar: uni0653
Encoding: 1619 1619 54
GlifName: uni0653
Width: -30
VWidth: 2673
GlyphClass: 4
Flags: W
AnchorPoint: "Anchor-10" 461.017 1539.11 mark 0
AnchorPoint: "Anchor-9" 461.017 1539.11 mark 0
AnchorPoint: "Anchor-1" 461.017 1975.25 basemark 0
AnchorPoint: "Anchor-1" 461.017 1539.11 mark 0
LayerCount: 2
Fore
SplineSet
402.393703146 1651.66462314 m 2,0,1
 290.107722581 1667.11776731 290.107722581 1667.11776731 196.601208338 1564.89212275 c 1,2,-1
 115.09765625 1640.65722656 l 5,3,4
 226.244104141 1792.33311647 226.244104141 1792.33311647 381.372070312 1767.34863281 c 6,5,-1
 530.047851562 1743.40332031 l 6,6,7
 628 1728 628 1728 745.043945312 1783.61230469 c 5,8,-1
 798.228845219 1683.0705373 l 1,9,10
 678.438174682 1613.67452862 678.438174682 1613.67452862 542.914210959 1632.32575595 c 2,11,-1
 402.393703146 1651.66462314 l 2,0,1
EndSplineSet
EndChar

StartChar: uni0657
Encoding: 1623 1623 57
GlifName: uni0657
Width: -26
VWidth: 2316
GlyphClass: 4
Flags: W
AnchorPoint: "Anchor-10" 573.285 1350.55 mark 0
AnchorPoint: "Anchor-9" 573.285 1350.55 mark 0
AnchorPoint: "Anchor-1" 573.285 2089.85 basemark 0
AnchorPoint: "Anchor-1" 573.285 1350.55 mark 0
LayerCount: 2
Fore
SplineSet
279.529296875 1789.14623345 m 1,0,1
 305.974197359 1788.09940632 305.974197359 1788.09940632 334.198691751 1785.99322113 c 128,-1,2
 362.423186143 1783.88703595 362.423186143 1783.88703595 392.962405428 1780.68342025 c 2,3,-1
 401.733310624 1779.76333748 l 1,4,-1
 406.802154275 1786.98013416 l 1,5,-1
 408.022041721 1788.71695794 l 2,6,7
 478.375928391 1888.96012979 478.375928391 1888.96012979 568.656820811 1945.52634776 c 128,-1,8
 658.937713232 2002.09256573 658.937713232 2002.09256573 769.673828125 2015.98223794 c 1,9,-1
 769.673828125 1967.23186779 l 1,10,11
 587.62711951 1933.52159641 587.62711951 1933.52159641 474.420882952 1787.37715713 c 2,12,-1
 460.970256221 1770.01296977 l 1,13,-1
 482.038594179 1763.80334034 l 2,14,15
 541.254362237 1746.35023241 541.254362237 1746.35023241 582.165247124 1716.43603027 c 0,16,17
 642.997789594 1670.52941975 642.997789594 1670.52941975 642.976563344 1598.86606216 c 0,18,19
 642.997958691 1535.08296672 642.997958691 1535.08296672 602.45282552 1493.33603739 c 0,20,21
 563.620607167 1453.00126983 563.620607167 1453.00126983 501.355640468 1453.01367163 c 0,22,23
 433.117070631 1453.00112497 433.117070631 1453.00112497 384.257513297 1500.81330813 c 0,24,25
 346.968358956 1538.22996169 346.968358956 1538.22996169 346.636061505 1603.25513859 c 0,26,27
 346.98109254 1644.66811292 346.98109254 1644.66811292 369.700871013 1717.98482097 c 2,28,-1
 375.199167893 1735.72782086 l 1,29,-1
 356.696179319 1737.36633475 l 2,30,31
 322.07690376 1740.43201052 322.07690376 1740.43201052 279.529296875 1741.19287157 c 1,32,-1
 279.529296875 1789.14623345 l 1,0,1
501.576955845 1501.40416564 m 0,33,34
 549.695970873 1502.11150927 549.695970873 1502.11150927 573.960192455 1535.29761851 c 0,35,36
 591.952057125 1561.23814505 591.952057125 1561.23814505 592.313881812 1596.59664545 c 0,37,38
 592.238933706 1610.79032238 592.238933706 1610.79032238 588.359794466 1623.75654237 c 128,-1,39
 584.480655225 1636.72276235 584.480655225 1636.72276235 577.179636696 1647.96899646 c 128,-1,40
 569.878618166 1659.21523058 569.878618166 1659.21523058 559.172453172 1669.18012058 c 128,-1,41
 548.466288177 1679.14501058 548.466288177 1679.14501058 534.913192764 1687.48605605 c 128,-1,42
 521.360097352 1695.82710152 521.360097352 1695.82710152 504.800900144 1702.83291573 c 0,43,44
 472.576816041 1716.34624132 472.576816041 1716.34624132 440.530633866 1723.5311645 c 2,45,-1
 428.348763643 1726.2624041 l 1,46,-1
 423.451365615 1714.77880169 l 2,47,48
 394.998227318 1648.0608168 394.998227318 1648.0608168 395.023446873 1604.98161288 c 0,49,50
 394.996499015 1580.87675346 394.996499015 1580.87675346 403.037496785 1562.45635759 c 0,51,52
 415.215512772 1534.49176574 415.215512772 1534.49176574 444.46778388 1517.54487383 c 0,53,54
 473.076027591 1500.93309482 473.076027591 1500.93309482 501.576955845 1501.40416564 c 0,33,34
EndSplineSet
EndChar

StartChar: uni065A
Encoding: 1626 1626 58
GlifName: uni065A_
Width: 1135
VWidth: 2316
GlyphClass: 4
Flags: W
AnchorPoint: "Anchor-10" 573.285 1350.55 mark 0
AnchorPoint: "Anchor-9" 573.285 1350.55 mark 0
AnchorPoint: "Anchor-1" 571.012 1862.38 basemark 0
AnchorPoint: "Anchor-1" 573.285 1350.55 mark 0
LayerCount: 2
Fore
SplineSet
510.873450561 1459.42578125 m 1,0,-1
 334.975512316 1753.49023438 l 1,1,-1
 404.894959599 1753.49023438 l 1,2,-1
 560.804284909 1519.61912557 l 1,3,-1
 573.285118248 1500.89730552 l 1,4,-1
 585.766004206 1519.61909049 l 1,5,-1
 741.676302345 1753.49023438 l 1,6,-1
 811.59654809 1753.49023438 l 1,7,-1
 635.695951372 1459.42578125 l 1,8,-1
 510.873450561 1459.42578125 l 1,0,-1
EndSplineSet
EndChar

StartChar: afii57392
Encoding: 1632 1632 59
GlifName: afii57392
Width: 1077
VWidth: 2952
GlyphClass: 2
Flags: W
LayerCount: 2
Fore
SplineSet
369.290039062 593.262695312 m 128,-1,1
 369.290039062 521.259490433 369.290039062 521.259490433 419.186682516 471.366402812 c 0,2,3
 425.309251606 465.243542393 425.309251606 465.243542393 431.888319002 459.817987642 c 128,-1,4
 438.467386398 454.39243289 438.467386398 454.39243289 445.479811529 449.683180397 c 128,-1,5
 452.492236659 444.973927904 452.492236659 444.973927904 459.947690909 441.00092918 c 128,-1,6
 467.403145159 437.027930455 467.403145159 437.027930455 475.20591412 433.852156444 c 0,7,8
 481.487368039 431.295469266 481.487368039 431.295469266 487.945267319 429.25431198 c 128,-1,9
 494.403166599 427.213154694 494.403166599 427.213154694 501.013750806 425.68734642 c 128,-1,10
 507.624335013 424.161538145 507.624335013 424.161538145 514.460585108 423.13167929 c 128,-1,11
 521.296835203 422.101820435 521.296835203 422.101820435 528.304630772 421.564330896 c 128,-1,12
 535.312426341 421.026841357 535.312426341 421.026841357 542.595108324 420.965720763 c 0,13,14
 615.216035101 421.586503229 615.216035101 421.586503229 664.995429998 471.365898126 c 0,15,16
 689.787447853 496.157915981 689.787447853 496.157915981 702.370255683 526.983647116 c 128,-1,17
 714.890625 557.65932385 714.890625 557.65932385 714.890625 593.262695312 c 128,-1,18
 714.890625 628.866832348 714.890625 628.866832348 702.370255684 659.543696633 c 0,19,20
 698.1706671 669.832947578 698.1706671 669.832947578 692.545016292 679.529334757 c 128,-1,21
 686.919365485 689.225721936 686.919365485 689.225721936 680.033813582 698.117656218 c 128,-1,22
 673.14826168 707.0095905 673.14826168 707.0095905 664.995177965 715.162674215 c 0,23,24
 615.214086113 764.942583198 615.214086113 764.942583198 541.58604674 765.56162269 c 0,25,26
 505.545241624 765.254173371 505.545241624 765.254173371 474.850765928 752.633992509 c 128,-1,27
 443.958386185 739.932442451 443.958386185 739.932442451 419.18743915 715.162674143 c 0,28,0
 369.290039062 665.266459352 369.290039062 665.266459352 369.290039062 593.262695312 c 128,-1,1
334.842864032 796.250441537 m 0,29,30
 356.165193645 817.57187773 356.165193645 817.57187773 379.414221989 833.438584736 c 0,31,32
 402.449383048 849.159613643 402.449383048 849.159613643 427.469791508 859.596628127 c 128,-1,33
 452.525314292 870.048546243 452.525314292 870.048546243 479.735743563 875.284038746 c 128,-1,34
 506.946172835 880.51953125 506.946172835 880.51953125 536.678710938 880.51953125 c 0,35,36
 576.169123785 880.51953125 576.169123785 880.51953125 611.61790797 871.182724495 c 0,37,38
 646.813602598 861.912809558 646.813602598 861.912809558 678.344558262 843.342124019 c 0,39,40
 710.159288227 824.605711152 710.159288227 824.605711152 738.514335626 796.250663752 c 0,41,42
 780.898747226 753.866252153 780.898747226 753.866252153 801.856608574 703.628326341 c 128,-1,43
 822.784179688 653.463009014 822.784179688 653.463009014 822.784179688 594.4140625 c 0,44,45
 822.784179688 535.035858596 822.784179688 535.035858596 801.956600095 485.114002359 c 128,-1,46
 781.129020502 435.192146123 781.129020502 435.192146123 738.514335626 392.577461248 c 0,47,48
 717.205259069 371.26838469 717.205259069 371.26838469 693.973374751 355.449439852 c 0,49,50
 670.958220601 339.777789374 670.958220601 339.777789374 645.961378548 329.419638026 c 0,51,52
 639.716010595 326.831558247 639.716010595 326.831558247 633.346949156 324.573169646 c 128,-1,53
 626.977887716 322.314781045 626.977887716 322.314781045 620.466981939 320.380459968 c 128,-1,54
 613.956076162 318.446138891 613.956076162 318.446138891 607.302541364 316.837891688 c 128,-1,55
 600.649006566 315.229644485 600.649006566 315.229644485 593.849992111 313.946853084 c 0,56,57
 566.498615349 308.787268128 566.498615349 308.787268128 536.624811166 308.924143882 c 0,58,59
 516.636997081 308.832312116 516.636997081 308.832312116 497.880446427 311.095178323 c 128,-1,60
 479.123895773 313.358044529 479.123895773 313.358044529 461.612854971 317.924374286 c 128,-1,61
 444.101814169 322.490704043 444.101814169 322.490704043 427.382589497 329.420691318 c 128,-1,62
 410.737398541 336.31998458 410.737398541 336.31998458 394.983614059 345.567362221 c 128,-1,63
 379.155050782 354.858634569 379.155050782 354.858634569 364.174355022 366.555284521 c 0,64,65
 360.412199604 369.492705834 360.412199604 369.492705834 356.70274951 372.582879591 c 128,-1,66
 352.993299417 375.673053348 352.993299417 375.673053348 349.326722107 378.924685552 c 128,-1,67
 345.660144797 382.176317757 345.660144797 382.176317757 342.037178487 385.591326536 c 128,-1,68
 338.414212178 389.006335315 338.414212178 389.006335315 334.843308642 392.577238851 c 0,69,70
 320.58858812 406.832258265 320.58858812 406.832258265 308.802697152 421.905626792 c 128,-1,71
 297.016806185 436.978995318 297.016806185 436.978995318 287.742745157 452.740754903 c 128,-1,72
 278.46868413 468.502514488 278.46868413 468.502514488 271.503915448 485.198408687 c 0,73,74
 250.577148438 535.363906475 250.577148438 535.363906475 250.577148438 594.415039062 c 128,-1,75
 250.577148438 653.469391552 250.577148438 653.469391552 271.499133152 703.626051024 c 128,-1,76
 292.455028867 753.86260637 292.455028867 753.86260637 334.842864032 796.250441537 c 0,29,30
EndSplineSet
EndChar

StartChar: afii57393
Encoding: 1633 1633 60
GlifName: afii57393
Width: 756
VWidth: 2952
GlyphClass: 2
Flags: W
LayerCount: 2
Fore
SplineSet
298.503465707 1378.75827406 m 1,0,1
 489.115234375 942.520029886 489.115234375 942.520029886 489.115234375 308.771484375 c 2,2,-1
 489.115234375 41.5537109375 l 1,3,-1
 364.796387315 41.5537109375 l 1,4,-1
 364.791990703 311.908529325 l 2,5,6
 364.994023168 953.999954527 364.994023168 953.999954527 186.473519644 1340.43176524 c 1,7,-1
 298.503465707 1378.75827406 l 1,0,1
EndSplineSet
EndChar

StartChar: afii57394
Encoding: 1634 1634 61
GlifName: afii57394
Width: 1237
VWidth: 2952
GlyphClass: 2
Flags: W
LayerCount: 2
Fore
SplineSet
387.996712492 1124.18343242 m 2,0,1
 410.297635238 1060.94377008 410.297635238 1060.94377008 451.98073116 1017.88939255 c 128,-1,2
 493.663827081 974.835015015 493.663827081 974.835015015 552.267708707 953.343242942 c 128,-1,3
 610.871590333 931.851470868 610.871590333 931.851470868 685.079301579 931.769089117 c 0,4,5
 851.328207989 932.02857009 851.328207989 932.02857009 907.960472935 1042.24278955 c 0,6,7
 962.388118261 1147.71651544 962.388118261 1147.71651544 965.739715239 1374.45202932 c 1,8,-1
 1085.26262419 1374.08383495 l 1,9,10
 1084.13990302 1316.73247848 1084.13990302 1316.73247848 1080.82708479 1265.73291465 c 0,11,12
 1062.75940616 1019.45049271 1062.75940616 1019.45049271 979.313121889 914.824498977 c 0,13,14
 890.618318095 804.037972991 890.618318095 804.037972991 689.34287412 804.568056501 c 4,15,16
 538 805 538 805 447.350040994 881.073385644 c 5,17,-1
 455.685066727 817.602699575 l 1,18,-1
 456.520223774 811.24305565 l 2,19,20
 489.115234375 562.164818821 489.115234375 562.164818821 489.115234375 308.771484375 c 2,21,-1
 489.115234375 41.5537109375 l 1,22,-1
 364.796387315 41.5537109375 l 1,23,-1
 364.791990703 311.908529325 l 2,24,25
 364.994023168 953.999954527 364.994023168 953.999954527 186.473471393 1340.43186968 c 1,26,-1
 296.302470372 1378.00583021 l 1,27,-1
 387.996712492 1124.18343242 l 2,0,1
EndSplineSet
EndChar

StartChar: afii57395
Encoding: 1635 1635 62
GlifName: afii57395
Width: 1492
VWidth: 2952
GlyphClass: 2
Flags: W
LayerCount: 2
Fore
SplineSet
455.340241134 820.092809776 m 2,0,1
 489.115234375 565.304753968 489.115234375 565.304753968 489.115234375 308.771484375 c 2,2,-1
 489.115234375 41.5537109375 l 1,3,-1
 364.796387313 41.5537109375 l 1,4,-1
 364.791990703 311.907552777 l 2,5,6
 364.994023165 953.999916159 364.994023165 953.999916159 186.47349971 1340.43180694 c 1,7,-1
 295.967265209 1377.89083091 l 1,8,-1
 395.837527134 1091.74308461 l 2,9,10
 445.631443429 949.202338086 445.631443429 949.202338086 610.320046371 947.632402436 c 0,11,12
 706.490153507 947.251384957 706.490153507 947.251384957 751.99264109 1023.31886863 c 128,-1,13
 797.495128672 1099.38635231 797.495128672 1099.38635231 794.357236651 1235.25322247 c 2,14,-1
 792.340764398 1322.56399413 l 1,15,-1
 891.099845511 1325.70798364 l 1,16,-1
 894.020048377 1211.65125295 l 2,17,18
 898.287579495 1040.35994366 898.287579495 1040.35994366 977.85159341 975.30351401 c 0,19,20
 1040.00603999 924.482217014 1040.00603999 924.482217014 1119.57059654 945.57260367 c 0,21,22
 1176.86829148 960.760654654 1176.86829148 960.760654654 1200.22528304 1009.08686619 c 128,-1,23
 1223.5822746 1057.41307772 1223.5822746 1057.41307772 1228.37480126 1100.05453976 c 128,-1,24
 1233.16732792 1142.6960018 1233.16732792 1142.6960018 1234.72133155 1162.45160542 c 128,-1,25
 1236.27533518 1182.20720905 1236.27533518 1182.20720905 1237.32317059 1202.75979653 c 0,26,27
 1239.4138768 1243.76759444 1239.4138768 1243.76759444 1239.51847167 1288.22727442 c 2,28,-1
 1239.76062529 1391.15845418 l 1,29,-1
 1356.50042652 1391.26613701 l 1,30,-1
 1356.05475059 1290.6959441 l 1,31,32
 1355.77896721 1000.14825792 1355.77896721 1000.14825792 1270.20914414 895.955409928 c 0,33,34
 1205.34307736 816.972189068 1205.34307736 816.972189068 1077.8720952 817.931473213 c 128,-1,35
 950.401112984 818.890757359 950.401112984 818.890757359 860.185178346 923.488395449 c 2,36,-1
 836.839190822 950.556065519 l 1,37,-1
 811.97148141 920.1025206 l 2,38,39
 727.76170549 816.993100806 727.76170549 816.993100806 623.171091031 816.943276525 c 4,40,41
 510 817 510 817 445.279476345 895.988093668 c 1,42,-1
 455.340241134 820.092809776 l 2,0,1
EndSplineSet
EndChar

StartChar: afii57396
Encoding: 1636 1636 63
GlifName: afii57396
Width: 1056
VWidth: 2952
GlyphClass: 2
Flags: W
LayerCount: 2
Fore
SplineSet
169.293874036 312.795106109 m 0,0,1
 161.616924768 542.07686324 161.616924768 542.07686324 515.480438201 725.446841288 c 2,2,-1
 576.493421707 757.063408188 l 1,3,-1
 511.828010127 780.313698596 l 2,4,5
 251.067659601 874.069444187 251.067659601 874.069444187 251.662947854 1059.86600905 c 0,6,7
 251.971473354 1161.5524371 251.971473354 1161.5524371 294.191525062 1222.25889768 c 0,8,9
 420.482710375 1406.74372102 420.482710375 1406.74372102 788.159872405 1370.68296343 c 1,10,-1
 779.671005329 1248.19116679 l 1,11,12
 745.020937794 1251.12957416 745.020937794 1251.12957416 714.188882703 1251.45867722 c 0,13,14
 617.069108161 1251.64500103 617.069108161 1251.64500103 548.615576768 1232.52650325 c 128,-1,15
 480.162045375 1213.40800547 480.162045375 1213.40800547 440.734877536 1170.4399631 c 128,-1,16
 401.307709696 1127.47192072 401.307709696 1127.47192072 400.830476425 1062.23955025 c 0,17,18
 400.339164234 966.895506458 400.339164234 966.895506458 493.523013873 914.136030683 c 128,-1,19
 586.706863511 861.376554909 586.706863511 861.376554909 758.10696294 844.274674545 c 1,20,-1
 759.797087558 708.18888028 l 1,21,22
 646.320866498 661.634388682 646.320866498 661.634388682 563.724840062 618.936397536 c 128,-1,23
 481.128813626 576.238406389 481.128813626 576.238406389 420.666116037 531.590513439 c 128,-1,24
 360.203418449 486.942620489 360.203418449 486.942620489 331.40376734 441.196314836 c 128,-1,25
 302.60411623 395.450009182 302.60411623 395.450009182 305.579933207 348.315450147 c 0,26,27
 308.935318582 298.300360177 308.935318582 298.300360177 339.529592341 262.401391109 c 128,-1,28
 370.1238661 226.502422042 370.1238661 226.502422042 425.868337187 205.434073653 c 128,-1,29
 481.612808274 184.365725264 481.612808274 184.365725264 555.022674893 174.907500794 c 128,-1,30
 628.432541513 165.449276325 628.432541513 165.449276325 724.020938643 166.054311876 c 2,31,-1
 888.104935922 167.092896628 l 1,32,-1
 889.644589651 30.0867756828 l 1,33,-1
 717.161918735 30.4686410166 l 2,34,35
 439.744756639 31.2164128811 439.744756639 31.2164128811 306.678021335 102.987210195 c 128,-1,36
 173.611286031 174.758007509 173.611286031 174.758007509 169.293874036 312.795106109 c 0,0,1
EndSplineSet
EndChar

StartChar: afii57397
Encoding: 1637 1637 64
GlifName: afii57397
Width: 1257
VWidth: 2952
GlyphClass: 2
Flags: W
LayerCount: 2
Fore
SplineSet
578.683229961 1091.13976788 m 2,0,1
 280.012486017 771.857785668 280.012486017 771.857785668 279.721734781 493.167115028 c 0,2,3
 280.027911302 333.407429442 280.027911302 333.407429442 398.213010007 240.441469017 c 0,4,5
 494.686444546 164.979810462 494.686444546 164.979810462 654.08365879 165.290958786 c 0,6,7
 817.918124381 164.972925827 817.918124381 164.972925827 908.162631178 271.946328051 c 0,8,9
 977.059918099 353.047990745 977.059918099 353.047990745 976.259696855 500.402715312 c 0,10,11
 975.987443599 822.885673388 975.987443599 822.885673388 618.750222555 1094.52586746 c 2,12,-1
 597.188027787 1110.92157996 l 1,13,-1
 578.683229961 1091.13976788 l 2,0,1
437.028069096 1238.18684872 m 1,14,-1
 511.256755342 1357.87770614 l 1,15,16
 1106.0368635 966.05350723 1106.0368635 966.05350723 1106.70607217 477.231282853 c 0,17,18
 1106.77640171 412.089304961 1106.77640171 412.089304961 1095.47246593 356.897503355 c 128,-1,19
 1084.16853015 301.70570175 1084.16853015 301.70570175 1061.37732249 256.060006412 c 128,-1,20
 1038.58611483 210.414311075 1038.58611483 210.414311075 1004.72097684 174.002989633 c 128,-1,21
 970.855838856 137.591668191 970.855838856 137.591668191 925.350818514 109.470236366 c 0,22,23
 808.563464386 37.0671841521 808.563464386 37.0671841521 640.416650889 38.3877769607 c 0,24,25
 470.849105328 38.9730854014 470.849105328 38.9730854014 349.62002178 106.591063159 c 0,26,27
 146.169974436 218.633466925 146.169974436 218.633466925 148.627491087 475.653923144 c 0,28,29
 151.88822409 811.346952551 151.88822409 811.346952551 474.27115771 1168.83870728 c 2,30,-1
 496.038453387 1192.97655055 l 1,31,-1
 470.237254549 1212.74391704 l 1,32,-1
 437.028069096 1238.18684872 l 1,14,-1
EndSplineSet
EndChar

StartChar: afii57398
Encoding: 1638 1638 65
GlifName: afii57398
Width: 1305
VWidth: 2952
GlyphClass: 2
Flags: W
LayerCount: 2
Fore
SplineSet
824.754401635 1195.25178984 m 2,0,1
 663.187832111 1150.98000543 663.187832111 1150.98000543 493.944111209 1150.07321638 c 0,2,3
 441.162709643 1150.05626318 441.162709643 1150.05626318 390.790225862 1154.63910831 c 128,-1,4
 340.417742081 1159.22195345 340.417742081 1159.22195345 292.623945003 1168.37203374 c 128,-1,5
 244.830147925 1177.52211403 244.830147925 1177.52211403 199.572554917 1191.15437883 c 128,-1,6
 154.314961909 1204.78664362 154.314961909 1204.78664362 111.41796875 1222.93477704 c 1,7,-1
 111.41796875 1368.04820845 l 1,8,9
 297.413587148 1291.9875956 297.413587148 1291.9875956 509.86252012 1291.84286337 c 0,10,11
 575.395238713 1292.00332644 575.395238713 1292.00332644 639.380387543 1297.81052974 c 0,12,13
 671.984231641 1301.0595756 671.984231641 1301.0595756 703.71550688 1305.54002654 c 128,-1,14
 735.446782119 1310.02047748 735.446782119 1310.02047748 767.041476792 1315.83576267 c 0,15,16
 830.982105849 1327.7854605 830.982105849 1327.7854605 892.809976435 1345.86135298 c 0,17,18
 913.160159763 1351.58982337 913.160159763 1351.58982337 934.913070732 1358.56113957 c 128,-1,19
 956.665981701 1365.53245577 956.665981701 1365.53245577 976.14201065 1372.52677056 c 1,20,21
 989.989095928 517.091396931 989.989095928 517.091396931 1123.13988201 41.5537109375 c 1,22,-1
 992.945828616 41.5537109375 l 1,23,24
 935.450301862 282.532404458 935.450301862 282.532404458 903.887432119 562.607731337 c 128,-1,25
 872.324562376 842.683058216 872.324562376 842.683058216 866.468652758 1164.02609848 c 2,26,-1
 866.398340258 1167.88449691 l 1,27,-1
 865.695183776 1206.47020878 l 1,28,-1
 828.475104795 1196.27132109 l 1,29,-1
 824.754401635 1195.25178984 l 2,0,1
EndSplineSet
EndChar

StartChar: afii57399
Encoding: 1639 1639 66
GlifName: afii57399
Width: 1301
VWidth: 2952
GlyphClass: 2
Flags: W
LayerCount: 2
Fore
SplineSet
1162.31142046 1316.96540437 m 1,0,1
 852.112143106 699.875064692 852.112143106 699.875064692 709.996720485 41.5537109375 c 1,2,-1
 590.674494546 41.5537109375 l 1,3,4
 444.046593737 695.043601436 444.046593737 695.043601436 138.320743283 1316.83073126 c 1,5,-1
 252.990581159 1375.0763297 l 1,6,7
 521.221656153 814.410077943 521.221656153 814.410077943 618.104913706 335.694699962 c 2,8,-1
 621.042413706 321.180051525 l 1,9,-1
 650.416004635 176.040529596 l 1,10,-1
 679.847776505 321.168264624 l 1,11,-1
 682.791713626 335.684786064 l 2,12,13
 780.204890667 816.267175469 780.204890667 816.267175469 1047.88745022 1375.08456854 c 1,14,-1
 1162.31142046 1316.96540437 l 1,0,1
EndSplineSet
EndChar

StartChar: afii57400
Encoding: 1640 1640 67
GlifName: afii57400
Width: 1301
VWidth: 2952
GlyphClass: 2
Flags: W
LayerCount: 2
Fore
SplineSet
618.10957431 1071.9640248 m 2,0,1
 520.356181587 590.883708179 520.356181587 590.883708179 253.002313677 32.5515129206 c 1,2,-1
 138.314918595 90.8060188369 l 1,3,4
 444.046565314 712.94407419 444.046565314 712.94407419 590.67170254 1366.08105469 c 1,5,-1
 710.158227078 1366.08105469 l 1,6,7
 855.015993113 713.911863709 855.015993113 713.911863709 1162.52580343 90.7784123237 c 1,8,-1
 1047.91177723 32.5617957342 l 1,9,10
 779.796202703 593.536592074 779.796202703 593.536592074 682.79133832 1071.94987769 c 2,11,-1
 679.85383832 1086.43718238 l 1,12,-1
 650.483423456 1231.28761608 l 1,13,-1
 621.052933686 1086.44937636 l 1,14,-1
 618.10957431 1071.9640248 l 2,0,1
EndSplineSet
EndChar

StartChar: afii57401
Encoding: 1641 1641 68
GlifName: afii57401
Width: 1198
VWidth: 2952
GlyphClass: 2
Flags: W
LayerCount: 2
Fore
SplineSet
509.541490715 645.165045875 m 0,0,1
 414.080391935 645.125513693 414.080391935 645.125513693 344.680266248 664.733481143 c 128,-1,2
 275.280140561 684.341448593 275.280140561 684.341448593 230.126874599 724.597750489 c 128,-1,3
 184.973608637 764.854052385 184.973608637 764.854052385 163.350235918 825.065381642 c 128,-1,4
 141.726863199 885.276710899 141.726863199 885.276710899 141.948240234 967.596593321 c 0,5,6
 141.996910835 1102.43619948 141.996910835 1102.43619948 207.980139012 1208.66451719 c 0,7,8
 320.692657966 1390.02499007 320.692657966 1390.02499007 515.041369282 1390.31543857 c 0,9,10
 707.754789473 1390.16715298 707.754789473 1390.16715298 807.328691424 1275.43475542 c 128,-1,11
 906.902593376 1160.70235786 906.902593376 1160.70235786 917.978918353 920.047066763 c 0,12,13
 932.614812461 601.6893086 932.614812461 601.6893086 968.777830741 41.5537109375 c 1,14,-1
 848.708418749 41.5537109375 l 1,15,-1
 826.046780847 683.95802133 l 1,16,-1
 824.402506191 730.56935325 l 1,17,-1
 782.669910028 709.743640298 l 2,18,19
 652.945825555 645.007755296 652.945825555 645.007755296 509.541490715 645.165045875 c 0,0,1
808.236521312 871.906573491 m 1,20,-1
 806.297237193 894.99391363 l 2,21,22
 791.027765499 1074.42985639 791.027765499 1074.42985639 717.211934311 1168.73138625 c 128,-1,23
 643.396103124 1263.03291611 643.396103124 1263.03291611 512.138323184 1258.52529404 c 0,24,25
 394.611828434 1254.48922836 394.611828434 1254.48922836 317.390863381 1151.46707073 c 0,26,27
 297.472545886 1124.56326683 297.472545886 1124.56326683 284.063007092 1095.98959227 c 128,-1,28
 270.653468299 1067.4159177 270.653468299 1067.4159177 263.829495818 1037.0853038 c 128,-1,29
 257.005523338 1006.7546899 257.005523338 1006.7546899 257.008797478 975.192710461 c 0,30,31
 257.544593145 876.123827667 257.544593145 876.123827667 325.189415915 825.378607966 c 128,-1,32
 392.834238686 774.633388266 392.834238686 774.633388266 514.064081603 774.892342278 c 0,33,34
 656.379150839 775.196335563 656.379150839 775.196335563 791.70687839 842.53709021 c 2,35,-1
 809.941307079 851.610767945 l 1,36,-1
 808.236521312 871.906573491 l 1,20,-1
EndSplineSet
EndChar

StartChar: afii57381
Encoding: 1642 1642 69
GlifName: afii57381
Width: 1288
VWidth: 4038
GlyphClass: 2
Flags: W
LayerCount: 2
Fore
SplineSet
779.512695312 345.344726562 m 128,-1,1
 779.512695312 402.636448097 779.512695312 402.636448097 820.632555016 442.994234082 c 0,2,3
 861.097437334 483.4591164 861.097437334 483.4591164 918.698305432 483.840499175 c 0,4,5
 947.612108582 484.031628824 947.612108582 484.031628824 971.647629659 474.024344916 c 128,-1,6
 995.696424168 464.01153456 995.696424168 464.01153456 1016.12989633 443.192724173 c 0,7,8
 1036.56689771 422.754910635 1036.56689771 422.754910635 1046.5262297 398.606886876 c 0,9,10
 1049.83198281 390.592188924 1049.83198281 390.592188924 1052.03556073 382.130161792 c 128,-1,11
 1054.23913865 373.66813466 1054.23913865 373.66813466 1055.37152245 364.441651188 c 128,-1,12
 1056.50390625 355.215167717 1056.50390625 355.215167717 1056.50390625 345.344726562 c 0,13,14
 1056.50390625 287.869591347 1056.50390625 287.869591347 1016.22917937 247.59406281 c 128,-1,15
 975.95347594 207.318359375 975.95347594 207.318359375 918.48046875 207.318359375 c 0,16,17
 889.026897175 207.318359375 889.026897175 207.318359375 865.173831498 217.161502222 c 128,-1,18
 841.32076582 227.004645069 841.32076582 227.004645069 820.613091147 247.712731762 c 0,19,0
 779.512695312 288.051116975 779.512695312 288.051116975 779.512695312 345.344726562 c 128,-1,1
230.96875299 1199.37004637 m 0,20,21
 230.96875299 1256.42903076 230.96875299 1256.42903076 272.101285474 1297.03258432 c 0,22,23
 312.515791971 1337.1524998 312.515791971 1337.1524998 370.172379107 1337.86559131 c 0,24,25
 399.398266922 1337.92182394 399.398266922 1337.92182394 423.233363589 1327.99027436 c 128,-1,26
 447.068460257 1318.05872478 447.068460257 1318.05872478 467.574854449 1297.22959519 c 0,27,28
 507.992896903 1256.62185327 507.992896903 1256.62185327 507.959965794 1199.35304785 c 0,29,30
 507.99287658 1141.51113691 507.99287658 1141.51113691 467.836846688 1101.77191847 c 0,31,32
 457.370187963 1091.51142245 457.370187963 1091.51142245 446.127566506 1083.84723707 c 128,-1,33
 434.884945049 1076.18305169 434.884945049 1076.18305169 423.076040657 1071.13703422 c 128,-1,34
 411.105266211 1066.10668682 411.105266211 1066.10668682 398.004441054 1063.65283759 c 128,-1,35
 384.903615897 1061.19898836 384.903615897 1061.19898836 370.003184777 1061.34545339 c 0,36,37
 363.373953315 1061.31277382 363.373953315 1061.31277382 357.112278742 1061.75833888 c 128,-1,38
 350.850604169 1062.20390394 350.850604169 1062.20390394 344.854452151 1063.13678102 c 128,-1,39
 338.858300133 1064.06965809 338.858300133 1064.06965809 333.159780983 1065.50943358 c 128,-1,40
 327.461261834 1066.94920907 327.461261834 1066.94920907 321.994162928 1068.88997908 c 128,-1,41
 316.527064023 1070.8307491 316.527064023 1070.8307491 311.285285851 1073.30806939 c 128,-1,42
 306.043507679 1075.78538968 306.043507679 1075.78538968 300.999047441 1078.77738701 c 128,-1,43
 295.954587203 1081.76938434 295.954587203 1081.76938434 291.063135564 1085.32758381 c 128,-1,44
 286.171683924 1088.88578328 286.171683924 1088.88578328 281.443447908 1092.9723423 c 128,-1,45
 276.715211892 1097.05890133 276.715211892 1097.05890133 272.070060453 1101.74031627 c 0,46,47
 230.96875299 1141.70409366 230.96875299 1141.70409366 230.96875299 1199.37004637 c 0,20,21
908.568301315 1412.60328799 m 1,48,-1
 1008.53636331 1361.09951315 l 1,49,-1
 342.450547412 74.7746674292 l 1,50,-1
 242.242968696 129.841839811 l 1,51,-1
 908.568301315 1412.60328799 l 1,48,-1
EndSplineSet
EndChar

StartChar: uni066B
Encoding: 1643 1643 70
GlifName: uni066B_
Width: 822
VWidth: 2952
GlyphClass: 2
Flags: W
LayerCount: 2
Fore
SplineSet
548.374832671 778.784238997 m 1,0,-1
 624.51387345 746.462493042 l 1,1,-1
 184.210172166 -269.563127803 l 1,2,-1
 105.868558653 -235.467177776 l 1,3,-1
 548.374832671 778.784238997 l 1,0,-1
EndSplineSet
EndChar

StartChar: uni066C
Encoding: 1644 1644 71
GlifName: uni066C_
Width: 588
VWidth: 2842
GlyphClass: 2
Flags: W
LayerCount: 2
Fore
SplineSet
157.026416176 150.380127991 m 0,0,1
 157.236227686 171.301152663 157.236227686 171.301152663 161.058831426 187.859497556 c 128,-1,2
 164.881435166 204.41784245 164.881435166 204.41784245 171.812656767 216.71901839 c 0,3,4
 176.29770215 224.679274513 176.29770215 224.679274513 182.044874195 231.127106038 c 128,-1,5
 187.79204624 237.574937563 187.79204624 237.574937563 195.307838549 242.914144623 c 128,-1,6
 202.823630858 248.253351684 202.823630858 248.253351684 212.240223393 252.466031125 c 0,7,8
 242.588911705 266.043054322 242.588911705 266.043054322 290.717725186 266.182910962 c 0,9,10
 355.133473169 266.46798403 355.133473169 266.46798403 389.012191493 241.335880661 c 128,-1,11
 422.890909818 216.203777292 422.890909818 216.203777292 434.294004227 161.721959665 c 0,12,13
 447.485587907 97.4240381975 447.485587907 97.4240381975 422.708932462 -1.79318956818 c 0,14,15
 369.189877814 -206.335406768 369.189877814 -206.335406768 186.208837656 -363.892303137 c 1,16,-1
 184.319614504 -362.684666221 l 1,17,18
 340.37898547 -192.275566805 340.37898547 -192.275566805 353.439115624 -12.4249141082 c 2,19,-1
 353.961639913 -5.25900605924 l 1,20,-1
 354.201874288 -1.96310762174 l 1,21,-1
 356.604540143 31.0002958663 l 1,22,-1
 323.563158435 30.2091779479 l 1,23,-1
 320.26355281 30.1301743987 l 1,24,-1
 313.092214708 29.9594505743 l 2,25,26
 291.284417692 29.4456519663 291.284417692 29.4456519663 275.731567838 30.2636184527 c 128,-1,27
 260.178717983 31.0815849391 260.178717983 31.0815849391 253.214735469 32.7176738592 c 0,28,29
 201.617168693 43.1296489304 201.617168693 43.1296489304 179.161096921 70.6950875892 c 128,-1,30
 156.70502515 98.260526248 156.70502515 98.260526248 157.026416176 150.380127991 c 0,0,1
EndSplineSet
EndChar

StartChar: afii63167
Encoding: 1645 1645 72
GlifName: afii63167
Width: 1584
VWidth: 2952
GlyphClass: 2
Flags: W
LayerCount: 2
Fore
SplineSet
324.462145328 1008.65136719 m 1,0,-1
 662.741210938 1008.65136719 l 1,1,-1
 664.913085938 1008.65136719 l 1,2,-1
 686.626721466 1008.65136719 l 1,3,-1
 693.411123001 1029.27790019 l 1,4,-1
 694.093836958 1031.35355585 l 1,5,-1
 799.99532428 1353.78872388 l 1,6,-1
 905.902353562 1031.34137675 l 1,7,-1
 906.581064499 1029.27790019 l 1,8,-1
 913.365466034 1008.65136719 l 1,9,-1
 935.079101562 1008.65136719 l 1,10,-1
 937.250976562 1008.65136719 l 1,11,-1
 1275.52983377 1008.65136719 l 1,12,-1
 1002.15373577 808.803461571 l 1,13,-1
 1000.39885296 807.520258447 l 1,14,-1
 982.851902759 794.68960036 l 1,15,-1
 989.579287801 774.019246253 l 1,16,-1
 990.252606604 771.95042796 l 1,17,-1
 1094.69460094 451.100066519 l 1,18,-1
 819.323084556 650.083320767 l 1,19,-1
 817.566248619 651.352852017 l 1,20,-1
 799.995117193 664.05016767 l 1,21,-1
 782.423985764 651.352852022 l 1,22,-1
 780.667443262 650.083532813 l 1,23,-1
 505.298207966 451.100261033 l 1,24,-1
 609.739071599 771.951863528 l 1,25,-1
 610.411923162 774.019246341 l 1,26,-1
 617.139308125 794.689600419 l 1,27,-1
 599.592357952 807.520258462 l 1,28,-1
 597.834632174 808.805540159 l 1,29,-1
 324.462145328 1008.65136719 l 1,0,-1
EndSplineSet
EndChar

StartChar: uni066E
Encoding: 1646 1646 73
GlifName: uni066E_
Width: 1887
VWidth: 2952
GlyphClass: 2
Flags: W
AnchorPoint: "Anchor-10" 1007.36 1415.35 basechar 0
AnchorPoint: "Anchor-7" 1007.36 -257.261 basechar 0
LayerCount: 2
Fore
SplineSet
860.911132812 30 m 2,0,1
 487.257259473 30 487.257259473 30 308.671617368 134.719707557 c 128,-1,2
 130.085975263 239.439415113 130.085975263 239.439415113 130.160137469 445.905639473 c 0,3,4
 130.02260462 568.815559195 130.02260462 568.815559195 180.478784596 693.502472765 c 1,5,-1
 288.086730726 647.907426833 l 1,6,7
 276.374210855 615.478854878 276.374210855 615.478854878 268.676933636 585.858699309 c 128,-1,8
 260.979656417 556.238543741 260.979656417 556.238543741 257.134463552 528.358573158 c 128,-1,9
 253.289270687 500.478602575 253.289270687 500.478602575 253.424989634 474.465997445 c 0,10,11
 252.955289572 158.99263984 252.955289572 158.99263984 841.860520748 159.136956809 c 0,12,13
 1138.42241822 159.066581409 1138.42241822 159.066581409 1316.17397364 182.981558671 c 128,-1,14
 1493.92552905 206.896535933 1493.92552905 206.896535933 1567.23094902 260.850430836 c 0,15,16
 1586.92755745 275.187710107 1586.92755745 275.187710107 1601.63438067 294.537800415 c 128,-1,17
 1616.34120389 313.887890723 1616.34120389 313.887890723 1625.67883191 337.368878603 c 128,-1,18
 1635.01645993 360.849866484 1635.01645993 360.849866484 1639.64681406 387.773042342 c 128,-1,19
 1644.27716819 414.6962182 1644.27716819 414.6962182 1644.38009586 445.424492954 c 0,20,21
 1644.02283149 529.679187991 1644.02283149 529.679187991 1613.56918362 668.522938069 c 1,22,-1
 1724.86556082 695.856722049 l 1,23,24
 1745.25949641 629.447364953 1745.25949641 629.447364953 1755.10333771 571.047086029 c 128,-1,25
 1764.947179 512.646807104 1764.947179 512.646807104 1764.90625235 459.697102698 c 0,26,27
 1764.99381045 238.622017746 1764.99381045 238.622017746 1639.62650273 150.930373621 c 0,28,29
 1466.55728517 30 1466.55728517 30 944.356445312 30 c 2,30,-1
 860.911132812 30 l 2,0,1
EndSplineSet
Substitution2: "'init' Initial Forms in Arabic lookup 13 subtable" uni066E.init
Substitution2: "'medi' Medial Forms in Arabic lookup 11 subtable" uni066E.medi
Substitution2: "'fina' Terminal Forms in Arabic lookup 9 subtable" uni066E.fina
EndChar

StartChar: uni066F
Encoding: 1647 1647 74
GlifName: uni066F_
Width: 1511
VWidth: 2952
GlyphClass: 2
Flags: W
AnchorPoint: "Anchor-10" 121.809 1352.22 basechar 0
AnchorPoint: "Anchor-7" 335.219 -771.353 basechar 0
LayerCount: 2
Fore
SplineSet
1372.22810817 272.408242518 m 0,0,1
 1379.79233546 200.844419818 1379.79233546 200.844419818 1379.89651792 131.176817079 c 0,2,3
 1379.9965712 64.2704343951 1379.9965712 64.2704343951 1370.8642729 4.87241677068 c 0,4,5
 1335.81971428 -222.660009447 1335.81971428 -222.660009447 1182.22764195 -334.845575762 c 128,-1,6
 1028.63556961 -447.031142077 1028.63556961 -447.031142077 746.885406364 -447.060548066 c 0,7,8
 538.38215911 -447.00179714 538.38215911 -447.00179714 400.829175001 -385.743804115 c 0,9,10
 333.111279085 -355.498003187 333.111279085 -355.498003187 283.132912828 -310.618363526 c 128,-1,11
 233.154546571 -265.738723865 233.154546571 -265.738723865 199.731730429 -205.432229067 c 0,12,13
 131.958286238 -83.1661918136 131.958286238 -83.1661918136 130.957748088 102.898270991 c 0,14,15
 130.085540244 312.505553036 130.085540244 312.505553036 216.497505897 510.635384151 c 1,16,-1
 324.99458475 467.015042298 l 1,17,18
 289.449804604 373.19611533 289.449804604 373.19611533 271.4156752 291.074094538 c 0,19,20
 249.981241082 195.229762561 249.981241082 195.229762561 250.460551663 110.561736451 c 0,21,22
 251.804104895 -103.530707473 251.804104895 -103.530707473 375.999134442 -213.603932936 c 128,-1,23
 500.19416399 -323.677158399 500.19416399 -323.677158399 736.396313037 -323.326054798 c 0,24,25
 899.450059251 -322.870518698 899.450059251 -322.870518698 1014.78100639 -277.89912976 c 128,-1,26
 1130.11195353 -232.927740822 1130.11195353 -232.927740822 1195.59974212 -142.437967639 c 128,-1,27
 1261.08753071 -51.948194456 1261.08753071 -51.948194456 1272.22738185 81.7004714125 c 2,28,-1
 1272.59554591 86.1174636 l 1,29,-1
 1276.27734499 130.28928689 l 1,30,-1
 1233.90126445 117.290309436 l 1,31,-1
 1229.63647723 115.982059999 l 2,32,33
 1169.43672685 97.4524834021 1169.43672685 97.4524834021 1111.76826988 88.5180373861 c 128,-1,34
 1054.09981291 79.58359137 1054.09981291 79.58359137 998.684209657 80.1221798537 c 0,35,36
 863.072714988 80.9287282033 863.072714988 80.9287282033 798.667313972 142.252110698 c 0,37,38
 734.034198792 203.780442466 734.034198792 203.780442466 734.768028933 327.729617325 c 0,39,40
 734.986014442 364.548933498 734.986014442 364.548933498 741.879901532 408.041999535 c 0,41,42
 749.315019994 452.41598891 749.315019994 452.41598891 763.540539793 502.672091969 c 0,43,44
 790.090216324 599.359251671 790.090216324 599.359251671 850.41877342 667.733489928 c 0,45,46
 929.229766535 755.903515133 929.229766535 755.903515133 1043.85820397 754.708660925 c 0,47,48
 1063.06892657 754.50841382 1063.06892657 754.50841382 1083.36980547 749.697837293 c 128,-1,49
 1103.67068438 744.887260767 1103.67068438 744.887260767 1126.06956563 734.872088676 c 128,-1,50
 1148.46844688 724.856916585 1148.46844688 724.856916585 1171.9334274 709.756739249 c 0,51,52
 1337.65766571 602.6009492 1337.65766571 602.6009492 1372.22810817 272.408242518 c 0,0,1
1255.9135457 276.283498742 m 2,53,54
 1248.17761677 341.657645507 1248.17761677 341.657645507 1234.96185241 394.754131741 c 128,-1,55
 1221.74608806 447.850617975 1221.74608806 447.850617975 1202.62615782 489.14323603 c 0,56,57
 1140.26291985 625.573115489 1140.26291985 625.573115489 1039.69776656 625.13106555 c 0,58,59
 971.340490153 625.344816 971.340490153 625.344816 924.159871225 579.109945423 c 128,-1,60
 876.979252298 532.875074847 876.979252298 532.875074847 852.96158004 448.686182204 c 0,61,62
 845.403724426 422.074234728 845.403724426 422.074234728 841.609110428 398.669898833 c 0,63,64
 837.698794487 374.544151276 837.698794487 374.544151276 837.778250915 353.710013797 c 0,65,66
 837.742876311 324.549710612 837.742876311 324.549710612 846.270605765 300.492681136 c 128,-1,67
 854.798335219 276.43565166 854.798335219 276.43565166 870.715310477 258.841387028 c 128,-1,68
 886.632285735 241.247122396 886.632285735 241.247122396 909.405032983 229.059295929 c 128,-1,69
 932.177780231 216.871469463 932.177780231 216.871469463 960.57404287 210.69029776 c 128,-1,70
 988.97030551 204.509126057 988.97030551 204.509126057 1022.51500807 204.037556977 c 0,71,72
 1065.62805687 203.49209995 1065.62805687 203.49209995 1118.65825917 212.86188889 c 0,73,74
 1170.66965251 222.051666732 1170.66965251 222.051666732 1232.69640196 240.82196852 c 2,75,-1
 1235.10167539 241.549507583 l 1,76,-1
 1259.15775223 248.825909253 l 1,77,-1
 1256.20877965 273.78476369 l 1,78,-1
 1255.9135457 276.283498742 l 2,53,54
EndSplineSet
Substitution2: "'init' Initial Forms in Arabic lookup 13 subtable" uni066F.init
Substitution2: "'medi' Medial Forms in Arabic lookup 11 subtable" uni066F.medi
Substitution2: "'fina' Terminal Forms in Arabic lookup 9 subtable" uni066F.fina
EndChar

StartChar: uni0670
Encoding: 1648 1648 75
GlifName: uni0670
Width: -29
VWidth: 2574
GlyphClass: 4
Flags: W
AnchorPoint: "Anchor-10" 636.984 1500.61 mark 0
AnchorPoint: "Anchor-9" 636.984 1500.61 mark 0
AnchorPoint: "Anchor-1" 636.984 2087.18 basemark 0
AnchorPoint: "Anchor-1" 636.984 1500.61 mark 0
LayerCount: 2
Fore
SplineSet
608.435546875 1583.26757812 m 1,0,-1
 608.435546875 2004.51660156 l 1,1,-1
 665.533203125 2004.51660156 l 1,2,-1
 665.533203125 1583.26757812 l 1,3,-1
 608.435546875 1583.26757812 l 1,0,-1
EndSplineSet
EndChar

StartChar: uni0674
Encoding: 1652 1652 76
GlifName: uni0674
Width: 711
VWidth: 2537
GlyphClass: 2
Flags: W
LayerCount: 2
Fore
SplineSet
263.809791975 2002.35991292 m 2,0,1
 175.985024876 2070.36770145 175.985024876 2070.36770145 175.783158099 2170.48180186 c 0,2,3
 175.985369695 2253.01054806 175.985369695 2253.01054806 230.573692312 2310.6723091 c 0,4,5
 295.443456888 2379.00093265 295.443456888 2379.00093265 397.011204415 2379.0156252 c 0,6,7
 483.042068913 2379.00147335 483.042068913 2379.00147335 552.910863606 2342.52639826 c 1,8,-1
 553.443851366 2242.68793175 l 1,9,10
 471.477316661 2276.01832576 471.477316661 2276.01832576 410.999041651 2276.26175686 c 0,11,12
 388.404262537 2276.16792343 388.404262537 2276.16792343 369.017790425 2271.99413468 c 128,-1,13
 349.631318313 2267.82034593 349.631318313 2267.82034593 332.982023024 2259.16136733 c 128,-1,14
 316.332727736 2250.50238872 316.332727736 2250.50238872 303.301410612 2237.44412264 c 0,15,16
 287.24962827 2220.85937097 287.24962827 2220.85937097 279.230760083 2200.7733343 c 128,-1,17
 271.211891895 2180.68729762 271.211891895 2180.68729762 271.494042444 2157.75696735 c 0,18,19
 273.212998198 2072.25450495 273.212998198 2072.25450495 396.040447838 2029.62405521 c 0,20,21
 410.224137466 2024.74911484 410.224137466 2024.74911484 426.610472572 2026.38014727 c 0,22,23
 472.447259975 2031.7178227 472.447259975 2031.7178227 579.747070312 2050.64762752 c 1,24,-1
 579.747070312 1945.02140523 l 1,25,-1
 173.286132812 1853.76831649 l 1,26,-1
 173.286132812 1956.33748305 l 1,27,-1
 257.998468805 1975.88403968 l 1,28,-1
 288.817267075 1982.99518092 l 1,29,-1
 263.809791975 2002.35991292 l 2,0,1
EndSplineSet
EndChar

StartChar: uni06A1
Encoding: 1697 1697 80
GlifName: uni06A_1
Width: 1901
VWidth: 2952
GlyphClass: 2
Flags: W
AnchorPoint: "Anchor-10" 670.853 1630.62 basechar 0
AnchorPoint: "Anchor-7" 653.182 -352.248 basechar 0
LayerCount: 2
Fore
SplineSet
1775.28214676 454.189123117 m 0,0,1
 1775.01718215 210.799414935 1775.01718215 210.799414935 1641.2319146 118.892507178 c 0,2,3
 1512.64018104 30 1512.64018104 30 1241.20996094 30 c 2,4,-1
 859.911132812 30 l 2,5,6
 486.257259473 30 486.257259473 30 307.671617368 134.719707557 c 128,-1,7
 129.085975263 239.439415113 129.085975263 239.439415113 129.160137469 445.905639473 c 0,8,9
 129.02260462 568.815559195 129.02260462 568.815559195 179.478784596 693.502472765 c 1,10,-1
 287.236772513 647.843851954 l 1,11,12
 252.027080971 548.754587253 252.027080971 548.754587253 252.433474254 471.218592999 c 0,13,14
 252.311002019 390.640413322 252.311002019 390.640413322 292.079215656 330.87577525 c 128,-1,15
 331.847429293 271.111137178 331.847429293 271.111137178 408.993939441 233.474766676 c 128,-1,16
 486.14044959 195.838396175 486.14044959 195.838396175 594.993776796 177.498765765 c 128,-1,17
 703.847104002 159.159135356 703.847104002 159.159135356 846.149319505 159.159135356 c 0,18,19
 852.878135486 159.159135356 852.878135486 159.159135356 1250.54767895 161.473247229 c 0,20,21
 1348.98235689 162.091114013 1348.98235689 162.091114013 1424.04789445 172.658122326 c 128,-1,22
 1499.113432 183.225130638 1499.113432 183.225130638 1555.45231265 205.415581509 c 128,-1,23
 1611.79119329 227.60603238 1611.79119329 227.60603238 1641.09893111 264.739522597 c 128,-1,24
 1670.40666893 301.873012814 1670.40666893 301.873012814 1670.40666893 353.119171244 c 2,25,-1
 1669.91733133 365.789102012 l 2,26,27
 1668.90021504 379.455581043 1668.90021504 379.455581043 1667.70541434 392.679349028 c 2,28,-1
 1664.38564511 429.417944285 l 1,29,-1
 1629.09469454 418.680437274 l 2,30,31
 1568.67313517 400.296774981 1568.67313517 400.296774981 1511.07819503 391.067216347 c 128,-1,32
 1453.4832549 381.837657712 1453.4832549 381.837657712 1398.84470509 381.688518955 c 0,33,34
 1259.26292521 381.833043098 1259.26292521 381.833043098 1194.89709156 439.414925288 c 128,-1,35
 1130.53125791 496.996807478 1130.53125791 496.996807478 1130.53125791 618.509176145 c 0,36,37
 1130.53125791 639.56663272 1130.53125791 639.56663272 1132.33258222 660.141005156 c 128,-1,38
 1134.13390652 680.715377592 1134.13390652 680.715377592 1137.68570596 700.431124111 c 0,39,40
 1165.94464578 850.296149819 1165.94464578 850.296149819 1245.54122517 940.049503491 c 0,41,42
 1321.34867813 1025.80464725 1321.34867813 1025.80464725 1442.78007636 1025.80464725 c 0,43,44
 1467.02926597 1025.80464725 1467.02926597 1025.80464725 1489.11301551 1021.79901695 c 128,-1,45
 1511.19676504 1017.79338665 1511.19676504 1017.79338665 1531.21797298 1009.83821624 c 128,-1,46
 1551.23918092 1001.88304583 1551.23918092 1001.88304583 1569.76870796 989.846789029 c 0,47,48
 1609.94361136 964.035180079 1609.94361136 964.035180079 1642.40142389 925.757340808 c 128,-1,49
 1674.85923641 887.479501537 1674.85923641 887.479501537 1699.9716768 835.96351474 c 128,-1,50
 1725.08411718 784.447527943 1725.08411718 784.447527943 1742.20500938 718.716803763 c 128,-1,51
 1759.32590158 652.986079583 1759.32590158 652.986079583 1768.06886877 573.842160931 c 0,52,53
 1775.00797918 510.293865976 1775.00797918 510.293865976 1775.28214676 454.189123117 c 0,0,1
1234.58037297 650.308490426 m 0,54,55
 1234.84207547 578.985102758 1234.84207547 578.985102758 1285.08541377 542.403593349 c 128,-1,56
 1335.32875206 505.82208394 1335.32875206 505.82208394 1421.84776305 505.603328103 c 0,57,58
 1506.44893588 506.02163064 1506.44893588 506.02163064 1630.82329548 543.097893987 c 2,59,-1
 1655.11713682 550.339940194 l 1,60,-1
 1652.02958657 575.501517922 l 2,61,62
 1649.09056704 599.452664417 1649.09056704 599.452664417 1645.21909985 621.933430525 c 128,-1,63
 1641.34763267 644.414196632 1641.34763267 644.414196632 1636.48748889 665.639619238 c 128,-1,64
 1631.62734511 686.865041843 1631.62734511 686.865041843 1625.80953438 706.611025718 c 128,-1,65
 1619.99172365 726.357009592 1619.99172365 726.357009592 1613.14568363 744.800009557 c 128,-1,66
 1606.2996436 763.243009522 1606.2996436 763.243009522 1598.47071732 780.197512412 c 0,67,68
 1541.34528939 905.94920381 1541.34528939 905.94920381 1435.52881089 906.227621058 c 0,69,70
 1401.87149706 906.157694852 1401.87149706 906.157694852 1372.7836608 894.023179631 c 128,-1,71
 1343.69582454 881.88866441 1343.69582454 881.88866441 1320.48867572 858.859433691 c 128,-1,72
 1297.28152689 835.830202971 1297.28152689 835.830202971 1279.23068963 803.783979484 c 128,-1,73
 1261.17985236 771.737755996 1261.17985236 771.737755996 1248.02799155 730.590179138 c 0,74,75
 1243.72024131 716.686449181 1243.72024131 716.686449181 1240.79807534 703.2531068 c 128,-1,76
 1237.87590938 689.819764419 1237.87590938 689.819764419 1236.30846045 676.548457754 c 128,-1,77
 1234.74101151 663.277151089 1234.74101151 663.277151089 1234.58037297 650.308490426 c 0,54,55
EndSplineSet
Substitution2: "'init' Initial Forms in Arabic lookup 13 subtable" uni06A1.init
Substitution2: "'medi' Medial Forms in Arabic lookup 11 subtable" uni06A1.medi
Substitution2: "'fina' Terminal Forms in Arabic lookup 9 subtable" uni06A1.fina
EndChar

StartChar: uni06A9
Encoding: 1705 1705 81
GlifName: uni06A_9
Width: 1948
VWidth: 2952
GlyphClass: 2
Flags: W
AnchorPoint: "Anchor-7" 750.268 -236.468 basechar 0
AnchorPoint: "Anchor-10" 743.878 1374.89 basechar 0
LayerCount: 2
Fore
SplineSet
862.553710938 30 m 2,0,1
 487.565176708 30 487.565176708 30 308.325582759 134.738565337 c 128,-1,2
 129.08598881 239.477130674 129.08598881 239.477130674 129.160137469 445.905639473 c 0,3,4
 129.02260462 568.815559195 129.02260462 568.815559195 179.478784596 693.502472765 c 1,5,-1
 287.236772513 647.843851954 l 1,6,7
 269.482484135 597.878649091 269.482484135 597.878649091 260.854192966 554.350187355 c 128,-1,8
 252.225901797 510.821725619 252.225901797 510.821725619 252.434055649 471.107939661 c 0,9,10
 253.320259589 311.409459251 253.320259589 311.409459251 410.048240198 235.201311657 c 128,-1,11
 566.776220807 158.993164062 566.776220807 158.993164062 862.553710938 158.993164062 c 2,12,-1
 1123.27492077 158.993164066 l 2,13,14
 1558.12644677 159.000508841 1558.12644677 159.000508841 1557.21672329 375.184610409 c 0,15,16
 1556.97128026 485.999925517 1556.97128026 485.999925517 1444.1282467 592.076727931 c 0,17,18
 1283.48020483 740.848169542 1283.48020483 740.848169542 1168.93918139 830.65829681 c 0,19,20
 1066.92099795 909.761540304 1066.92099795 909.761540304 1066.41048463 1004.6552148 c 0,21,22
 1066.06687009 1056.92624964 1066.06687009 1056.92624964 1097.09207893 1097.47184996 c 0,23,24
 1103.52478407 1105.87602372 1103.52478407 1105.87602372 1110.89264773 1113.4768088 c 128,-1,25
 1118.2605114 1121.07759388 1118.2605114 1121.07759388 1126.75212583 1128.02057953 c 128,-1,26
 1135.24374026 1134.96356519 1135.24374026 1134.96356519 1144.77098183 1141.12542409 c 128,-1,27
 1154.29822341 1147.28728299 1154.29822341 1147.28728299 1165.04649062 1152.76577148 c 128,-1,28
 1175.79475784 1158.24425998 1175.79475784 1158.24425998 1187.67912083 1162.96388365 c 2,29,-1
 1859.86328125 1429.90762117 l 1,30,-1
 1859.86328125 1299.94922099 l 1,31,-1
 1189.93780367 1038.17134293 l 1,32,-1
 1185.11282748 1036.07523775 l 1,33,-1
 1140.58830881 1016.73253628 l 1,34,-1
 1177.80294193 985.561332501 l 2,35,36
 1307.46440226 876.956102145 1307.46440226 876.956102145 1402.57111222 790.132023655 c 128,-1,37
 1497.67782217 703.307945165 1497.67782217 703.307945165 1557.24952202 639.27585219 c 0,38,39
 1678.8403967 507.450206389 1678.8403967 507.450206389 1676.71386115 350.848319313 c 0,40,41
 1674.69047533 245.19819072 1674.69047533 245.19819072 1616.60547167 174.759097374 c 128,-1,42
 1558.52046801 104.320004027 1558.52046801 104.320004027 1435.61048064 67.1600020136 c 128,-1,43
 1312.70049326 30 1312.70049326 30 1124.10449219 30 c 2,44,-1
 862.553710938 30 l 2,0,1
EndSplineSet
Substitution2: "'init' Initial Forms in Arabic lookup 13 subtable" uniFB90
Substitution2: "'medi' Medial Forms in Arabic lookup 11 subtable" uniFB91
Substitution2: "'fina' Terminal Forms in Arabic lookup 9 subtable" uniFB8F
EndChar

StartChar: afii57514
Encoding: 1722 1722 83
GlifName: afii57514
Width: 1475
VWidth: 2952
GlyphClass: 2
Flags: W
AnchorPoint: "Anchor-10" 727.479 1187.75 basechar 0
AnchorPoint: "Anchor-7" 758.023 -733.042 basechar 0
LayerCount: 2
Fore
SplineSet
716.535356465 -319.695150797 m 0,0,1
 964.173159662 -318.812359153 964.173159662 -318.812359153 1092.85813777 -198.675923152 c 128,-1,2
 1221.54311588 -78.5394871508 1221.54311588 -78.5394871508 1221.03710882 153.435498846 c 0,3,4
 1221.00177056 335.862719079 1221.00177056 335.862719079 1142.22449131 512.712304101 c 1,5,-1
 1256.78526471 552.738137495 l 1,6,7
 1341.97255179 330.341307012 1341.97255179 330.341307012 1341.67891689 152.277178104 c 0,8,9
 1341.02541933 -24.0844177184 1341.02541933 -24.0844177184 1277.38869431 -155.893421883 c 0,10,11
 1136.29953032 -443.976254778 1136.29953032 -443.976254778 707.042958262 -443.43164831 c 0,12,13
 415.395323511 -443.222887975 415.395323511 -443.222887975 274.502556851 -312.528904158 c 128,-1,14
 133.60979019 -181.83492034 133.60979019 -181.83492034 133.249979415 86.6288942137 c 0,15,16
 133.021363232 281.781382852 133.021363232 281.781382852 220.066879569 504.432230572 c 1,17,-1
 327.414577783 461.273962521 l 1,18,19
 289.550784462 359.857942606 289.550784462 359.857942606 270.96906463 266.360775748 c 128,-1,20
 252.387344798 172.863608889 252.387344798 172.863608889 252.753465243 84.878360332 c 0,21,22
 253.948574497 -115.128704808 253.948574497 -115.128704808 372.732464589 -217.752162649 c 128,-1,23
 491.516354681 -320.37562049 491.516354681 -320.37562049 716.535356465 -319.695150797 c 0,0,1
EndSplineSet
Substitution2: "'init' Initial Forms in Arabic lookup 13 subtable" uni06BA.init
Substitution2: "'medi' Medial Forms in Arabic lookup 11 subtable" uni06BA.medi
Substitution2: "'fina' Terminal Forms in Arabic lookup 9 subtable" uniFB9F
EndChar

StartChar: uni06F4
Encoding: 1780 1780 90
GlifName: uni06F_4
Width: 1244
VWidth: 2952
GlyphClass: 2
Flags: W
LayerCount: 2
Fore
SplineSet
1051.02739489 1362.82688027 m 1,0,-1
 1022.25372597 1247.45902236 l 1,1,2
 955 1269 955 1269 862.392724174 1268.99842324 c 0,3,4
 770 1269 770 1269 701.076435981 1218.25559825 c 0,5,6
 571 1122 571 1122 554.821516127 970.272435737 c 0,7,8
 548 905 548 905 651.652096021 851.052225266 c 0,9,10
 729 811 729 811 855.005214803 810.991104966 c 128,-1,11
 981 811 981 811 1093.36725497 849.264942894 c 1,12,-1
 1108.67481192 734.666215806 l 1,13,14
 999 691 999 691 876.25748689 691.181657361 c 0,15,16
 579 692 579 692 440.29589076 906.851360367 c 1,17,-1
 457.014741836 791.167221855 l 2,18,19
 489.115234375 568.199590611 489.115234375 568.199590611 489.115234375 308.771484375 c 2,20,-1
 489.115234375 41.5537109375 l 1,21,-1
 364.796387315 41.5537109375 l 1,22,-1
 364.791990703 311.908529325 l 2,23,24
 365 954 365 954 186.473448323 1340.43191962 c 1,25,-1
 295.562817913 1377.75304096 l 1,26,27
 387 1117 387 1117 411.2476945 1046.84968468 c 2,28,-1
 433 985 l 1,29,-1
 444.434570312 1028.26464844 l 6,30,31
 518 1306 518 1306 727.695575673 1379.1625612 c 0,32,33
 787 1400 787 1400 873.312914418 1399.38384049 c 0,34,35
 959 1399 959 1399 1051.02739489 1362.82688027 c 1,0,-1
EndSplineSet
EndChar

StartChar: uni06F5
Encoding: 1781 1781 91
GlifName: uni06F_5
Width: 1328
VWidth: 2952
GlyphClass: 2
Flags: W
LayerCount: 2
Fore
SplineSet
253.96581988 339.408319611 m 0,0,1
 253.96581988 260.024940393 253.96581988 260.024940393 291.049764187 213.982457954 c 128,-1,2
 328.133708495 167.939975514 328.133708495 167.939975514 398.082918025 167.844743775 c 0,3,4
 561.396417758 168.019689517 561.396417758 168.019689517 633.804634969 482.56255804 c 1,5,-1
 708.912076821 482.49883316 l 1,6,7
 769.112152436 163.990142778 769.112152436 163.990142778 939.234180081 164.079110117 c 0,8,9
 1005.75782047 164.028871766 1005.75782047 164.028871766 1039.87417431 211.513540079 c 128,-1,10
 1073.99052814 258.998208393 1073.99052814 258.998208393 1073.97877209 339.67411907 c 0,11,12
 1074.00081118 676.392420177 1074.00081118 676.392420177 650.25322392 1101.74341981 c 2,13,-1
 625.93443412 1126.15422912 l 1,14,-1
 605.103149393 1098.70703026 l 2,15,16
 253.96581988 636.050202412 253.96581988 636.050202412 253.96581988 339.408319611 c 0,0,1
383.446995866 41.9833985087 m 0,17,18
 258.644062576 41.9833985087 258.644062576 41.9833985087 198.885879044 113.304433956 c 128,-1,19
 139.127695512 184.625469404 139.127695512 184.625469404 139.242180465 339.365270928 c 0,20,21
 139.006946523 682.866583577 139.006946523 682.866583577 517.87596931 1191.64676803 c 2,22,-1
 519.476555247 1193.7961821 l 1,23,-1
 535.486441598 1215.2957306 l 1,24,-1
 515.917272019 1233.61497318 l 1,25,-1
 513.959364589 1235.44782462 l 1,26,-1
 480.17572271 1267.07109326 l 1,27,-1
 566.215224938 1372.20899696 l 1,28,-1
 667.858825805 1275.78688993 l 1,29,30
 1189.44199935 762.972970167 1189.44199935 762.972970167 1189.44199935 349.279189585 c 0,31,32
 1189.33716076 189.115351891 1189.33716076 189.115351891 1131.48049132 115.542120025 c 128,-1,33
 1073.62382187 41.9688881582 1073.62382187 41.9688881582 954.318138828 41.9433581513 c 0,34,35
 894.782882143 41.9603624449 894.782882143 41.9603624449 847.713622619 64.182916671 c 128,-1,36
 800.644363096 86.405470897 800.644363096 86.405470897 763.693871659 133.451573312 c 128,-1,37
 726.743380221 180.497675728 726.743380221 180.497675728 700.455422629 253.438239996 c 2,38,-1
 671.072285788 334.966923756 l 1,39,-1
 643.761124842 252.720978604 l 2,40,41
 607.80728017 144.448102811 607.80728017 144.448102811 543.834892877 93.2157506599 c 128,-1,42
 479.862505583 41.9833985087 479.862505583 41.9833985087 383.446995866 41.9833985087 c 0,17,18
EndSplineSet
EndChar

StartChar: uni06F6
Encoding: 1782 1782 92
GlifName: uni06F_6
Width: 1104
VWidth: 2952
GlyphClass: 2
Flags: W
LayerCount: 2
Fore
SplineSet
726.884268258 1257.16067194 m 1,0,1
 684.906850245 1260.11364275 684.906850245 1260.11364275 637.749481493 1260.46609276 c 0,2,3
 432.485838033 1259.96724545 432.485838033 1259.96724545 346.558760502 1163.15761166 c 0,4,5
 282.061290742 1090.45872639 282.061290742 1090.45872639 281.594574085 1003.81812101 c 0,6,7
 281.689781914 953.364854 281.689781914 953.364854 299.888342013 913.069296638 c 128,-1,8
 318.086902111 872.773739276 318.086902111 872.773739276 352.243908455 843.988607959 c 128,-1,9
 386.400914799 815.203476641 386.400914799 815.203476641 436.485852509 796.016760669 c 128,-1,10
 486.57079022 776.830044697 486.57079022 776.830044697 549.367699107 767.661756289 c 128,-1,11
 612.164607994 758.493467881 612.164607994 758.493467881 688.714027345 758.36430052 c 2,12,-1
 692.149707028 758.35850325 l 1,13,-1
 695.497742891 759.129596208 l 1,14,-1
 696.812196015 759.432330584 l 1,15,-1
 700.812557303 760.35366194 l 1,16,-1
 704.418356596 762.31579174 l 2,17,18
 782.496993694 804.803020824 782.496993694 804.803020824 843.564887443 836.256686009 c 128,-1,19
 904.632781192 867.710351193 904.632781192 867.710351193 945.71392585 886.679437136 c 1,20,-1
 950.756871838 764.409327292 l 1,21,22
 539.047292683 568.248935372 539.047292683 568.248935372 301.337948113 8.89412688987 c 1,23,-1
 188.891638786 46.5544432818 l 1,24,25
 340.7744912 412.175127808 340.7744912 412.175127808 545.71689561 614.312004091 c 2,26,-1
 591.42006722 659.389529028 l 1,27,-1
 527.521564891 665.533188342 l 2,28,29
 399.756125061 677.817472102 399.756125061 677.817472102 317.510999948 719.857692396 c 128,-1,30
 235.265874834 761.89791269 235.265874834 761.89791269 196.200193638 833.414480172 c 128,-1,31
 157.134512442 904.931047654 157.134512442 904.931047654 157.644539029 1008.77877232 c 0,32,33
 157.974069852 1096.07426224 157.974069852 1096.07426224 193.3516539 1169.24221305 c 0,34,35
 301.579593607 1387.90806539 301.579593607 1387.90806539 605.859093078 1386.40840472 c 0,36,37
 670.608004753 1386.07812355 670.608004753 1386.07812355 744.31813616 1376.66695019 c 1,38,-1
 726.884268258 1257.16067194 l 1,0,1
EndSplineSet
EndChar

StartChar: uniFB57
Encoding: 64343 64343 97
GlifName: uniF_B_57
Width: 1981
VWidth: 2703
GlyphClass: 2
Flags: W
AnchorPoint: "Anchor-10" 943.021 1374.3 basechar 0
AnchorPoint: "Anchor-7" 919.158 -928.082 basechar 0
LayerCount: 2
Fore
SplineSet
1096 -862 m 1048
EndSplineSet
Refer: 267 -1 N 1.07 0 0 1.07 655.972 -425.637 2
Refer: 268 -1 N 1 0 0 1 0 0 2
EndChar

StartChar: uniFB8F
Encoding: 64399 64399 107
GlifName: uniF_B_8F_
Width: 2004
VWidth: 2952
GlyphClass: 2
Flags: W
AnchorPoint: "Anchor-10" 743.878 1374.89 basechar 0
AnchorPoint: "Anchor-7" 750.268 -236.468 basechar 0
LayerCount: 2
Fore
SplineSet
860.911132812 30 m 2,0,1
 486.752922104 30 486.752922104 30 307.919451489 134.727517412 c 128,-1,2
 129.085980873 239.455034824 129.085980873 239.455034824 129.160137469 445.905639473 c 0,3,4
 129.02260462 568.815559195 129.02260462 568.815559195 179.478784596 693.502472765 c 1,5,-1
 287.236772513 647.843851954 l 1,6,7
 269.482484135 597.878649091 269.482484135 597.878649091 260.854192966 554.350187355 c 128,-1,8
 252.225901797 510.821725619 252.225901797 510.821725619 252.434055649 471.107939661 c 0,9,10
 253.320079225 311.441961725 253.320079225 311.441961725 409.637768732 235.217562893 c 128,-1,11
 565.955458239 158.993164062 565.955458239 158.993164062 860.911132812 158.993164062 c 2,12,-1
 1122.63234435 158.993164066 l 2,13,14
 1555.90756323 159.000506843 1555.90756323 159.000506843 1556.57393492 374.987666748 c 0,15,16
 1557.05672413 485.974926686 1557.05672413 485.974926686 1443.44770523 592.111802008 c 0,17,18
 1283.4740427 740.857363944 1283.4740427 740.857363944 1168.32601924 830.635191527 c 0,19,20
 1115.73744213 871.745419207 1115.73744213 871.745419207 1090.80253763 914.90305638 c 128,-1,21
 1065.86763312 958.060693553 1065.86763312 958.060693553 1065.76867315 1004.43450777 c 0,22,23
 1065.9613509 1056.50059093 1065.9613509 1056.50059093 1096.44883008 1097.47054829 c 0,24,25
 1107.89279041 1112.04115848 1107.89279041 1112.04115848 1121.4280311 1123.92895693 c 128,-1,26
 1134.9632718 1135.81675538 1134.9632718 1135.81675538 1151.25213993 1145.51919967 c 128,-1,27
 1167.54100806 1155.22164397 1167.54100806 1155.22164397 1187.03654271 1162.96388365 c 2,28,-1
 1859.22070312 1429.90762117 l 1,29,-1
 1859.22070312 1299.94922099 l 1,30,-1
 1189.29522554 1038.17134293 l 1,31,-1
 1184.47024935 1036.07523775 l 1,32,-1
 1139.88541253 1016.70633238 l 1,33,-1
 1177.18821659 985.538031506 l 2,34,35
 1437.28826159 768.211836747 1437.28826159 768.211836747 1556.62028373 639.261562806 c 0,36,37
 1594.51083619 598.411630874 1594.51083619 598.411630874 1625.30045552 544.887342998 c 128,-1,38
 1656.09007485 491.363055122 1656.09007485 491.363055122 1679.66219006 424.814189083 c 0,39,40
 1726.09008734 295.203597869 1726.09008734 295.203597869 1805.80173574 227.098380965 c 128,-1,41
 1885.51338413 158.993164062 1885.51338413 158.993164062 1995.76367188 158.993164062 c 2,42,-1
 1998.56305889 158.993164062 l 1,43,44
 2000.321589 150.326743337 2000.321589 150.326743337 2001.24770856 137.481425394 c 128,-1,45
 2002.17382812 124.636107452 2002.17382812 124.636107452 2002.17382812 107.174804688 c 2,46,-1
 2002.17388624 88.363742502 l 2,47,48
 2002.09723872 49.4267964998 2002.09723872 49.4267964998 1998.09320765 30 c 1,49,-1
 1995.65722656 30 l 2,50,51
 1899.14495285 30 1899.14495285 30 1821.17472434 70.6811440824 c 128,-1,52
 1743.20449583 111.362288165 1743.20449583 111.362288165 1680.87751971 194.734210364 c 2,53,-1
 1655.01545617 229.328700322 l 1,54,-1
 1631.62794512 193.015487947 l 2,55,56
 1597.99960249 140.801588604 1597.99960249 140.801588604 1532.41896359 104.88571939 c 128,-1,57
 1466.83832468 68.9698501767 1466.83832468 68.9698501767 1363.57635511 49.4849250884 c 128,-1,58
 1260.31438553 30 1260.31438553 30 1123.46191406 30 c 2,59,-1
 860.911132812 30 l 2,0,1
EndSplineSet
EndChar

StartChar: uniFB9F
Encoding: 64415 64415 115
GlifName: uniF_B_9F_
Width: 1549
VWidth: 2952
GlyphClass: 2
Flags: W
AnchorPoint: "Anchor-10" 703.458 1366.61 basechar 0
AnchorPoint: "Anchor-7" 595.902 -800.086 basechar 0
LayerCount: 2
Fore
SplineSet
1339.92061785 56.254151641 m 2,0,1
 1339.04577008 -72.1785149251 1339.04577008 -72.1785149251 1276.78028364 -204.092171432 c 0,2,3
 1136.13192313 -496.988414813 1136.13192313 -496.988414813 707.316365609 -496.724856893 c 0,4,5
 414.638940113 -496.857890252 414.638940113 -496.857890252 273.255337726 -364.294439123 c 128,-1,6
 131.871735339 -231.730987994 131.871735339 -231.730987994 131.753292248 41.0080322825 c 0,7,8
 131.978887747 228.441106363 131.978887747 228.441106363 219.62913146 451.117359099 c 1,9,-1
 326.953677325 407.969823238 l 1,10,11
 252.009161294 207.223822146 252.009161294 207.223822146 252.268671801 42.8808143135 c 0,12,13
 252.126152436 -161.807581799 252.126152436 -161.807581799 370.394740109 -267.45240706 c 128,-1,14
 488.663327782 -373.097232321 488.663327782 -373.097232321 714.413417941 -373.203454275 c 0,15,16
 962.631713454 -373.097491588 962.631713454 -373.097491588 1091.71022184 -252.438085468 c 128,-1,17
 1220.78873023 -131.778679348 1220.78873023 -131.778679348 1220.55496895 101.91238209 c 0,18,19
 1220.9788821 277.230008688 1220.9788821 277.230008688 1141.69527933 454.40181101 c 1,20,-1
 1254.07890436 493.666310828 l 1,21,-1
 1317.73967568 298.800904528 l 2,22,23
 1329.03893121 264.061270625 1329.03893121 264.061270625 1349.5062179 237.550510141 c 128,-1,24
 1369.97350459 211.039749657 1369.97350459 211.039749657 1398.24761357 193.765575943 c 128,-1,25
 1426.52172254 176.49140223 1426.52172254 176.49140223 1461.88752737 167.745212833 c 128,-1,26
 1497.25333221 158.999023437 1497.25333221 158.999023437 1539.02050781 158.999023438 c 2,27,-1
 1544.89964239 158.999023438 l 1,28,29
 1548.21875 142.75139325 1548.21875 142.75139325 1548.21875 111.889648438 c 2,30,-1
 1548.21884203 88.38583401 l 2,31,32
 1548.12236963 49.4389782946 1548.12236963 49.4389782946 1544.11442637 30 c 1,33,34
 1440.96644847 30 1440.96644847 30 1390.56763289 77.8138123627 c 2,35,-1
 1340.3917302 125.416145249 l 1,36,-1
 1339.92061785 56.254151641 l 2,0,1
EndSplineSet
EndChar

StartChar: uniFBE8
Encoding: 64488 64488 118
GlifName: uniF_B_E_8
Width: 646
VWidth: 2952
GlyphClass: 2
Flags: W
AnchorPoint: "Anchor-10" 311.384 1353 basechar 0
AnchorPoint: "Anchor-7" 303.422 -223.625 basechar 0
LayerCount: 2
Fore
SplineSet
68.673828125 30 m 2,0,-1
 -6.9384765625 30 l 2,1,2
 -25.217555692 30 -25.217555692 30 -35.0841874028 34.6597706424 c 128,-1,3
 -44.9508191136 39.3195412849 -44.9508191136 39.3195412849 -49.864569713 51.9473147259 c 128,-1,4
 -54.7783203125 64.575088167 -54.7783203125 64.575088167 -54.7783203125 88.3134765625 c 2,5,-1
 -54.7784304125 107.258035039 l 2,6,7
 -54.8617094304 137.996797483 -54.8617094304 137.996797483 -44.8492333804 148.494980773 c 128,-1,8
 -34.8367573304 158.993164062 -34.8367573304 158.993164062 -6.9384765625 158.993164062 c 2,9,-1
 68.6858822632 158.993164091 l 2,10,11
 232.933464169 159.000346915 232.933464169 159.000346915 296.517734614 195.15537645 c 0,12,13
 347.205480386 224.72255236 347.205480386 224.72255236 372.153010638 278.268301556 c 128,-1,14
 397.100540891 331.814050753 397.100540891 331.814050753 397.221548157 405.037408911 c 0,15,16
 397.015954499 515.458982576 397.015954499 515.458982576 366.514563465 647.626429616 c 1,17,-1
 476.860447548 674.726132725 l 1,18,19
 516.026717245 537.489502896 516.026717245 537.489502896 516.22331023 408.357130879 c 0,20,21
 516.014716959 195.063271287 516.014716959 195.063271287 395.541199849 105.232296221 c 0,22,23
 295.017072673 30 295.017072673 30 68.673828125 30 c 2,0,-1
EndSplineSet
EndChar

StartChar: uniFBE9
Encoding: 64489 64489 119
GlifName: uniF_B_E_9
Width: 717
VWidth: 2952
GlyphClass: 2
Flags: W
AnchorPoint: "Anchor-10" 315.665 1297.09 basechar 0
AnchorPoint: "Anchor-7" 350.537 -177.742 basechar 0
LayerCount: 2
Fore
SplineSet
714.731445312 88.3408203125 m 2,0,1
 714.731445312 49.020889585 714.731445312 49.020889585 710.73750178 30.0163821106 c 5,2,3
 514 32 514 32 446.084875866 198.395366639 c 5,4,5
 347 30 347 30 95.759765625 30 c 2,6,-1
 -8.1171875 30 l 2,7,8
 -34.385239927 30 -34.385239927 30 -44.5817801197 41.7484964588 c 128,-1,9
 -54.7783203125 53.4969929177 -54.7783203125 53.4969929177 -54.7783203125 88.3134765625 c 2,10,-1
 -54.7784304388 107.267810366 l 2,11,12
 -54.862099077 138.146698039 -54.862099077 138.146698039 -45.0706466756 148.56993105 c 128,-1,13
 -35.2791942743 158.993164062 -35.2791942743 158.993164062 -8.1171875 158.993164062 c 2,14,-1
 91.0135831454 158.993164075 l 2,15,16
 346.762887883 159.00073283 346.762887883 159.00073283 376.030379744 310.617329658 c 0,17,18
 382.9833005 348.154887144 382.9833005 348.154887144 383.293409574 399.299593442 c 0,19,20
 382.985278884 435.873719455 382.985278884 435.873719455 379.917453602 475.969355547 c 2,21,-1
 376.498053854 520.659973606 l 1,22,-1
 481.92498696 539.433691586 l 1,23,-1
 495.484228689 361.276709903 l 2,24,25
 502.967377317 265.247713389 502.967377317 265.247713389 558.764563584 212.987730927 c 128,-1,26
 614.561749851 160.727748465 614.561749851 160.727748465 710.596382382 159.038709045 c 1,27,28
 712.603849948 149.248832684 712.603849948 149.248832684 713.66764763 134.143331243 c 128,-1,29
 714.731445312 119.037829803 714.731445312 119.037829803 714.731445312 98.322265625 c 2,30,-1
 714.731445312 88.3408203125 l 2,0,1
EndSplineSet
EndChar

StartChar: uniFE73
Encoding: 65139 65139 127
GlifName: uniF_E_73
Width: 742
VWidth: 2952
GlyphClass: 2
Flags: W
AnchorPoint: "Anchor-10" 274.943 1718.47 basechar 0
AnchorPoint: "Anchor-7" 274.943 -172.304 basechar 0
LayerCount: 2
Fore
SplineSet
341.428393325 432.69140625 m 1,0,1
 345.48377264 390.328328755 345.48377264 390.328328755 363.786797005 350.804206088 c 0,2,3
 386.698941134 301.324668834 386.698941134 301.324668834 431.642037133 256.383704657 c 0,4,5
 453.385340101 234.635929369 453.385340101 234.635929369 481.109185232 218.487022946 c 0,6,7
 508.298915265 202.645185622 508.298915265 202.645185622 541.08659435 192.267394306 c 0,8,9
 546.43232591 190.575540391 546.43232591 190.575540391 551.922979043 189.028545838 c 128,-1,10
 557.413632176 187.481551285 557.413632176 187.481551285 563.016424778 186.086790159 c 128,-1,11
 568.619217379 184.692029034 568.619217379 184.692029034 574.370761732 183.438555027 c 0,12,13
 591.513403328 179.703818162 591.513403328 179.703818162 609.961644634 177.228238482 c 0,14,15
 646.381598748 172.342773438 646.381598748 172.342773438 688.00390625 172.342773438 c 2,16,-1
 728.674804688 172.342773438 l 1,17,-1
 728.674804688 41.5537109375 l 1,18,-1
 608.006835938 41.5537109375 l 2,19,20
 429.815985293 41.5537109375 429.815985293 41.5537109375 316.044347969 155.324441715 c 0,21,22
 211.401447355 259.968228734 211.401447355 259.968228734 209.574217983 432.69140625 c 1,23,-1
 341.428393325 432.69140625 l 1,0,1
EndSplineSet
EndChar

StartChar: uniFE8E
Encoding: 65166 65166 153
GlifName: uniF_E_8E_
Width: 561
VWidth: 2952
GlyphClass: 2
Flags: W
AnchorPoint: "Anchor-10" 256.697 1633.11 basechar 0
AnchorPoint: "Anchor-7" 316.078 -239.903 basechar 0
LayerCount: 2
Fore
SplineSet
558.618164062 88.0758493082 m 2,0,1
 559.22791222 49.1079864887 559.22791222 49.1079864887 555.312919699 30 c 1,2,-1
 547.658203125 30 l 2,3,4
 367.937056259 30 367.937056259 30 281.110129692 129.269021557 c 128,-1,5
 194.283203125 228.538043114 194.283203125 228.538043114 194.283203125 438.395507812 c 2,6,-1
 194.283203125 1438.171875 l 1,7,-1
 313.598632812 1438.171875 l 1,8,-1
 313.59867103 440.402309088 l 2,9,10
 313.740733916 351.402158059 313.740733916 351.402158059 340.20153376 288.736277388 c 128,-1,11
 366.662333605 226.070396718 366.662333605 226.070396718 419.999623272 192.53178039 c 128,-1,12
 473.33691294 158.993164062 473.33691294 158.993164062 550.712890625 158.993164062 c 2,13,-1
 555.006761624 158.993164062 l 1,14,15
 558.618164062 141.197987291 558.618164062 141.197987291 558.618164062 107.174804688 c 2,16,-1
 558.618164062 88.0758493082 l 2,0,1
EndSplineSet
EndChar

StartChar: uniFEA2
Encoding: 65186 65186 173
GlifName: uniF_E_A_2
Width: 1366
VWidth: 2952
GlyphClass: 2
Flags: W
AnchorPoint: "Anchor-10" 633.478 1366.07 basechar 0
AnchorPoint: "Anchor-7" 536.833 -922.619 basechar 0
LayerCount: 2
Fore
SplineSet
1225.8307663 639.023387173 m 1,0,-1
 1216.84861819 514.715884736 l 1,1,2
 1126.94884561 507.217231619 1126.94884561 507.217231619 1045.6900626 496.077476594 c 2,3,-1
 1019.76464844 492.523365247 l 1,4,-1
 1019.76464844 466.35546875 l 1,5,-1
 1019.76465966 458.110773908 l 2,6,7
 1019.84966058 359.824311057 1019.84966058 359.824311057 1058.41920176 292.429340025 c 128,-1,8
 1096.98874293 225.034368993 1096.98874293 225.034368993 1170.87117698 191.551963437 c 128,-1,9
 1244.75361103 158.069557881 1244.75361103 158.069557881 1350.90083168 159.062836811 c 2,10,-1
 1360.63864878 159.153959013 l 1,11,12
 1363.97851562 142.759681745 1363.97851562 142.759681745 1363.97851562 111.889648438 c 2,13,-1
 1363.97851651 88.3042250538 l 2,14,15
 1363.98807777 49.0026542008 1363.98807777 49.0026542008 1359.99374206 30 c 1,16,-1
 1351.49511719 30 l 2,17,18
 1206.23302731 30 1206.23302731 30 1112.22337319 73.0382157151 c 128,-1,19
 1018.21371908 116.07643143 1018.21371908 116.07643143 972.374438447 203.056920454 c 128,-1,20
 926.535157813 290.037409478 926.535157813 290.037409478 926.192284665 424.078691878 c 2,21,-1
 926.162011228 435.913652815 l 1,22,-1
 926.063747951 474.328254853 l 1,23,-1
 888.817907493 464.924071 l 2,24,25
 571.60785855 384.831862485 571.60785855 384.831862485 408.362600251 231.022009098 c 128,-1,26
 245.117341953 77.2121557121 245.117341953 77.2121557121 245.249030281 -149.282471948 c 0,27,28
 245.221935578 -189.398145476 245.221935578 -189.398145476 251.196177268 -225.641809805 c 128,-1,29
 257.170418958 -261.885474134 257.170418958 -261.885474134 268.992653818 -293.787781236 c 128,-1,30
 280.814888679 -325.690088338 280.814888679 -325.690088338 298.352528544 -353.713538768 c 128,-1,31
 315.890168409 -381.736989199 315.890168409 -381.736989199 339.047152123 -405.524054027 c 128,-1,32
 362.204135837 -429.311118855 362.204135837 -429.311118855 390.786774363 -449.205024932 c 128,-1,33
 419.36941289 -469.098931009 419.36941289 -469.098931009 453.342745944 -484.861423109 c 128,-1,34
 487.316078998 -500.623915208 487.316078998 -500.623915208 526.425316672 -512.478946477 c 128,-1,35
 565.534554345 -524.333977746 565.534554345 -524.333977746 609.805837226 -532.162566662 c 128,-1,36
 654.077120106 -539.991155579 654.077120106 -539.991155579 703.194557413 -543.897981585 c 128,-1,37
 752.31199472 -547.804807592 752.31199472 -547.804807592 806.359009109 -547.782708263 c 0,38,39
 1028.92950567 -547.987091894 1028.92950567 -547.987091894 1221.36176862 -465.200632599 c 1,40,-1
 1245.30807338 -583.955497344 l 1,41,42
 1181.06172588 -612.968413707 1181.06172588 -612.968413707 1109.54607859 -632.310228419 c 128,-1,43
 1038.03043131 -651.652043131 1038.03043131 -651.652043131 958.510842013 -661.411991775 c 128,-1,44
 878.991252719 -671.171940419 878.991252719 -671.171940419 791.547598133 -671.249029632 c 0,45,46
 417.100819316 -671.008412316 417.100819316 -671.008412316 251.011845807 -491.923347364 c 0,47,48
 129.998898214 -361.241896191 129.998898214 -361.241896191 129.980468734 -164.54590245 c 0,49,50
 129.989875565 123.249507785 129.989875565 123.249507785 307.245504065 305.616790366 c 128,-1,51
 484.501132566 487.984072948 484.501132566 487.984072948 847.495496549 568.48799877 c 2,52,-1
 857.495496549 570.705772207 l 1,53,-1
 954.6464056 592.251642755 l 1,54,-1
 861.774868768 627.992394196 l 2,55,56
 858.945258631 629.08134347 858.945258631 629.08134347 855.330557351 630.486854509 c 128,-1,57
 851.715856071 631.892365547 851.715856071 631.892365547 847.31677984 633.614200427 c 128,-1,58
 842.917703609 635.336035306 842.917703609 635.336035306 837.747918518 637.368790104 c 128,-1,59
 832.578133426 639.401544902 832.578133426 639.401544902 826.625229266 641.750202408 c 128,-1,60
 820.672325105 644.098859915 820.672325105 644.098859915 813.96396946 646.752447445 c 128,-1,61
 807.255613815 649.406034975 807.255613815 649.406034975 799.765394982 652.375104081 c 128,-1,62
 792.275176149 655.344173188 792.275176149 655.344173188 784.044763208 658.612182424 c 128,-1,63
 775.814350266 661.88019166 775.814350266 661.88019166 766.803330018 665.46326134 c 128,-1,64
 757.792309769 669.04633102 757.792309769 669.04633102 748.055477695 672.922698983 c 0,65,66
 680.803625653 700.15687828 680.803625653 700.15687828 630.026657429 717.646659511 c 128,-1,67
 579.249689204 735.136440742 579.249689204 735.136440742 538.535106071 744.473100704 c 128,-1,68
 497.820522938 753.809760666 497.820522938 753.809760666 469.528023806 753.687752923 c 0,69,70
 427.545142533 753.804291754 427.545142533 753.804291754 389.701070772 741.863999629 c 128,-1,71
 351.856999012 729.923707504 351.856999012 729.923707504 319.275108995 706.457728821 c 128,-1,72
 286.693218978 682.991750139 286.693218978 682.991750139 259.94175455 648.533895416 c 2,73,-1
 246.931496747 631.77572599 l 1,74,-1
 144.346543267 682.421321037 l 1,75,76
 265.366731287 881.987795499 265.366731287 881.987795499 471.827284778 881.842110947 c 0,77,78
 591.117303779 881.991364983 591.117303779 881.991364983 761.850380812 799.060452191 c 0,79,80
 1052.59569329 657.391989715 1052.59569329 657.391989715 1225.8307663 639.023387173 c 1,0,-1
EndSplineSet
EndChar

StartChar: uniFEA3
Encoding: 65187 65187 174
GlifName: uniF_E_A_3
Width: 1337
VWidth: 2952
GlyphClass: 2
Flags: W
AnchorPoint: "Anchor-10" 581.825 1372.07 basechar 0
AnchorPoint: "Anchor-7" 513.524 -234.745 basechar 0
LayerCount: 2
Fore
SplineSet
-6.9384765625 30 m 2,0,1
 -25.217555692 30 -25.217555692 30 -35.0841874028 34.6597706424 c 128,-1,2
 -44.9508191136 39.3195412849 -44.9508191136 39.3195412849 -49.864569713 51.9473147259 c 128,-1,3
 -54.7783203125 64.575088167 -54.7783203125 64.575088167 -54.7783203125 88.3134765625 c 2,4,-1
 -54.7784304388 107.267810366 l 2,5,6
 -54.8617128745 138.004165512 -54.8617128745 138.004165512 -44.8494854649 148.501594475 c 128,-1,7
 -34.8372580553 158.999023438 -34.8372580553 158.999023438 -6.9384765625 158.999023438 c 2,8,-1
 52.5430548015 158.999023438 l 2,9,10
 400.17626512 159.000020584 400.17626512 159.000020584 882.763787191 408.180617204 c 2,11,-1
 956.590935629 446.300734392 l 1,12,-1
 1025.02659196 481.636993401 l 1,13,-1
 950.719837194 501.90017317 l 2,14,15
 926.614128799 508.473711528 926.614128799 508.473711528 738.099917332 584.878920296 c 0,16,17
 536.747927892 666.028227969 536.747927892 666.028227969 460.291964734 665.657446601 c 0,18,19
 447.614798878 665.695793064 447.614798878 665.695793064 435.279406925 664.637550549 c 128,-1,20
 422.944014972 663.579308033 422.944014972 663.579308033 411.051803011 661.4429838 c 128,-1,21
 399.15959105 659.306659566 399.15959105 659.306659566 387.650933392 656.095238432 c 128,-1,22
 376.142275733 652.883817299 376.142275733 652.883817299 365.106989314 648.622671792 c 128,-1,23
 354.071702895 644.361526286 354.071702895 644.361526286 343.462523788 639.046318274 c 128,-1,24
 332.853344682 633.731110262 332.853344682 633.731110262 322.747728061 627.394535222 c 128,-1,25
 312.642111441 621.057960182 312.642111441 621.057960182 303.005155144 613.688357031 c 128,-1,26
 293.368198847 606.31875388 293.368198847 606.31875388 284.264996281 597.956141047 c 128,-1,27
 275.161793716 589.593528213 275.161793716 589.593528213 266.569804486 580.218921663 c 128,-1,28
 257.977815255 570.844315113 257.977815255 570.844315113 249.950543613 560.504598541 c 2,29,-1
 236.94028581 543.746429114 l 1,30,-1
 134.356239258 594.391576417 l 1,31,32
 195.974109526 695.549388719 195.974109526 695.549388719 276.764248921 744.492103332 c 128,-1,33
 357.554388316 793.434817945 357.554388316 793.434817945 461.377415544 793.812532867 c 0,34,35
 581.118737597 793.989781079 581.118737597 793.989781079 751.860917302 711.030303935 c 0,36,37
 1044.46663198 568.478801911 1044.46663198 568.478801911 1217.63253556 550.813085565 c 1,38,-1
 1216.3553908 425.093251725 l 1,39,40
 1203.07871063 422.60566992 1203.07871063 422.60566992 1188.44444553 418.897066049 c 128,-1,41
 1173.81018042 415.188462179 1173.81018042 415.188462179 1157.78912726 410.243875217 c 128,-1,42
 1141.76807411 405.299288254 1141.76807411 405.299288254 1124.39446618 399.162312001 c 128,-1,43
 1107.02085826 393.025335747 1107.02085826 393.025335747 1088.12560055 385.611428313 c 128,-1,44
 1069.23034284 378.197520878 1069.23034284 378.197520878 1048.99688665 369.624495651 c 128,-1,45
 1028.76343047 361.051470425 1028.76343047 361.051470425 1006.87346277 351.160565928 c 128,-1,46
 984.983495062 341.269661431 984.983495062 341.269661431 961.769685178 330.25291064 c 128,-1,47
 938.555875295 319.23615985 938.555875295 319.23615985 913.550692158 306.8605817 c 128,-1,48
 888.545509022 294.48500355 888.545509022 294.48500355 862.230839998 281.016850606 c 128,-1,49
 835.916170974 267.548697661 835.916170974 267.548697661 807.684593092 252.685407992 c 0,50,51
 596.144146348 141.087318104 596.144146348 141.087318104 404.341878652 85.5436590519 c 128,-1,52
 212.539610955 30 212.539610955 30 40.767578125 30 c 2,53,-1
 -6.9384765625 30 l 2,0,1
EndSplineSet
EndChar

StartChar: uniFEA4
Encoding: 65188 65188 175
GlifName: uniF_E_A_4
Width: 1351
VWidth: 2952
GlyphClass: 2
Flags: W
AnchorPoint: "Anchor-7" 513.524 -234.745 basechar 0
AnchorPoint: "Anchor-10" 581.825 1372.07 basechar 0
LayerCount: 2
Fore
SplineSet
950.202166754 502.036389992 m 2,0,1
 941.738557896 504.182904669 941.738557896 504.182904669 884.495891174 526.419954602 c 128,-1,2
 827.253224452 548.657004535 827.253224452 548.657004535 738.099917332 584.878920296 c 0,3,4
 536.747927892 666.028227969 536.747927892 666.028227969 460.291964734 665.657446601 c 0,5,6
 447.614798878 665.695793064 447.614798878 665.695793064 435.279406925 664.637550549 c 128,-1,7
 422.944014972 663.579308033 422.944014972 663.579308033 411.051803011 661.4429838 c 128,-1,8
 399.15959105 659.306659566 399.15959105 659.306659566 387.650933392 656.095238432 c 128,-1,9
 376.142275733 652.883817299 376.142275733 652.883817299 365.106989314 648.622671792 c 128,-1,10
 354.071702895 644.361526286 354.071702895 644.361526286 343.462523788 639.046318274 c 128,-1,11
 332.853344682 633.731110262 332.853344682 633.731110262 322.747728061 627.394535222 c 128,-1,12
 312.642111441 621.057960182 312.642111441 621.057960182 303.005155144 613.688357031 c 128,-1,13
 293.368198847 606.31875388 293.368198847 606.31875388 284.264996281 597.956141047 c 128,-1,14
 275.161793716 589.593528213 275.161793716 589.593528213 266.569804486 580.218921663 c 128,-1,15
 257.977815255 570.844315113 257.977815255 570.844315113 249.950543613 560.504598541 c 2,16,-1
 236.94028581 543.746429114 l 1,17,-1
 134.356239258 594.391576417 l 1,18,19
 195.974109526 695.549388719 195.974109526 695.549388719 276.764248921 744.492103332 c 128,-1,20
 357.554388316 793.434817945 357.554388316 793.434817945 461.377415544 793.812532867 c 0,21,22
 581.118737597 793.989781079 581.118737597 793.989781079 751.860917302 711.030303935 c 0,23,24
 1044.46663198 568.478801911 1044.46663198 568.478801911 1217.63253556 550.813085565 c 1,25,-1
 1216.3529504 424.853022841 l 1,26,27
 1180.03875664 417.659826515 1180.03875664 417.659826515 1130.66674702 400.207521888 c 128,-1,28
 1081.2947374 382.755217262 1081.2947374 382.755217262 1016.02692821 354.346058103 c 2,29,-1
 997.424106452 346.248796515 l 1,30,-1
 998.012623903 325.968651793 l 2,31,32
 1002.84984749 159.279296875 1002.84984749 159.279296875 1346.61132812 159.279296875 c 1,33,34
 1350.50585938 141.012126106 1350.50585938 141.012126106 1350.50585938 111.889648438 c 2,35,-1
 1350.50585938 88.2432325471 l 2,36,37
 1350.72582472 48.9246444022 1350.72582472 48.9246444022 1346.75662014 30 c 1,38,-1
 1341.09667969 30 l 2,39,40
 1145.72278686 30 1145.72278686 30 1046.94370406 90.6917556977 c 128,-1,41
 948.164621272 151.383511395 948.164621272 151.383511395 933.789047736 271.964513113 c 2,42,-1
 928.748591446 314.243401469 l 1,43,-1
 890.631495056 295.269799727 l 2,44,45
 882.761392206 291.352287344 882.761392206 291.352287344 874.720124602 287.297679247 c 128,-1,46
 866.678856997 283.24307115 866.678856997 283.24307115 858.470920715 279.053689893 c 128,-1,47
 850.262984432 274.864308636 850.262984432 274.864308636 841.882390073 270.537137263 c 128,-1,48
 833.501795714 266.20996589 833.501795714 266.20996589 824.954111973 261.747941431 c 128,-1,49
 816.406428231 257.285916971 816.406428231 257.285916971 807.684593092 252.685407992 c 0,50,51
 596.144146348 141.087318104 596.144146348 141.087318104 404.341878652 85.5436590519 c 128,-1,52
 212.539610955 30 212.539610955 30 40.767578125 30 c 2,53,-1
 -6.9384765625 30 l 2,54,55
 -25.217555692 30 -25.217555692 30 -35.0841874028 34.6597706424 c 128,-1,56
 -44.9508191136 39.3195412849 -44.9508191136 39.3195412849 -49.864569713 51.9473147259 c 128,-1,57
 -54.7783203125 64.575088167 -54.7783203125 64.575088167 -54.7783203125 88.3134765625 c 2,58,-1
 -54.7784304388 107.267810366 l 2,59,60
 -54.8617128745 138.004165513 -54.8617128745 138.004165513 -44.849485465 148.501594476 c 128,-1,61
 -34.8372580555 158.999023438 -34.8372580555 158.999023438 -6.9384765625 158.999023438 c 2,62,-1
 52.5430548015 158.999023438 l 2,63,64
 400.176265123 159.000020584 400.176265123 159.000020584 882.763787191 408.180617204 c 2,65,-1
 956.590935629 446.300734392 l 1,66,-1
 1026.87429108 482.591039555 l 1,67,-1
 950.202166754 502.036389992 l 2,0,1
EndSplineSet
EndChar

StartChar: uniFEAA
Encoding: 65194 65194 181
GlifName: uniF_E_A_A_
Width: 1121
VWidth: 2952
GlyphClass: 2
Flags: W
AnchorPoint: "Anchor-7" 437.24 -239.316 basechar 0
AnchorPoint: "Anchor-10" 598.848 1381.53 basechar 0
LayerCount: 2
Fore
SplineSet
387.571733313 30.8193469311 m 0,0,1
 267.780010518 30.9813874292 267.780010518 30.9813874292 132.096679688 54.595743041 c 1,2,-1
 132.096679688 182.842326415 l 1,3,4
 258.382136213 160.007420682 258.382136213 160.007420682 392.975323916 160.06836 c 0,5,6
 757.980771791 159.993881903 757.980771791 159.993881903 758.088839941 329.103909589 c 0,7,8
 758.035186052 368.913325783 758.035186052 368.913325783 735.192400918 438.530848189 c 128,-1,9
 712.349615783 508.148370594 712.349615783 508.148370594 664.422898698 620.205451946 c 2,10,-1
 543.071314551 903.936639139 l 1,11,-1
 652.630988903 954.274832766 l 1,12,-1
 844.749344559 480.616313834 l 2,13,14
 908.911754234 321.904726688 908.911754234 321.904726688 972.306954372 240.448945375 c 128,-1,15
 1035.70215451 158.993164062 1035.70215451 158.993164062 1108.87988281 158.993164062 c 2,16,-1
 1114.98645792 158.993164062 l 1,17,18
 1116.74532006 150.325953711 1116.74532006 150.325953711 1117.67148816 137.48124677 c 128,-1,19
 1118.59765625 124.636539828 1118.59765625 124.636539828 1118.59765625 107.174804688 c 2,20,-1
 1118.59765625 88.1256638642 l 2,21,22
 1118.9681647 59.2853579311 1118.9681647 59.2853579311 1116.18490364 42.5445453373 c 0,23,24
 1115.15605006 35.3004245004 1115.15605006 35.3004245004 1113.9989552 30 c 1,25,-1
 1108.53222656 30 l 2,26,27
 990.497899247 30 990.497899247 30 888.575375852 190.699819262 c 2,28,-1
 866.341300177 225.755975875 l 1,29,-1
 840.034208625 193.643281008 l 2,30,31
 706.788644854 30.992304434 706.788644854 30.992304434 387.571733313 30.8193469311 c 0,0,1
EndSplineSet
EndChar

StartChar: uniFEAE
Encoding: 65198 65198 185
GlifName: uniF_E_A_E_
Width: 914
VWidth: 2144
GlyphClass: 2
Flags: W
AnchorPoint: "Anchor-7" 364.969 -769.998 basechar 0
AnchorPoint: "Anchor-10" 459.256 1370.2 basechar 0
LayerCount: 2
Fore
SplineSet
618.495389333 493.150875052 m 1,0,-1
 676.262173143 303.741162123 l 2,1,2
 698.219128266 232.465126508 698.219128266 232.465126508 754.819851797 195.732074973 c 128,-1,3
 811.420575328 158.999023438 811.420575328 158.999023438 895.31640625 158.999023438 c 2,4,-1
 909.350997164 158.999023438 l 1,5,6
 912.638671875 142.979978799 912.638671875 142.979978799 912.638671875 112.322265625 c 2,7,-1
 912.638671875 88.1475405303 l 2,8,9
 912.666050783 81.4636830704 912.666050783 81.4636830704 912.550585644 75.1582211241 c 128,-1,10
 912.435120504 68.8527591777 912.435120504 68.8527591777 912.194451386 63.3860497025 c 128,-1,11
 911.953782268 57.9193402273 911.953782268 57.9193402273 911.611672049 52.9945963973 c 128,-1,12
 911.269561831 48.0698525673 911.269561831 48.0698525673 910.831484186 43.8889788901 c 128,-1,13
 910.393406542 39.7081052129 910.393406542 39.7081052129 909.896101837 36.249997476 c 128,-1,14
 909.398797132 32.7918897392 909.398797132 32.7918897392 908.835572647 30 c 2,15,-1
 905.80078125 30 l 2,16,17
 784.052816525 30 784.052816525 30 753.359166748 71.1657696824 c 2,18,-1
 706.427245767 134.110015933 l 1,19,-1
 699.428034131 55.907750112 l 2,20,21
 678.229315479 -180.945758185 678.229315479 -180.945758185 518.316594152 -320.885136885 c 128,-1,22
 358.403872824 -460.824515585 358.403872824 -460.824515585 51.9907342275 -506.673764441 c 1,23,-1
 24.0125408979 -394.759707424 l 1,24,25
 299.024991098 -351.392921454 299.024991098 -351.392921454 441.330557176 -221.184859805 c 128,-1,26
 583.636123254 -90.9767981564 583.636123254 -90.9767981564 583.249962756 123.390045099 c 0,27,28
 583.129786926 199.657100869 583.129786926 199.657100869 563.273687796 282.9854948 c 128,-1,29
 543.417588667 366.313888731 543.417588667 366.313888731 504.948102361 454.302482953 c 1,30,-1
 618.495389333 493.150875052 l 1,0,-1
EndSplineSet
PairPos2: "'kern' Horizontal Kerning lookup 15-2" uniFBFE dx=60 dy=0 dh=60 dv=0 dx=0 dy=0 dh=0 dv=0
PairPos2: "'kern' Horizontal Kerning lookup 15-1" uniFEE7 dx=-178 dy=0 dh=-178 dv=0 dx=0 dy=0 dh=0 dv=0
PairPos2: "'kern' Horizontal Kerning lookup 15-2" uniFB90 dx=-226 dy=0 dh=-226 dv=0 dx=0 dy=0 dh=0 dv=0
PairPos2: "'kern' Horizontal Kerning lookup 15-2" uniFB8E dx=-226 dy=0 dh=-226 dv=0 dx=0 dy=0 dh=0 dv=0
PairPos2: "'kern' Horizontal Kerning lookup 15-2" uni06A9 dx=-226 dy=0 dh=-226 dv=0 dx=0 dy=0 dh=0 dv=0
PairPos2: "'kern' Horizontal Kerning lookup 15-2" uni064A dx=-60 dy=0 dh=-60 dv=0 dx=0 dy=0 dh=0 dv=0
PairPos2: "'kern' Horizontal Kerning lookup 15-2" afii57414 dx=-60 dy=0 dh=-60 dv=0 dx=0 dy=0 dh=0 dv=0
PairPos2: "'kern' Horizontal Kerning lookup 15-2" uni0649 dx=-60 dy=0 dh=-60 dv=0 dx=0 dy=0 dh=0 dv=0
PairPos2: "'kern' Horizontal Kerning lookup 15-2" uniFEEB dx=-178 dy=0 dh=-178 dv=0 dx=0 dy=0 dh=0 dv=0
PairPos2: "'kern' Horizontal Kerning lookup 15-2" uni0647 dx=-178 dy=0 dh=-178 dv=0 dx=0 dy=0 dh=0 dv=0
PairPos2: "'kern' Horizontal Kerning lookup 15-2" uni0646 dx=-60 dy=0 dh=-60 dv=0 dx=0 dy=0 dh=0 dv=0
PairPos2: "'kern' Horizontal Kerning lookup 15-2" uniFEE3 dx=-178 dy=0 dh=-178 dv=0 dx=0 dy=0 dh=0 dv=0
PairPos2: "'kern' Horizontal Kerning lookup 15-2" uni0645 dx=-178 dy=0 dh=-178 dv=0 dx=0 dy=0 dh=0 dv=0
PairPos2: "'kern' Horizontal Kerning lookup 15-2" uniFEFB dx=-143 dy=0 dh=-143 dv=0 dx=0 dy=0 dh=0 dv=0
PairPos2: "'kern' Horizontal Kerning lookup 15-2" uniFEDF dx=-143 dy=0 dh=-143 dv=0 dx=0 dy=0 dh=0 dv=0
PairPos2: "'kern' Horizontal Kerning lookup 15-2" uni0644 dx=-60 dy=0 dh=-60 dv=0 dx=0 dy=0 dh=0 dv=0
PairPos2: "'kern' Horizontal Kerning lookup 15-2" uniFEDB dx=-226 dy=0 dh=-226 dv=0 dx=0 dy=0 dh=0 dv=0
PairPos2: "'kern' Horizontal Kerning lookup 15-2" uni0643 dx=-143 dy=0 dh=-143 dv=0 dx=0 dy=0 dh=0 dv=0
PairPos2: "'kern' Horizontal Kerning lookup 15-2" uniFED7 dx=-178 dy=0 dh=-178 dv=0 dx=0 dy=0 dh=0 dv=0
PairPos2: "'kern' Horizontal Kerning lookup 15-2" uni0642 dx=-60 dy=0 dh=-60 dv=0 dx=0 dy=0 dh=0 dv=0
PairPos2: "'kern' Horizontal Kerning lookup 15-2" uniFED3 dx=-178 dy=0 dh=-178 dv=0 dx=0 dy=0 dh=0 dv=0
PairPos2: "'kern' Horizontal Kerning lookup 15-2" uni0641 dx=-178 dy=0 dh=-178 dv=0 dx=0 dy=0 dh=0 dv=0
PairPos2: "'kern' Horizontal Kerning lookup 15-2" uniFECF dx=-178 dy=0 dh=-178 dv=0 dx=0 dy=0 dh=0 dv=0
PairPos2: "'kern' Horizontal Kerning lookup 15-2" uniFECB dx=-178 dy=0 dh=-178 dv=0 dx=0 dy=0 dh=0 dv=0
PairPos2: "'kern' Horizontal Kerning lookup 15-2" uniFEC7 dx=-178 dy=0 dh=-178 dv=0 dx=0 dy=0 dh=0 dv=0
PairPos2: "'kern' Horizontal Kerning lookup 15-2" uni0638 dx=-178 dy=0 dh=-178 dv=0 dx=0 dy=0 dh=0 dv=0
PairPos2: "'kern' Horizontal Kerning lookup 15-2" uniFEC3 dx=-178 dy=0 dh=-178 dv=0 dx=0 dy=0 dh=0 dv=0
PairPos2: "'kern' Horizontal Kerning lookup 15-2" uni0637 dx=-178 dy=0 dh=-178 dv=0 dx=0 dy=0 dh=0 dv=0
PairPos2: "'kern' Horizontal Kerning lookup 15-2" uniFEBF dx=-178 dy=0 dh=-178 dv=0 dx=0 dy=0 dh=0 dv=0
PairPos2: "'kern' Horizontal Kerning lookup 15-2" uni0636 dx=-178 dy=0 dh=-178 dv=0 dx=0 dy=0 dh=0 dv=0
PairPos2: "'kern' Horizontal Kerning lookup 15-2" uniFEBB dx=-178 dy=0 dh=-178 dv=0 dx=0 dy=0 dh=0 dv=0
PairPos2: "'kern' Horizontal Kerning lookup 15-2" uni0635 dx=-178 dy=0 dh=-178 dv=0 dx=0 dy=0 dh=0 dv=0
PairPos2: "'kern' Horizontal Kerning lookup 15-2" uniFEB7 dx=-178 dy=0 dh=-178 dv=0 dx=0 dy=0 dh=0 dv=0
PairPos2: "'kern' Horizontal Kerning lookup 15-2" uni0634 dx=-178 dy=0 dh=-178 dv=0 dx=0 dy=0 dh=0 dv=0
PairPos2: "'kern' Horizontal Kerning lookup 15-2" uniFEB3 dx=-178 dy=0 dh=-178 dv=0 dx=0 dy=0 dh=0 dv=0
PairPos2: "'kern' Horizontal Kerning lookup 15-2" uni0633 dx=-178 dy=0 dh=-178 dv=0 dx=0 dy=0 dh=0 dv=0
PairPos2: "'kern' Horizontal Kerning lookup 15-2" uni0630 dx=-178 dy=0 dh=-178 dv=0 dx=0 dy=0 dh=0 dv=0
PairPos2: "'kern' Horizontal Kerning lookup 15-2" uni062F dx=-178 dy=0 dh=-178 dv=0 dx=0 dy=0 dh=0 dv=0
PairPos2: "'kern' Horizontal Kerning lookup 15-2" uniFEA7 dx=-178 dy=0 dh=-178 dv=0 dx=0 dy=0 dh=0 dv=0
PairPos2: "'kern' Horizontal Kerning lookup 15-2" uniFEA3 dx=-178 dy=0 dh=-178 dv=0 dx=0 dy=0 dh=0 dv=0
PairPos2: "'kern' Horizontal Kerning lookup 15-2" uniFE9F dx=-178 dy=0 dh=-178 dv=0 dx=0 dy=0 dh=0 dv=0
PairPos2: "'kern' Horizontal Kerning lookup 15-2" uniFE9B dx=-178 dy=0 dh=-178 dv=0 dx=0 dy=0 dh=0 dv=0
PairPos2: "'kern' Horizontal Kerning lookup 15-2" uni062B dx=-178 dy=0 dh=-178 dv=0 dx=0 dy=0 dh=0 dv=0
PairPos2: "'kern' Horizontal Kerning lookup 15-2" uniFE97 dx=-178 dy=0 dh=-178 dv=0 dx=0 dy=0 dh=0 dv=0
PairPos2: "'kern' Horizontal Kerning lookup 15-2" uni062A dx=-178 dy=0 dh=-178 dv=0 dx=0 dy=0 dh=0 dv=0
PairPos2: "'kern' Horizontal Kerning lookup 15-2" uni0629 dx=-178 dy=0 dh=-178 dv=0 dx=0 dy=0 dh=0 dv=0
PairPos2: "'kern' Horizontal Kerning lookup 15-2" uni0628 dx=-178 dy=0 dh=-178 dv=0 dx=0 dy=0 dh=0 dv=0
PairPos2: "'kern' Horizontal Kerning lookup 15-2" uni0627 dx=-143 dy=0 dh=-143 dv=0 dx=0 dy=0 dh=0 dv=0
PairPos2: "'kern' Horizontal Kerning lookup 15-2" uni0623 dx=-143 dy=0 dh=-143 dv=0 dx=0 dy=0 dh=0 dv=0
PairPos2: "'kern' Horizontal Kerning lookup 15-2" uni0622 dx=-143 dy=0 dh=-143 dv=0 dx=0 dy=0 dh=0 dv=0
PairPos2: "'kern' Horizontal Kerning lookup 15-2" uni0621 dx=-178 dy=0 dh=-178 dv=0 dx=0 dy=0 dh=0 dv=0
PairPos2: "'kern' Horizontal Kerning lookup 15-2" uniFB94 dx=-226 dy=0 dh=-226 dv=0 dx=0 dy=0 dh=0 dv=0
PairPos2: "'kern' Horizontal Kerning lookup 15-2" uniFB92 dx=-226 dy=0 dh=-226 dv=0 dx=0 dy=0 dh=0 dv=0
PairPos2: "'kern' Horizontal Kerning lookup 15-2" uni06AF dx=-226 dy=0 dh=-226 dv=0 dx=0 dy=0 dh=0 dv=0
PairPos2: "'kern' Horizontal Kerning lookup 15-2" afii57506 dx=-178 dy=0 dh=-178 dv=0 dx=0 dy=0 dh=0 dv=0
PairPos2: "'kern' Horizontal Kerning lookup 15-2" afii57440 dx=-178 dy=0 dh=-178 dv=0 dx=0 dy=0 dh=0 dv=0
PairPos2: "'kern' Horizontal Kerning lookup 15-2" uniFE8B dx=-178 dy=0 dh=-178 dv=0 dx=0 dy=0 dh=0 dv=0
EndChar

StartChar: uniFEB2
Encoding: 65202 65202 189
GlifName: uniF_E_B_2
Width: 2589
VWidth: 2952
GlyphClass: 2
Flags: W
AnchorPoint: "Anchor-7" 595.902 -799.086 basechar 0
AnchorPoint: "Anchor-10" 1794.53 1378.1 basechar 0
LayerCount: 2
Fore
SplineSet
1304.45808134 337.761013095 m 2,0,1
 1323.27409479 279.632872962 1323.27409479 279.632872962 1358.20834117 239.65719261 c 128,-1,2
 1393.14258755 199.681512258 1393.14258755 199.681512258 1442.55658981 179.364006598 c 128,-1,3
 1491.97059207 159.046500938 1491.97059207 159.046500938 1554.07619757 159.073244467 c 0,4,5
 1658.06345447 159.032713528 1658.06345447 159.032713528 1715.02468188 212.772971114 c 128,-1,6
 1771.98590928 266.513228701 1771.98590928 266.513228701 1771.96776934 366.350524789 c 0,7,8
 1772.00058524 429.111427875 1772.00058524 429.111427875 1770.02387742 454.943269201 c 2,9,-1
 1766.60377477 499.637557571 l 1,10,-1
 1872.03051313 518.411240873 l 1,11,-1
 1885.58387578 340.33508417 l 2,12,13
 1892.06630063 254.329153373 1892.06630063 254.329153373 1940.76577095 207.062070737 c 128,-1,14
 1989.46524127 159.794988101 1989.46524127 159.794988101 2073.21138943 159.520348213 c 0,15,16
 2160.72537187 159.804283624 2160.72537187 159.804283624 2206.43748548 219.846639217 c 128,-1,17
 2252.14959909 279.888994811 2252.14959909 279.888994811 2253.50996815 386.479622768 c 0,18,19
 2253.76473952 410.061771101 2253.76473952 410.061771101 2252.45417944 435.273236201 c 128,-1,20
 2251.14361936 460.484701301 2251.14361936 460.484701301 2248.28054508 487.370145403 c 2,21,-1
 2245.65400015 512.034481689 l 1,22,-1
 2351.24501533 537.32117257 l 1,23,-1
 2363.97879443 402.648606049 l 2,24,25
 2374.78904023 286.538791363 2374.78904023 286.538791363 2429.41201608 222.779693884 c 128,-1,26
 2484.03499193 159.020596406 2484.03499193 159.020596406 2579.35191616 159.0000007 c 2,27,-1
 2583.90696457 158.999016463 l 1,28,29
 2585.00839887 153.693742083 2585.00839887 153.693742083 2585.80376593 146.31519793 c 128,-1,30
 2586.59913298 138.936653776 2586.59913298 138.936653776 2587.06275009 128.860184398 c 128,-1,31
 2587.52636719 118.783715021 2587.52636719 118.783715021 2587.52636719 107.1171875 c 2,32,-1
 2587.52636719 88.5639466473 l 2,33,34
 2586.84732747 49.2795659738 2586.84732747 49.2795659738 2582.76528577 29.943359375 c 1,35,-1
 2581.12865083 29.9433581613 l 2,36,37
 2373 30 2373 30 2336.65510579 218.899930891 c 1,38,39
 2262 30 2262 30 2082.5 30 c 0,40,41
 1891 30 1891 30 1838.59674109 202.801378347 c 1,42,43
 1738 31 1738 31 1552.82763803 30.9189379643 c 4,44,45
 1428 31 1428 31 1340.34888636 119.126424274 c 5,46,-1
 1339.92061785 56.254151641 l 2,47,48
 1339.04576972 -72.1785683154 1339.04576972 -72.1785683154 1276.72192883 -204.215852672 c 0,49,50
 1138.96615187 -496.988380315 1138.96615187 -496.988380315 707.321312762 -496.72461248 c 0,51,52
 282.182834574 -496.918024654 282.182834574 -496.918024654 172.415915335 -211.595157133 c 0,53,54
 131.975232588 -105.318162355 131.975232588 -105.318162355 131.75290789 41.0077809553 c 0,55,56
 131.978854865 228.441067004 131.978854865 228.441067004 219.629130578 451.117359454 c 1,57,-1
 326.953676341 407.969823633 l 1,58,59
 252.009157495 207.223860375 252.009157495 207.223860375 252.268561954 42.8812312374 c 0,60,61
 252.126101542 -161.806406871 252.126101542 -161.806406871 370.38479457 -267.451739885 c 128,-1,62
 488.643487599 -373.0970729 488.643487599 -373.0970729 714.375143427 -373.203122253 c 0,63,64
 961.684932724 -373.097284049 961.684932724 -373.097284049 1090.71211257 -252.004193942 c 128,-1,65
 1219.73929241 -130.911103834 1219.73929241 -130.911103834 1220.55677898 103.662588343 c 0,66,67
 1220.97892172 278.2464719 1220.97892172 278.2464719 1141.75701443 454.423379972 c 1,68,-1
 1254.00057115 493.638942835 l 1,69,-1
 1304.45808134 337.761013095 l 2,0,1
EndSplineSet
EndChar

StartChar: uniFEB3
Encoding: 65203 65203 190
GlifName: uniF_E_B_3
Width: 1573
VWidth: 2952
GlyphClass: 2
Flags: W
AnchorPoint: "Anchor-10" 859.961 1380.67 basechar 0
AnchorPoint: "Anchor-7" 729.534 -236.974 basechar 0
LayerCount: 2
Fore
SplineSet
1144.72531593 30.993164093 m 0,0,1
 960 31 960 31 907.452113908 202.094984793 c 1,2,-1
 876.30459878 158.477108253 l 2,3,4
 784.559126733 30 784.559126733 30 616.440089247 30 c 0,5,6
 402 31 402 31 345.925138645 208.510273758 c 5,7,-1
 316.038856926 155.89019457 l 2,8,9
 244.537827685 30 244.537827685 30 18.849609375 30 c 2,10,-1
 -6.9384765625 30 l 2,11,12
 -25.217555692 30 -25.217555692 30 -35.0841874028 34.6597706424 c 128,-1,13
 -44.9508191136 39.3195412849 -44.9508191136 39.3195412849 -49.864569713 51.9473147259 c 128,-1,14
 -54.7783203125 64.575088167 -54.7783203125 64.575088167 -54.7783203125 88.3134765625 c 2,15,-1
 -54.7784304388 107.267810366 l 2,16,17
 -54.8617128745 138.004165513 -54.8617128745 138.004165513 -44.849485465 148.501594476 c 128,-1,18
 -34.8372580555 158.999023438 -34.8372580555 158.999023438 -6.9384765625 158.999023438 c 2,19,-1
 21.004028833 158.999023438 l 2,20,21
 149.043964744 158.999546622 149.043964744 158.999546622 219.873010807 214.84230514 c 128,-1,22
 290.702056871 270.685063657 290.702056871 270.685063657 291.628372413 378.6169293 c 0,23,24
 292.011313696 442.80695798 292.011313696 442.80695798 288.376274144 476.944120556 c 2,25,-1
 285.937083437 499.850900114 l 1,26,-1
 390.473741379 518.465947598 l 1,27,-1
 404.033374661 340.299220757 l 2,28,29
 410.934211456 252.371114484 410.934211456 252.371114484 466.897097247 205.70191918 c 128,-1,30
 522.859983039 159.032723877 522.859983039 159.032723877 618.052945234 159.073244395 c 0,31,32
 723.384515158 159.032839584 723.384515158 159.032839584 781.568116602 212.607856761 c 128,-1,33
 839.751718047 266.182873938 839.751718047 266.182873938 840.724901852 366.293581453 c 0,34,35
 841.004939964 425.982559225 841.004939964 425.982559225 838.784619613 454.997956704 c 2,36,-1
 835.364516956 499.692245072 l 1,37,-1
 940.791255323 518.465928374 l 1,38,-1
 954.348106297 340.343958225 l 2,39,40
 960.960865269 254.36599038 960.960865269 254.36599038 1009.51597408 207.084390102 c 128,-1,41
 1058.07108289 159.802789825 1058.07108289 159.802789825 1141.49739793 159.537933715 c 0,42,43
 1227.28832864 159.812170627 1227.28832864 159.812170627 1271.64104418 218.125949388 c 128,-1,44
 1315.99375972 276.43972815 1315.99375972 276.43972815 1315.98632785 379.394439935 c 0,45,46
 1315.99916085 475.700557956 1315.99916085 475.700557956 1279.08371293 612.999229396 c 1,47,-1
 1396.61030654 643.726053797 l 1,48,49
 1416.57909548 574.806990262 1416.57909548 574.806990262 1426.29501311 511.019862006 c 128,-1,50
 1436.01093075 447.232733751 1436.01093075 447.232733751 1436.01951774 386.141865221 c 0,51,52
 1436 383.096122052 1436 383.096122052 1436 380.572288737 c 0,53,54
 1435.06545815 186.654855873 1435.06545815 186.654855873 1324.51640865 89.7568081905 c 0,55,56
 1256.76045421 31.3199810255 1256.76045421 31.3199810255 1144.72531593 30.993164093 c 0,0,1
EndSplineSet
EndChar

StartChar: uniFEB4
Encoding: 65204 65204 191
GlifName: uniF_E_B_4
Width: 1658
VWidth: 2945
GlyphClass: 2
Flags: W
AnchorPoint: "Anchor-7" 729.534 -236.974 basechar 0
AnchorPoint: "Anchor-10" 839.961 1380.67 basechar 0
LayerCount: 2
Fore
SplineSet
1147.5 30 m 0,0,1
 969 30 969 30 905.378798039 199.600456564 c 1,2,3
 805 30 805 30 616.370117188 30 c 4,4,5
 402 30 402 30 346.021694467 208.680277342 c 1,6,-1
 316.038856926 155.89019457 l 2,7,8
 244.537827685 30 244.537827685 30 18.849609375 30 c 2,9,-1
 -6.9384765625 30 l 2,10,11
 -25.217555692 30 -25.217555692 30 -35.0841874028 34.6597706424 c 128,-1,12
 -44.9508191136 39.3195412849 -44.9508191136 39.3195412849 -49.864569713 51.9473147259 c 128,-1,13
 -54.7783203125 64.575088167 -54.7783203125 64.575088167 -54.7783203125 88.3134765625 c 2,14,-1
 -54.7784304388 107.267810366 l 2,15,16
 -54.8617128745 138.004165513 -54.8617128745 138.004165513 -44.849485465 148.501594476 c 128,-1,17
 -34.8372580555 158.999023438 -34.8372580555 158.999023438 -6.9384765625 158.999023438 c 2,18,-1
 21.004028833 158.999023438 l 2,19,20
 149.043964744 158.999546622 149.043964744 158.999546622 219.873010807 214.84230514 c 128,-1,21
 290.702056871 270.685063657 290.702056871 270.685063657 291.628372413 378.6169293 c 0,22,23
 292.011313696 442.80695798 292.011313696 442.80695798 288.376274144 476.944120556 c 2,24,-1
 285.937083437 499.850900114 l 1,25,-1
 390.473741379 518.465947598 l 1,26,-1
 404.033374661 340.299220757 l 2,27,28
 410.934211456 252.371114484 410.934211456 252.371114484 466.897097247 205.70191918 c 128,-1,29
 522.859983039 159.032723877 522.859983039 159.032723877 618.052945234 159.073244395 c 0,30,31
 723.413581773 159.032828435 723.413581773 159.032828435 781.577674316 212.771286438 c 128,-1,32
 839.741766858 266.509744442 839.741766858 266.509744442 840.700432527 366.869162359 c 0,33,34
 841.005436157 425.976074925 841.005436157 425.976074925 838.784619613 454.997956704 c 2,35,-1
 835.364516956 499.692245072 l 1,36,-1
 940.791255323 518.465928374 l 1,37,-1
 954.348106297 340.343958225 l 2,38,39
 960.969187257 254.257789314 960.969187257 254.257789314 1010.05132484 207.038675688 c 128,-1,40
 1059.13346243 159.819562062 1059.13346243 159.819562062 1143.36723584 159.578981854 c 0,41,42
 1232.3550425 159.827633333 1232.3550425 159.827633333 1277.80339087 220.531320001 c 128,-1,43
 1323.25173923 281.23500667 1323.25173923 281.23500667 1322.36937263 388.679133985 c 0,44,45
 1322.17891298 415.7118408 1322.17891298 415.7118408 1320.90129893 440.379798929 c 128,-1,46
 1319.62368489 465.047757059 1319.62368489 465.047757059 1317.24050602 487.426786028 c 2,47,-1
 1314.61396109 512.091122314 l 1,48,-1
 1420.20497627 537.377813195 l 1,49,-1
 1432.93919851 402.700491038 l 2,50,51
 1443.77289323 286.539179612 1443.77289323 286.539179612 1498.39522677 222.763465101 c 128,-1,52
 1553.01756031 158.987750589 1553.01756031 158.987750589 1648.32160052 158.99804705 c 2,53,-1
 1652.87064012 158.998538519 l 1,54,55
 1656.48632812 141.594209268 1656.48632812 141.594209268 1656.48632812 107.173828125 c 2,56,-1
 1656.48632812 88.4438853557 l 2,57,58
 1656.27205447 49.5123413632 1656.27205447 49.5123413632 1652.24587373 30 c 1,59,-1
 1650.08007812 30 l 2,60,61
 1441 30 1441 30 1405.8737478 219.530820093 c 1,62,63
 1331 30 1331 30 1147.5 30 c 0,0,1
EndSplineSet
EndChar

StartChar: uniFEBA
Encoding: 65210 65210 197
GlifName: uniF_E_B_A_
Width: 2696
VWidth: 2952
GlyphClass: 2
Flags: W
AnchorPoint: "Anchor-10" 2104.53 1377.1 basechar 0
AnchorPoint: "Anchor-7" 595.902 -800.086 basechar 0
LayerCount: 2
Fore
SplineSet
2690.87042368 159 m 1,0,1
 2694.49316406 141.589859833 2694.49316406 141.589859833 2694.49316406 107.174804688 c 2,2,-1
 2694.49316406 88.3894344899 l 2,3,4
 2694.27590037 49.4863272025 2694.27590037 49.4863272025 2690.25241054 30 c 1,5,-1
 2680.2265625 30 l 2,6,7
 2484.67868165 30 2484.67868165 30 2355.93411513 134.952834888 c 2,8,-1
 2340.06663783 147.888034953 l 1,9,-1
 2322.23687702 137.828419349 l 2,10,11
 2259.394777 102.372678993 2259.394777 102.372678993 2177.91522652 78.4724154558 c 128,-1,12
 2096.43567603 54.5721519182 2096.43567603 54.5721519182 1994.76285672 42.2860759591 c 128,-1,13
 1893.09003741 30 1893.09003741 30 1773.15136719 30 c 2,14,-1
 1722.34082031 30 l 2,15,16
 1663.80913407 30 1663.80913407 30 1612.63200799 33.5081180944 c 128,-1,17
 1561.4548819 37.0162361888 1561.4548819 37.0162361888 1519.19598728 43.8126881134 c 128,-1,18
 1476.93709267 50.609140038 1476.93709267 50.609140038 1442.94298127 60.3983650653 c 128,-1,19
 1408.94886987 70.1875900926 1408.94886987 70.1875900926 1383.24302535 82.9290701883 c 2,20,-1
 1340.24748717 104.240441366 l 1,21,-1
 1339.92061785 56.254151641 l 2,22,23
 1339.04576972 -72.1785683154 1339.04576972 -72.1785683154 1276.72192883 -204.215852672 c 0,24,25
 1138.96614769 -496.988389185 1138.96614769 -496.988389185 706.57025775 -496.724631069 c 0,26,27
 511.888928132 -496.49050673 511.888928132 -496.49050673 384.779195212 -437.745854423 c 128,-1,28
 257.669462293 -379.001202116 257.669462293 -379.001202116 195.073113445 -260.810111261 c 128,-1,29
 132.476764597 -142.619020406 132.476764597 -142.619020406 131.758585548 38.1105025118 c 0,30,31
 131.064593307 226.519124723 131.064593307 226.519124723 219.612753805 451.123943385 c 1,32,-1
 326.994402082 407.953450721 l 1,33,34
 252.009109668 206.223432161 252.009109668 206.223432161 252.269584207 41.7082800822 c 0,35,36
 252.657192174 -164.581551043 252.657192174 -164.581551043 373.206363149 -269.872941497 c 128,-1,37
 493.755534124 -375.16433195 493.755534124 -375.16433195 723.180823004 -373.164812151 c 0,38,39
 884.912754767 -371.716101556 884.912754767 -371.716101556 995.694159823 -317.857080867 c 128,-1,40
 1106.47556488 -263.998060179 1106.47556488 -263.998060179 1163.32832892 -158.770775993 c 128,-1,41
 1220.18109297 -53.543491807 1220.18109297 -53.543491807 1220.55264659 100.043636001 c 0,42,43
 1220.69479707 158.803616173 1220.69479707 158.803616173 1211.76562535 218.433449129 c 128,-1,44
 1202.83645363 278.063282086 1202.83645363 278.063282086 1185.26055758 337.047555819 c 128,-1,45
 1167.68466152 396.031829552 1167.68466152 396.031829552 1141.6336344 454.380273554 c 1,46,-1
 1253.94875919 493.620840815 l 1,47,-1
 1312.42385698 311.86741821 l 2,48,49
 1323.7861794 276.314344843 1323.7861794 276.314344843 1339.6210034 250.462470467 c 128,-1,50
 1355.4558274 224.610596092 1355.4558274 224.610596092 1378.8357628 207.796416764 c 128,-1,51
 1402.2156982 190.982237436 1402.2156982 190.982237436 1430.93896079 188.242927076 c 2,52,-1
 1449.90645229 186.434015369 l 1,53,-1
 1459.60750397 202.833024241 l 2,54,55
 1824.14788897 819.065284966 1824.14788897 819.065284966 2179.91408864 820.423943036 c 0,56,57
 2277.53046367 820.694126515 2277.53046367 820.694126515 2350.61387086 784.577797443 c 128,-1,58
 2423.69727805 748.461468371 2423.69727805 748.461468371 2475.71027162 674.823072128 c 0,59,60
 2537.00481891 587.513905589 2537.00481891 587.513905589 2537.06152153 475.62333704 c 0,61,62
 2537.04743862 448.013172856 2537.04743862 448.013172856 2532.37722114 420.985320015 c 128,-1,63
 2527.70700365 393.957467174 2527.70700365 393.957467174 2518.26208494 367.135161699 c 128,-1,64
 2508.81716623 340.312856224 2508.81716623 340.312856224 2494.43355417 313.714020347 c 128,-1,65
 2480.0499421 287.11518447 2480.0499421 287.11518447 2460.71045633 260.728748329 c 2,66,-1
 2445.06520071 239.382651372 l 1,67,-1
 2464.29375706 221.197698822 l 2,68,69
 2498.71183019 188.647619914 2498.71183019 188.647619914 2553.94129708 173.823809957 c 128,-1,70
 2609.17076398 159 2609.17076398 159 2685.73828125 159 c 2,71,-1
 2690.87042368 159 l 1,0,1
1624.65625 159.416992188 m 1,72,-1
 1778.73254464 159.416999114 l 2,73,74
 2098.98823629 159.19938479 2098.98823629 159.19938479 2251.46252649 245.931909232 c 0,75,76
 2329.5118891 290.329021957 2329.5118891 290.329021957 2370.9687343 346.850783016 c 128,-1,77
 2412.42557951 403.372544075 2412.42557951 403.372544075 2412.66922138 471.166464709 c 0,78,79
 2412.28490825 546.209890351 2412.28490825 546.209890351 2371.79587129 599.211658095 c 0,80,81
 2338.08236891 643.343980236 2338.08236891 643.343980236 2289.88119343 665.889061362 c 128,-1,82
 2241.68001795 688.434142489 2241.68001795 688.434142489 2182.09612599 688.573234093 c 0,83,84
 1905.02958151 688.369700346 1905.02958151 688.369700346 1599.30884309 205.464077994 c 2,85,-1
 1570.15708253 159.416992188 l 1,86,-1
 1624.65625 159.416992188 l 1,72,-1
EndSplineSet
EndChar

StartChar: uniFEBB
Encoding: 65211 65211 198
GlifName: uniF_E_B_B_
Width: 1770
VWidth: 2952
GlyphClass: 2
Flags: W
AnchorPoint: "Anchor-10" 1220.91 1376.52 basechar 0
AnchorPoint: "Anchor-7" 719.209 -240.348 basechar 0
LayerCount: 2
Fore
SplineSet
727.638671875 159.416992188 m 1,0,-1
 881.695545129 159.417018597 l 2,1,2
 1042.40932278 159.203770336 1042.40932278 159.203770336 1160.09030495 180.408827512 c 128,-1,3
 1277.77128713 201.613884688 1277.77128713 201.613884688 1354.54110569 245.987610348 c 0,4,5
 1432.7271218 290.847216538 1432.7271218 290.847216538 1474.18964146 347.214883747 c 128,-1,6
 1515.65216111 403.582550956 1515.65216111 403.582550956 1515.65216111 470.642023651 c 0,7,8
 1515.61522241 495.033798132 1515.61522241 495.033798132 1511.14438115 517.469401813 c 128,-1,9
 1506.67353989 539.905005494 1506.67353989 539.905005494 1497.55272407 560.539397035 c 128,-1,10
 1488.43190825 581.173788577 1488.43190825 581.173788577 1474.80996734 599.170263164 c 0,11,12
 1441.09547584 643.216461792 1441.09547584 643.216461792 1392.95420058 665.7349656 c 128,-1,13
 1344.81292533 688.253469409 1344.81292533 688.253469409 1285.14796334 688.573419463 c 0,14,15
 1143.28152459 688.26075647 1143.28152459 688.26075647 998.733567457 566.540250491 c 128,-1,16
 854.18561032 444.819744511 854.18561032 444.819744511 702.308577542 205.491391743 c 2,17,-1
 673.069906024 159.416992188 l 1,18,-1
 727.638671875 159.416992188 l 1,0,-1
344.148338302 162.907176141 m 2,19,20
 246.788152539 30 246.788152539 30 9.984375 30 c 2,21,-1
 -6.9384765625 30 l 2,22,23
 -25.217555692 30 -25.217555692 30 -35.0841874028 34.6597706424 c 128,-1,24
 -44.9508191136 39.3195412849 -44.9508191136 39.3195412849 -49.864569713 51.9473147259 c 128,-1,25
 -54.7783203125 64.575088167 -54.7783203125 64.575088167 -54.7783203125 88.3134765625 c 2,26,-1
 -54.7784304388 107.267810366 l 2,27,28
 -54.8351219759 128.190483974 -54.8351219759 128.190483974 -50.312789936 139.16766788 c 128,-1,29
 -45.790457896 150.144851787 -45.790457896 150.144851787 -35.5765403243 154.572425893 c 128,-1,30
 -25.3626227526 159 -25.3626227526 159 -5.9384765625 159 c 2,31,-1
 10.1103515625 159 l 2,32,33
 280.344137656 159 280.344137656 159 306.125824887 311.149336356 c 0,34,35
 309.590096012 331.464279794 309.590096012 331.464279794 311.249597761 354.693138744 c 128,-1,36
 312.90909951 377.921997693 312.90909951 377.921997693 312.810562058 403.791856484 c 0,37,38
 313.004357097 435.624372441 313.004357097 435.624372441 309.917453602 475.969355547 c 2,39,-1
 306.498053854 520.659973606 l 1,40,-1
 412.185348641 539.48005504 l 1,41,-1
 427.276126486 360.099660952 l 2,42,43
 439.916868732 212.307926848 439.916868732 212.307926848 529.215572664 189.074032309 c 2,44,-1
 551.089063489 183.382948826 l 1,45,-1
 562.592885361 202.838028225 l 2,46,47
 928.097468222 820.973527816 928.097468222 820.973527816 1282.25485672 820.425855375 c 0,48,49
 1477.33295488 820.031601884 1477.33295488 820.031601884 1578.60782006 674.943627772 c 0,50,51
 1608.94494496 631.085590436 1608.94494496 631.085590436 1623.8248179 583.430596299 c 128,-1,52
 1638.70469084 535.775602161 1638.70469084 535.775602161 1638.45247527 483.423778535 c 0,53,54
 1638.24177817 458.139310851 1638.24177817 458.139310851 1634.9297418 430.776356396 c 128,-1,55
 1631.61770543 403.413401941 1631.61770543 403.413401941 1625.22214349 374.489616354 c 0,56,57
 1546.10867378 30 1546.10867378 30 876.133789062 30 c 2,58,-1
 825.323242188 30 l 2,59,60
 472.031637443 30 472.031637443 30 394.110090247 160.553938586 c 2,61,-1
 370.905026289 199.432947075 l 1,62,-1
 344.148338302 162.907176141 l 2,19,20
EndSplineSet
EndChar

